<svg width="52" height="52" viewBox="0 0 52 52" fill="none" xmlns="http://www.w3.org/2000/svg">
<path d="M0.843872 26.2027C0.843872 21.6734 1.9762 17.4771 4.21865 13.6361C6.4611 9.79503 9.50284 6.75329 13.3439 4.51084C17.1849 2.26839 21.359 1.15826 25.8661 1.15826C29.2409 1.15826 32.4824 1.82434 35.5686 3.13429C38.6547 4.44423 41.2968 6.24263 43.5392 8.46288C45.7817 10.6831 47.5579 13.3474 48.8679 16.4558C50.1778 19.5641 50.8439 22.7835 50.8439 26.2027C50.8439 29.5775 50.1778 32.819 48.8679 35.9052C47.5579 38.9913 45.7595 41.6556 43.5392 43.8759C41.319 46.0961 38.6547 47.8723 35.5686 49.1822C32.4824 50.4922 29.2631 51.1583 25.8661 51.1583C22.4691 51.1583 19.2053 50.4922 16.1192 49.1822C13.033 47.8723 10.3687 46.0739 8.12629 43.8536C5.88384 41.6334 4.12984 38.9691 2.79769 35.9052C1.46554 32.8412 0.843872 29.5997 0.843872 26.2027ZM6.35009 26.2027C6.35009 31.4647 8.2595 36.0384 12.1005 39.9238C15.9416 43.7648 20.5153 45.6743 25.8661 45.6743C29.3741 45.6743 32.6378 44.8084 35.613 43.0544C38.5881 41.3004 40.986 38.9469 42.74 35.9496C44.494 32.9522 45.3821 29.7107 45.3821 26.2027C45.3821 22.6947 44.494 19.4309 42.74 16.4336C40.986 13.4362 38.6103 11.0606 35.613 9.30658C32.6156 7.55258 29.3741 6.68668 25.8661 6.68668C22.3581 6.68668 19.0943 7.55258 16.1192 9.30658C13.144 11.0606 10.7462 13.4362 8.96998 16.4336C7.19378 19.4309 6.35009 22.6947 6.35009 26.2027ZM23.9345 26.2027V11.4158C23.9345 10.9052 24.1121 10.4611 24.4673 10.1059C24.8226 9.75063 25.2666 9.57301 25.7773 9.57301C26.2879 9.57301 26.732 9.75063 27.0872 10.1059C27.4425 10.4611 27.6201 10.9052 27.6201 11.4158V25.0703L35.5908 29.7107C36.0348 29.9771 36.3012 30.3545 36.4345 30.843C36.5677 31.3314 36.5011 31.7977 36.2346 32.2195C35.8794 32.8412 35.3465 33.1521 34.6361 33.1521C34.2586 33.1521 33.9478 33.0632 33.7036 32.8856L25.2222 27.9345C24.8448 27.8235 24.5339 27.6014 24.2897 27.2906C24.0455 26.9798 23.9345 26.6245 23.9345 26.2027Z" fill="#F2F2F2" stroke="#663399"/>
</svg>
