<svg width="53" height="53" viewBox="0 0 53 53" fill="none" xmlns="http://www.w3.org/2000/svg">
<path d="M6.07989 2.1569C5.10357 1.18059 3.52066 1.18059 2.54435 2.1569C1.56804 3.13321 1.56804 4.71612 2.54435 5.69243L6.07989 2.1569ZM47.5444 50.6924C48.5207 51.6687 50.1036 51.6687 51.0799 50.6924C52.0562 49.7161 52.0562 48.1332 51.0799 47.1569L47.5444 50.6924ZM4.31212 3.92467C2.54435 5.69243 2.54446 5.69254 2.54467 5.69275C2.54487 5.69296 2.54519 5.69327 2.5456 5.69369C2.54602 5.6941 2.54654 5.69463 2.54717 5.69525C2.54779 5.69588 2.54852 5.69661 2.54936 5.69744C2.55019 5.69827 2.55112 5.69921 2.55216 5.70025C2.5532 5.70129 2.55435 5.70243 2.55559 5.70367C2.55684 5.70492 2.55818 5.70627 2.55964 5.70772C2.56109 5.70917 2.56264 5.71072 2.5643 5.71238C2.56595 5.71404 2.56771 5.71579 2.56957 5.71766C2.57143 5.71952 2.5734 5.72148 2.57546 5.72354C2.57753 5.72561 2.57969 5.72777 2.58196 5.73004C2.58423 5.73231 2.5866 5.73468 2.58907 5.73715C2.59154 5.73962 2.59411 5.74219 2.59679 5.74487C2.59946 5.74754 2.60223 5.75032 2.60511 5.75319C2.60798 5.75607 2.61096 5.75904 2.61404 5.76212C2.61711 5.76519 2.62029 5.76837 2.62356 5.77165C2.62684 5.77492 2.63022 5.7783 2.6337 5.78178C2.63717 5.78526 2.64075 5.78883 2.64443 5.79251C2.6481 5.79618 2.65188 5.79996 2.65575 5.80384C2.65963 5.80771 2.6636 5.81169 2.66768 5.81576C2.67175 5.81983 2.67592 5.82401 2.6802 5.82828C2.68447 5.83255 2.68884 5.83692 2.69331 5.84139C2.69778 5.84586 2.70234 5.85043 2.70701 5.85509C2.71168 5.85976 2.71644 5.86452 2.7213 5.86938C2.72616 5.87425 2.73112 5.87921 2.73618 5.88426C2.74124 5.88932 2.74639 5.89448 2.75165 5.89973C2.7569 5.90498 2.76225 5.91033 2.7677 5.91578C2.77314 5.92123 2.77869 5.92677 2.78433 5.93241C2.78997 5.93805 2.79571 5.94379 2.80154 5.94963C2.80738 5.95546 2.81331 5.96139 2.81934 5.96742C2.82536 5.97345 2.83149 5.97957 2.83771 5.98579C2.84393 5.99201 2.85024 5.99832 2.85665 6.00474C2.86306 6.01115 2.86957 6.01765 2.87617 6.02426C2.88278 6.03086 2.88948 6.03756 2.89627 6.04435C2.90306 6.05114 2.90995 6.05803 2.91693 6.06502C2.92392 6.072 2.931 6.07908 2.93817 6.08625C2.94534 6.09342 2.95261 6.10069 2.95997 6.10805C2.96733 6.11542 2.97479 6.12287 2.98234 6.13042C2.98989 6.13797 2.99753 6.14562 3.00527 6.15336C3.01301 6.16109 3.02084 6.16893 3.02877 6.17685C3.03669 6.18478 3.04471 6.1928 3.05282 6.20091C3.06094 6.20902 3.06914 6.21723 3.07744 6.22552C3.08574 6.23382 3.09413 6.24221 3.10261 6.2507C3.1111 6.25918 3.11968 6.26776 3.12834 6.27643C3.13701 6.2851 3.14578 6.29386 3.15463 6.30271C3.16348 6.31157 3.17243 6.32051 3.18147 6.32955C3.1905 6.33859 3.19963 6.34772 3.20885 6.35694C3.21808 6.36616 3.22739 6.37547 3.23679 6.38487C3.2462 6.39428 3.25569 6.40377 3.26528 6.41336C3.27486 6.42295 3.28454 6.43262 3.29431 6.44239C3.30408 6.45216 3.31394 6.46202 3.32388 6.47197C3.33383 6.48192 3.34387 6.49196 3.354 6.50209C3.36413 6.51222 3.37435 6.52244 3.38466 6.53275C3.39497 6.54306 3.40537 6.55345 3.41586 6.56394C3.42635 6.57443 3.43693 6.58501 3.4476 6.59568C3.45827 6.60635 3.46902 6.61711 3.47987 6.62795C3.49072 6.6388 3.50165 6.64974 3.51268 6.66076C3.5237 6.67179 3.53482 6.6829 3.54602 6.6941C3.55722 6.7053 3.56851 6.71659 3.57989 6.72797C3.59127 6.73935 3.60274 6.75082 3.61429 6.76237C3.62585 6.77393 3.63749 6.78557 3.64922 6.7973C3.66095 6.80903 3.67277 6.82085 3.68467 6.83276C3.69658 6.84466 3.70857 6.85665 3.72065 6.86873C3.73273 6.88081 3.7449 6.89298 3.75715 6.90524C3.76941 6.91749 3.78175 6.92983 3.79418 6.94226C3.8066 6.95469 3.81912 6.9672 3.83172 6.9798C3.84432 6.9924 3.85701 7.00509 3.86978 7.01786C3.88255 7.03063 3.89541 7.04349 3.90835 7.05644C3.9213 7.06938 3.93433 7.08241 3.94744 7.09553C3.96056 7.10864 3.97376 7.12184 3.98705 7.13513C4.00033 7.14842 4.01371 7.16179 4.02716 7.17524C4.04062 7.1887 4.05416 7.20224 4.06778 7.21587C4.08141 7.22949 4.09512 7.2432 4.10892 7.257C4.12271 7.27079 4.13659 7.28467 4.15055 7.29864C4.16452 7.3126 4.17856 7.32665 4.1927 7.34078C4.20683 7.35491 4.22104 7.36912 4.23534 7.38342C4.24964 7.39772 4.26402 7.4121 4.27849 7.42657C4.29295 7.44103 4.3075 7.45558 4.32213 7.47021C4.33676 7.48484 4.35148 7.49956 4.36627 7.51436C4.38107 7.52915 4.39595 7.54403 4.41091 7.559C4.42587 7.57396 4.44092 7.589 4.45605 7.60413C4.47117 7.61926 4.48638 7.63446 4.50167 7.64975C4.51696 7.66505 4.53234 7.68042 4.54779 7.69587C4.56324 7.71133 4.57878 7.72686 4.5944 7.74248C4.61001 7.7581 4.62571 7.77379 4.64149 7.78957C4.65727 7.80535 4.67313 7.82121 4.68907 7.83715C4.70501 7.85309 4.72103 7.86912 4.73714 7.88522C4.75324 7.90132 4.76942 7.9175 4.78568 7.93377C4.80195 7.95003 4.81829 7.96637 4.83471 7.98279C4.85113 7.99922 4.86764 8.01572 4.88422 8.0323C4.9008 8.04889 4.91746 8.06555 4.93421 8.08229C4.95095 8.09903 4.96777 8.11585 4.98467 8.13275C5.00157 8.14965 5.01855 8.16663 5.0356 8.18369C5.05266 8.20074 5.0698 8.21788 5.08701 8.2351C5.10423 8.25231 5.12152 8.2696 5.13889 8.28698C5.15627 8.30435 5.17372 8.3218 5.19124 8.33933C5.20877 8.35685 5.22638 8.37446 5.24406 8.39214C5.26174 8.40983 5.27951 8.42759 5.29734 8.44543C5.31518 8.46327 5.3331 8.48118 5.35109 8.49917C5.36909 8.51717 5.38716 8.53524 5.4053 8.55339C5.42345 8.57153 5.44167 8.58976 5.45997 8.60806C5.47828 8.62636 5.49665 8.64473 5.51511 8.66319C5.53356 8.68164 5.55209 8.70017 5.57069 8.71878C5.5893 8.73738 5.60798 8.75607 5.62674 8.77482C5.6455 8.79358 5.66433 8.81241 5.68324 8.83132C5.70215 8.85023 5.72113 8.86921 5.74019 8.88827C5.75925 8.90733 5.77839 8.92647 5.79759 8.94568C5.8168 8.96489 5.83609 8.98417 5.85545 9.00353C5.87481 9.02289 5.89424 9.04232 5.91375 9.06183C5.93326 9.08134 5.95284 9.10092 5.97249 9.12058C5.99215 9.14023 6.01188 9.15996 6.03169 9.17977C6.05149 9.19957 6.07137 9.21945 6.09132 9.2394C6.11127 9.25935 6.1313 9.27938 6.15139 9.29948C6.17149 9.31958 6.19166 9.33975 6.21191 9.35999C6.23215 9.38024 6.25247 9.40055 6.27286 9.42094C6.29325 9.44133 6.31371 9.4618 6.33425 9.48233C6.35478 9.50287 6.37539 9.52347 6.39607 9.54415C6.41675 9.56483 6.4375 9.58559 6.45833 9.60641C6.47915 9.62723 6.50005 9.64813 6.52101 9.6691C6.54198 9.69006 6.56302 9.7111 6.58413 9.73221C6.60524 9.75332 6.62642 9.7745 6.64767 9.79576C6.66892 9.81701 6.69025 9.83833 6.71164 9.85972C6.73304 9.88112 6.7545 9.90258 6.77604 9.92412C6.79757 9.94565 6.81918 9.96726 6.84085 9.98894C6.86253 10.0106 6.88428 10.0324 6.90609 10.0542C6.92791 10.076 6.94979 10.0979 6.97175 10.1198C6.9937 10.1418 7.01573 10.1638 7.03782 10.1859C7.05992 10.208 7.08208 10.2302 7.10432 10.2524C7.12655 10.2746 7.14885 10.2969 7.17122 10.3193C7.19359 10.3417 7.21603 10.3641 7.23854 10.3866C7.26105 10.4091 7.28362 10.4317 7.30627 10.4544C7.32891 10.477 7.35163 10.4997 7.37441 10.5225C7.39719 10.5453 7.42004 10.5681 7.44295 10.591C7.46587 10.614 7.48886 10.6369 7.51191 10.66C7.53496 10.683 7.55808 10.7062 7.58126 10.7293C7.60445 10.7525 7.6277 10.7758 7.65102 10.7991C7.67434 10.8224 7.69773 10.8458 7.72119 10.8693C7.74464 10.8927 7.76816 10.9162 7.79175 10.9398C7.81533 10.9634 7.83899 10.9871 7.8627 11.0108C7.88642 11.0345 7.91021 11.0583 7.93406 11.0821C7.95791 11.106 7.98183 11.1299 8.00581 11.1539C8.02979 11.1779 8.05384 11.2019 8.07795 11.226C8.10206 11.2501 8.12624 11.2743 8.15048 11.2986C8.17472 11.3228 8.19903 11.3471 8.2234 11.3715C8.24778 11.3959 8.27221 11.4203 8.29671 11.4448C8.32122 11.4693 8.34578 11.4939 8.37041 11.5185C8.39504 11.5431 8.41973 11.5678 8.44449 11.5926C8.46925 11.6173 8.49407 11.6422 8.51895 11.667C8.54384 11.6919 8.56879 11.7169 8.5938 11.7419C8.61881 11.7669 8.64388 11.792 8.66902 11.8171C8.69416 11.8422 8.71936 11.8674 8.74462 11.8927C8.76989 11.918 8.79521 11.9433 8.8206 11.9687C8.84599 11.9941 8.87144 12.0195 8.89695 12.045C8.92247 12.0705 8.94804 12.0961 8.97368 12.1218C8.99931 12.1474 9.02501 12.1731 9.05077 12.1989C9.07653 12.2246 9.10235 12.2504 9.12824 12.2763C9.15412 12.3022 9.18007 12.3281 9.20607 12.3542C9.23208 12.3802 9.25814 12.4062 9.28427 12.4324C9.3104 12.4585 9.33659 12.4847 9.36283 12.5109C9.38908 12.5372 9.41539 12.5635 9.44176 12.5898C9.46813 12.6162 9.49456 12.6426 9.52105 12.6691C9.54754 12.6956 9.57409 12.7222 9.60069 12.7488C9.6273 12.7754 9.65397 12.8021 9.6807 12.8288C9.70743 12.8555 9.73421 12.8823 9.76106 12.9091C9.78791 12.936 9.81481 12.9629 9.84177 12.9899C9.86874 13.0168 9.89576 13.0438 9.92284 13.0709C9.94992 13.098 9.97706 13.1251 10.0043 13.1523C10.0315 13.1795 10.0587 13.2068 10.086 13.2341C10.1133 13.2614 10.1407 13.2888 10.1681 13.3162C10.1956 13.3437 10.2231 13.3711 10.2506 13.3987C10.2782 13.4262 10.3058 13.4538 10.3334 13.4815C10.3611 13.5092 10.3888 13.5369 10.4166 13.5646C10.4443 13.5924 10.4722 13.6203 10.5001 13.6481C10.5279 13.676 10.5559 13.704 10.5839 13.732C10.6119 13.76 10.6399 13.788 10.6681 13.8161C10.6962 13.8442 10.7243 13.8724 10.7526 13.9006C10.7808 13.9289 10.8091 13.9571 10.8374 13.9855C10.8657 14.0138 10.8941 14.0422 10.9226 14.0706C10.951 14.0991 10.9795 14.1276 11.0081 14.1562C11.0366 14.1847 11.0652 14.2133 11.0939 14.242C11.1226 14.2706 11.1513 14.2994 11.1801 14.3281C11.2088 14.3569 11.2377 14.3857 11.2665 14.4146C11.2954 14.4435 11.3244 14.4724 11.3534 14.5014C11.3823 14.5304 11.4114 14.5595 11.4405 14.5886C11.4696 14.6177 11.4987 14.6468 11.5279 14.676C11.5571 14.7052 11.5864 14.7345 11.6157 14.7638C11.645 14.7931 11.6744 14.8225 11.7038 14.8519C11.7332 14.8813 11.7627 14.9108 11.7922 14.9403C11.8217 14.9698 11.8513 14.9994 11.8809 15.029C11.9106 15.0586 11.9402 15.0883 11.97 15.1181C11.9997 15.1478 12.0295 15.1776 12.0593 15.2074C12.0891 15.2372 12.119 15.2671 12.149 15.2971C12.1789 15.327 12.2089 15.357 12.2389 15.387C12.269 15.4171 12.2991 15.4471 12.3292 15.4773C12.3593 15.5074 12.3895 15.5376 12.4198 15.5679C12.45 15.5981 12.4803 15.6284 12.5107 15.6587C12.541 15.6891 12.5714 15.7195 12.6018 15.7499C12.6323 15.7804 12.6628 15.8108 12.6933 15.8414C12.7238 15.8719 12.7544 15.9025 12.7851 15.9332C12.8157 15.9638 12.8464 15.9945 12.8771 16.0252C12.9079 16.056 12.9387 16.0868 12.9695 16.1176C13.0004 16.1484 13.0312 16.1793 13.0622 16.2103C13.0931 16.2412 13.1241 16.2722 13.1551 16.3032C13.1862 16.3342 13.2172 16.3653 13.2484 16.3964C13.2795 16.4276 13.3107 16.4587 13.3419 16.49C13.3731 16.5212 13.4044 16.5525 13.4357 16.5838C13.467 16.6151 13.4984 16.6465 13.5298 16.6779C13.5612 16.7093 13.5927 16.7407 13.6242 16.7723C13.6557 16.8038 13.6872 16.8353 13.7188 16.8669C13.7504 16.8985 13.7821 16.9302 13.8138 16.9619C13.8455 16.9935 13.8772 17.0253 13.909 17.0571C13.9408 17.0889 13.9726 17.1207 14.0045 17.1526C14.0364 17.1844 14.0683 17.2164 14.1003 17.2483C14.1322 17.2803 14.1642 17.3123 14.1963 17.3444C14.2284 17.3764 14.2605 17.4085 14.2926 17.4407C14.3248 17.4728 14.3569 17.505 14.3892 17.5373C14.4214 17.5695 14.4537 17.6018 14.486 17.6341C14.5184 17.6664 14.5507 17.6988 14.5832 17.7312C14.6156 17.7637 14.648 17.7961 14.6805 17.8286C14.713 17.8611 14.7456 17.8937 14.7782 17.9263C14.8108 17.9588 14.8434 17.9915 14.8761 18.0242C14.9088 18.0568 14.9415 18.0896 14.9742 18.1223C15.007 18.1551 15.0398 18.1879 15.0727 18.2207C15.1055 18.2536 15.1384 18.2865 15.1713 18.3194C15.2043 18.3524 15.2373 18.3853 15.2703 18.4184C15.3033 18.4514 15.3364 18.4844 15.3695 18.5175C15.4026 18.5506 15.4357 18.5838 15.4689 18.617C15.5021 18.6502 15.5353 18.6834 15.5686 18.7167C15.6018 18.7499 15.6352 18.7832 15.6685 18.8166C15.7019 18.8499 15.7353 18.8833 15.7687 18.9168C15.8021 18.9502 15.8356 18.9837 15.8691 19.0172C15.9026 19.0507 15.9362 19.0843 15.9698 19.1179C16.0034 19.1515 16.037 19.1851 16.0707 19.2188C16.1044 19.2524 16.1381 19.2862 16.1718 19.3199C16.2056 19.3537 16.2394 19.3875 16.2732 19.4213C16.307 19.4551 16.3409 19.489 16.3748 19.5229C16.4087 19.5568 16.4427 19.5908 16.4767 19.6248C16.5107 19.6588 16.5447 19.6928 16.5788 19.7269C16.6128 19.7609 16.6469 19.795 16.6811 19.8292C16.7152 19.8633 16.7494 19.8975 16.7836 19.9317C16.8179 19.9659 16.8521 20.0002 16.8864 20.0345C16.9207 20.0688 16.955 20.1031 16.9894 20.1375C17.0238 20.1719 17.0582 20.2063 17.0926 20.2407C17.1271 20.2752 17.1616 20.3097 17.1961 20.3442C17.2306 20.3787 17.2652 20.4133 17.2998 20.4478C17.3344 20.4824 17.369 20.5171 17.4037 20.5517C17.4383 20.5864 17.473 20.6211 17.5078 20.6558C17.5425 20.6906 17.5773 20.7254 17.6121 20.7602C17.6469 20.795 17.6817 20.8298 17.7166 20.8647C17.7515 20.8996 17.7864 20.9345 17.8214 20.9695C17.8563 21.0044 17.8913 21.0394 17.9263 21.0744C17.9614 21.1094 17.9964 21.1445 18.0315 21.1796C18.0666 21.2147 18.1017 21.2498 18.1369 21.285C18.172 21.3201 18.2072 21.3553 18.2425 21.3906C18.2777 21.4258 18.313 21.461 18.3483 21.4963C18.3836 21.5316 18.4189 21.567 18.4543 21.6023C18.4896 21.6377 18.525 21.6731 18.5604 21.7085C18.5959 21.744 18.6313 21.7794 18.6668 21.8149C18.7023 21.8504 18.7379 21.886 18.7734 21.9215C18.809 21.9571 18.8446 21.9927 18.8802 22.0283C18.9158 22.0639 18.9515 22.0996 18.9872 22.1353C19.0229 22.171 19.0586 22.2067 19.0944 22.2425C19.1301 22.2782 19.1659 22.314 19.2017 22.3498C19.2376 22.3856 19.2734 22.4215 19.3093 22.4574C19.3452 22.4933 19.3811 22.5292 19.417 22.5651C19.453 22.6011 19.489 22.637 19.525 22.673C19.561 22.7091 19.597 22.7451 19.6331 22.7812C19.6691 22.8172 19.7052 22.8533 19.7414 22.8895C19.7775 22.9256 19.8137 22.9617 19.8499 22.9979C19.886 23.0341 19.9223 23.0703 19.9585 23.1066C19.9948 23.1428 20.031 23.1791 20.0673 23.2154C20.1036 23.2517 20.14 23.2881 20.1764 23.3244C20.2127 23.3608 20.2491 23.3972 20.2855 23.4336C20.322 23.47 20.3584 23.5065 20.3949 23.543C20.4314 23.5795 20.4679 23.616 20.5044 23.6525C20.541 23.689 20.5775 23.7256 20.6141 23.7622C20.6507 23.7988 20.6873 23.8354 20.724 23.8721C20.7606 23.9087 20.7973 23.9454 20.834 23.9821C20.8707 24.0188 20.9075 24.0555 20.9442 24.0923C20.981 24.1291 21.0178 24.1658 21.0546 24.2027C21.0914 24.2395 21.1282 24.2763 21.1651 24.3132C21.202 24.35 21.2389 24.3869 21.2758 24.4239C21.3127 24.4608 21.3496 24.4977 21.3866 24.5347C21.4236 24.5717 21.4606 24.6087 21.4976 24.6457C21.5346 24.6827 21.5717 24.7198 21.6088 24.7568C21.6458 24.7939 21.6829 24.831 21.7201 24.8681C21.7572 24.9053 21.7943 24.9424 21.8315 24.9796C21.8687 25.0168 21.9059 25.054 21.9431 25.0912C21.9803 25.1284 22.0176 25.1657 22.0549 25.2029C22.0921 25.2402 22.1294 25.2775 22.1668 25.3148C22.2041 25.3522 22.2414 25.3895 22.2788 25.4269C22.3162 25.4642 22.3536 25.5016 22.391 25.5391C22.4284 25.5765 22.4658 25.6139 22.5033 25.6514C22.5408 25.6888 22.5783 25.7263 22.6158 25.7638C22.6533 25.8014 22.6908 25.8389 22.7284 25.8764C22.7659 25.914 22.8035 25.9516 22.8411 25.9892C22.8787 26.0268 22.9163 26.0644 22.954 26.1021C22.9916 26.1397 23.0293 26.1774 23.067 26.2151C23.1047 26.2528 23.1424 26.2905 23.1801 26.3282C23.2178 26.3659 23.2556 26.4037 23.2934 26.4415C23.3312 26.4792 23.369 26.517 23.4068 26.5549C23.4446 26.5927 23.4824 26.6305 23.5203 26.6684C23.5582 26.7062 23.596 26.7441 23.6339 26.782C23.6718 26.8199 23.7098 26.8578 23.7477 26.8958C23.7856 26.9337 23.8236 26.9717 23.8616 27.0097C23.8996 27.0477 23.9376 27.0857 23.9756 27.1237C24.0136 27.1617 24.0517 27.1997 24.0897 27.2378C24.1278 27.2759 24.1659 27.3139 24.204 27.352C24.2421 27.3901 24.2802 27.4283 24.3183 27.4664C24.3565 27.5045 24.3946 27.5427 24.4328 27.5809C24.471 27.619 24.5092 27.6572 24.5474 27.6954C24.5856 27.7337 24.6238 27.7719 24.6621 27.8101C24.7003 27.8484 24.7386 27.8866 24.7768 27.9249C24.8151 27.9632 24.8534 28.0015 24.8917 28.0398C24.9301 28.0782 24.9684 28.1165 25.0068 28.1548C25.0451 28.1932 25.0835 28.2316 25.1219 28.2699C25.1603 28.3083 25.1987 28.3467 25.2371 28.3852C25.2755 28.4236 25.3139 28.462 25.3524 28.5005C25.3908 28.5389 25.4293 28.5774 25.4678 28.6159C25.5063 28.6544 25.5448 28.6929 25.5833 28.7314C25.6218 28.7699 25.6604 28.8084 25.6989 28.847C25.7374 28.8855 25.776 28.9241 25.8146 28.9627C25.8532 29.0013 25.8918 29.0398 25.9304 29.0785C25.969 29.1171 26.0076 29.1557 26.0462 29.1943C26.0849 29.233 26.1235 29.2716 26.1622 29.3103C26.2009 29.349 26.2396 29.3876 26.2782 29.4263C26.3169 29.465 26.3557 29.5037 26.3944 29.5425C26.4331 29.5812 26.4718 29.6199 26.5106 29.6587C26.5493 29.6974 26.5881 29.7362 26.6269 29.775C26.6657 29.8137 26.7045 29.8525 26.7433 29.8913C26.7821 29.9301 26.8209 29.969 26.8597 30.0078C26.8985 30.0466 26.9374 30.0855 26.9762 30.1243C27.0151 30.1632 27.054 30.202 27.0928 30.2409C27.1317 30.2798 27.1706 30.3187 27.2095 30.3576C27.2484 30.3965 27.2873 30.4354 27.3263 30.4743C27.3652 30.5133 27.4041 30.5522 27.4431 30.5912C27.482 30.6301 27.521 30.6691 27.56 30.708C27.5989 30.747 27.6379 30.786 27.6769 30.825C27.7159 30.864 27.7549 30.903 27.7939 30.942C27.8329 30.981 27.872 31.02 27.911 31.0591C27.95 31.0981 27.9891 31.1372 28.0281 31.1762C28.0672 31.2153 28.1063 31.2543 28.1453 31.2934C28.1844 31.3325 28.2235 31.3716 28.2626 31.4107C28.3017 31.4498 28.3408 31.4889 28.3799 31.528C28.419 31.5671 28.4581 31.6062 28.4973 31.6454C28.5364 31.6845 28.5755 31.7236 28.6147 31.7628C28.6538 31.8019 28.693 31.8411 28.7322 31.8802C28.7713 31.9194 28.8105 31.9586 28.8497 31.9978C28.8889 32.0369 28.928 32.0761 28.9672 32.1153C29.0064 32.1545 29.0456 32.1937 29.0849 32.2329C29.1241 32.2721 29.1633 32.3114 29.2025 32.3506C29.2417 32.3898 29.281 32.4291 29.3202 32.4683C29.3595 32.5075 29.3987 32.5468 29.438 32.586C29.4772 32.6253 29.5165 32.6646 29.5557 32.7038C29.595 32.7431 29.6343 32.7824 29.6736 32.8216C29.7128 32.8609 29.7521 32.9002 29.7914 32.9395C29.8307 32.9788 29.87 33.0181 29.9093 33.0574C29.9486 33.0967 29.9879 33.136 30.0272 33.1753C30.0665 33.2146 30.1058 33.2539 30.1452 33.2933C30.1845 33.3326 30.2238 33.3719 30.2632 33.4112C30.3025 33.4506 30.3418 33.4899 30.3812 33.5292C30.4205 33.5686 30.4599 33.6079 30.4992 33.6473C30.5386 33.6866 30.5779 33.726 30.6173 33.7653C30.6566 33.8047 30.696 33.8441 30.7353 33.8834C30.7747 33.9228 30.8141 33.9622 30.8535 34.0015C30.8928 34.0409 30.9322 34.0803 30.9716 34.1197C31.011 34.159 31.0503 34.1984 31.0897 34.2378C31.1291 34.2772 31.1685 34.3166 31.2079 34.356C31.2473 34.3953 31.2867 34.4347 31.326 34.4741C31.3654 34.5135 31.4048 34.5529 31.4442 34.5923C31.4836 34.6317 31.523 34.6711 31.5624 34.7105C31.6018 34.7499 31.6412 34.7893 31.6806 34.8287C31.72 34.8681 31.7594 34.9075 31.7988 34.9469C31.8383 34.9863 31.8777 35.0257 31.9171 35.0652C31.9565 35.1046 31.9959 35.144 32.0353 35.1834C32.0747 35.2228 32.1141 35.2622 32.1535 35.3016C32.1929 35.341 32.2323 35.3804 32.2718 35.4198C32.3112 35.4592 32.3506 35.4987 32.39 35.5381C32.4294 35.5775 32.4688 35.6169 32.5082 35.6563C32.5476 35.6957 32.587 35.7351 32.6264 35.7745C32.6658 35.8139 32.7052 35.8533 32.7446 35.8927C32.784 35.9321 32.8235 35.9715 32.8629 36.0109C32.9023 36.0503 32.9417 36.0897 32.9811 36.1291C33.0204 36.1685 33.0598 36.2079 33.0992 36.2473C33.1386 36.2867 33.178 36.3261 33.2174 36.3655C33.2568 36.4049 33.2962 36.4443 33.3356 36.4837C33.375 36.5231 33.4144 36.5624 33.4537 36.6018C33.4931 36.6412 33.5325 36.6806 33.5719 36.7199C33.6112 36.7593 33.6506 36.7987 33.69 36.8381C33.7293 36.8774 33.7687 36.9168 33.8081 36.9561C33.8474 36.9955 33.8868 37.0349 33.9261 37.0742C33.9655 37.1136 34.0048 37.1529 34.0442 37.1923C34.0835 37.2316 34.1229 37.2709 34.1622 37.3103C34.2015 37.3496 34.2409 37.3889 34.2802 37.4283C34.3195 37.4676 34.3588 37.5069 34.3982 37.5462C34.4375 37.5856 34.4768 37.6249 34.5161 37.6642C34.5554 37.7035 34.5947 37.7428 34.634 37.7821C34.6733 37.8214 34.7126 37.8607 34.7519 37.8999C34.7911 37.9392 34.8304 37.9785 34.8697 38.0178C34.909 38.057 34.9482 38.0963 34.9875 38.1356C35.0267 38.1748 35.066 38.2141 35.1052 38.2533C35.1445 38.2926 35.1837 38.3318 35.223 38.371C35.2622 38.4103 35.3014 38.4495 35.3406 38.4887C35.3798 38.5279 35.4191 38.5671 35.4583 38.6063C35.4975 38.6455 35.5367 38.6847 35.5758 38.7239C35.615 38.7631 35.6542 38.8023 35.6934 38.8415C35.7325 38.8806 35.7717 38.9198 35.8109 38.9589C35.85 38.9981 35.8892 39.0372 35.9283 39.0764C35.9674 39.1155 36.0066 39.1546 36.0457 39.1938C36.0848 39.2329 36.1239 39.272 36.163 39.3111C36.2021 39.3502 36.2412 39.3893 36.2803 39.4284C36.3194 39.4675 36.3584 39.5065 36.3975 39.5456C36.4366 39.5847 36.4756 39.6237 36.5147 39.6628C36.5537 39.7018 36.5927 39.7408 36.6318 39.7799C36.6708 39.8189 36.7098 39.8579 36.7488 39.8969C36.7878 39.9359 36.8268 39.9749 36.8658 40.0139C36.9048 40.0528 36.9437 40.0918 36.9827 40.1308C37.0216 40.1697 37.0606 40.2087 37.0995 40.2476C37.1385 40.2865 37.1774 40.3255 37.2163 40.3644C37.2552 40.4033 37.2941 40.4422 37.333 40.4811C37.3719 40.52 37.4108 40.5588 37.4496 40.5977C37.4885 40.6366 37.5273 40.6754 37.5662 40.7143C37.605 40.7531 37.6438 40.7919 37.6827 40.8307C37.7215 40.8696 37.7603 40.9084 37.7991 40.9471C37.8378 40.9859 37.8766 41.0247 37.9154 41.0635C37.9541 41.1022 37.9929 41.141 38.0316 41.1797C38.0704 41.2184 38.1091 41.2572 38.1478 41.2959C38.1865 41.3346 38.2252 41.3733 38.2639 41.4119C38.3025 41.4506 38.3412 41.4893 38.3799 41.5279C38.4185 41.5666 38.4571 41.6052 38.4958 41.6438C38.5344 41.6825 38.573 41.7211 38.6116 41.7597C38.6502 41.7982 38.6887 41.8368 38.7273 41.8754C38.7659 41.9139 38.8044 41.9525 38.8429 41.991C38.8815 42.0295 38.92 42.0681 38.9585 42.1066C38.997 42.145 39.0354 42.1835 39.0739 42.222C39.1124 42.2605 39.1508 42.2989 39.1893 42.3373C39.2277 42.3758 39.2661 42.4142 39.3045 42.4526C39.3429 42.491 39.3813 42.5294 39.4196 42.5677C39.458 42.6061 39.4964 42.6444 39.5347 42.6828C39.573 42.7211 39.6113 42.7594 39.6496 42.7977C39.6879 42.836 39.7262 42.8743 39.7645 42.9125C39.8027 42.9508 39.841 42.9891 39.8792 43.0273C39.9174 43.0655 39.9556 43.1037 39.9938 43.1419C40.032 43.1801 40.0702 43.2183 40.1083 43.2564C40.1465 43.2946 40.1846 43.3327 40.2227 43.3708C40.2608 43.4089 40.2989 43.447 40.337 43.4851C40.3751 43.5232 40.4131 43.5612 40.4512 43.5992C40.4892 43.6373 40.5272 43.6753 40.5652 43.7133C40.6032 43.7513 40.6412 43.7893 40.6791 43.8272C40.7171 43.8652 40.755 43.9031 40.793 43.941C40.8309 43.979 40.8688 44.0169 40.9066 44.0547C40.9445 44.0926 40.9824 44.1305 41.0202 44.1683C41.058 44.2061 41.0959 44.2439 41.1336 44.2817C41.1714 44.3195 41.2092 44.3573 41.247 44.395C41.2847 44.4328 41.3224 44.4705 41.3601 44.5082C41.3978 44.5459 41.4355 44.5836 41.4732 44.6213C41.5109 44.6589 41.5485 44.6966 41.5861 44.7342C41.6237 44.7718 41.6613 44.8094 41.6989 44.847C41.7365 44.8845 41.774 44.9221 41.8115 44.9596C41.8491 44.9972 41.8866 45.0347 41.9241 45.0721C41.9615 45.1096 41.999 45.1471 42.0364 45.1845C42.0739 45.222 42.1113 45.2594 42.1487 45.2967C42.1861 45.3341 42.2234 45.3715 42.2608 45.4088C42.2981 45.4462 42.3354 45.4835 42.3727 45.5208C42.41 45.5581 42.4473 45.5953 42.4845 45.6326C42.5217 45.6698 42.559 45.7071 42.5962 45.7442C42.6334 45.7814 42.6705 45.8186 42.7077 45.8558C42.7448 45.8929 42.7819 45.93 42.819 45.9671C42.8561 46.0042 42.8932 46.0413 42.9302 46.0783C42.9673 46.1154 43.0043 46.1524 43.0413 46.1894C43.0783 46.2263 43.1152 46.2633 43.1522 46.3003C43.1891 46.3372 43.226 46.3741 43.2629 46.411C43.2998 46.4479 43.3367 46.4847 43.3735 46.5216C43.4103 46.5584 43.4471 46.5952 43.4839 46.632C43.5207 46.6688 43.5574 46.7055 43.5942 46.7422C43.6309 46.779 43.6676 46.8157 43.7042 46.8523C43.7409 46.889 43.7776 46.9256 43.8142 46.9623C43.8508 46.9989 43.8874 47.0355 43.9239 47.072C43.9605 47.1086 43.997 47.1451 44.0335 47.1816C44.07 47.2181 44.1065 47.2546 44.1429 47.291C44.1794 47.3275 44.2158 47.3639 44.2522 47.4003C44.2886 47.4367 44.3249 47.473 44.3613 47.5093C44.3976 47.5457 44.4339 47.582 44.4702 47.6182C44.5064 47.6545 44.5427 47.6908 44.5789 47.727C44.6151 47.7632 44.6513 47.7994 44.6874 47.8355C44.7236 47.8717 44.7597 47.9078 44.7958 47.9439C44.8319 47.98 44.8679 48.016 44.904 48.052C44.94 48.0881 44.976 48.1241 45.012 48.16C45.0479 48.196 45.0839 48.2319 45.1198 48.2679C45.1557 48.3038 45.1915 48.3396 45.2274 48.3755C45.2632 48.4113 45.299 48.4471 45.3348 48.4829C45.3706 48.5187 45.4063 48.5544 45.4421 48.5901C45.4778 48.6259 45.5135 48.6615 45.5491 48.6972C45.5848 48.7329 45.6204 48.7685 45.656 48.8041C45.6916 48.8396 45.7271 48.8752 45.7626 48.9107C45.7982 48.9462 45.8336 48.9817 45.8691 49.0172C45.9046 49.0526 45.94 49.0881 45.9754 49.1234C46.0108 49.1588 46.0461 49.1942 46.0814 49.2295C46.1168 49.2648 46.152 49.3001 46.1873 49.3354C46.2225 49.3706 46.2578 49.4059 46.293 49.441C46.3281 49.4762 46.3633 49.5114 46.3984 49.5465C46.4335 49.5816 46.4686 49.6167 46.5037 49.6517C46.5387 49.6868 46.5737 49.7218 46.6087 49.7568C46.6437 49.7917 46.6786 49.8267 46.7135 49.8616C46.7484 49.8965 46.7833 49.9314 46.8181 49.9662C46.853 50.001 46.8878 50.0358 46.9225 50.0706C46.9573 50.1054 46.992 50.1401 47.0267 50.1748C47.0614 50.2095 47.0961 50.2441 47.1307 50.2788C47.1653 50.3134 47.1999 50.348 47.2344 50.3825C47.269 50.4171 47.3035 50.4516 47.338 50.486C47.3724 50.5205 47.4069 50.555 47.4413 50.5894C47.4757 50.6237 47.51 50.6581 47.5444 50.6924L51.0799 47.1569C51.0456 47.1226 51.0112 47.0882 50.9768 47.0538C50.9424 47.0194 50.908 46.985 50.8735 46.9505C50.839 46.916 50.8045 46.8815 50.77 46.847C50.7354 46.8124 50.7008 46.7779 50.6662 46.7432C50.6316 46.7086 50.5969 46.674 50.5623 46.6393C50.5276 46.6046 50.4928 46.5698 50.4581 46.5351C50.4233 46.5003 50.3885 46.4655 50.3537 46.4307C50.3188 46.3958 50.284 46.361 50.249 46.3261C50.2141 46.2912 50.1792 46.2562 50.1442 46.2212C50.1092 46.1863 50.0742 46.1512 50.0392 46.1162C50.0041 46.0812 49.9691 46.0461 49.9339 46.011C49.8988 45.9758 49.8637 45.9407 49.8285 45.9055C49.7933 45.8703 49.7581 45.8351 49.7228 45.7998C49.6876 45.7646 49.6523 45.7293 49.617 45.694C49.5816 45.6587 49.5463 45.6233 49.5109 45.5879C49.4755 45.5525 49.4401 45.5171 49.4046 45.4816C49.3692 45.4462 49.3337 45.4107 49.2982 45.3752C49.2626 45.3397 49.2271 45.3041 49.1915 45.2685C49.1559 45.2329 49.1203 45.1973 49.0847 45.1617C49.049 45.126 49.0133 45.0903 48.9776 45.0546C48.9419 45.0189 48.9061 44.9832 48.8704 44.9474C48.8346 44.9116 48.7988 44.8758 48.7629 44.8399C48.7271 44.8041 48.6912 44.7682 48.6553 44.7323C48.6194 44.6964 48.5835 44.6605 48.5475 44.6245C48.5115 44.5885 48.4755 44.5525 48.4395 44.5165C48.4035 44.4805 48.3674 44.4444 48.3313 44.4083C48.2952 44.3722 48.2591 44.3361 48.223 44.3C48.1868 44.2638 48.1506 44.2276 48.1144 44.1914C48.0782 44.1552 48.042 44.119 48.0057 44.0827C47.9694 44.0464 47.9331 44.0101 47.8968 43.9738C47.8605 43.9375 47.8241 43.9011 47.7877 43.8647C47.7513 43.8284 47.7149 43.7919 47.6785 43.7555C47.642 43.719 47.6056 43.6826 47.5691 43.6461C47.5326 43.6096 47.496 43.573 47.4595 43.5365C47.4229 43.4999 47.3863 43.4633 47.3497 43.4267C47.3131 43.3901 47.2765 43.3535 47.2398 43.3168C47.2031 43.2801 47.1664 43.2434 47.1297 43.2067C47.093 43.17 47.0562 43.1332 47.0194 43.0964C46.9827 43.0597 46.9459 43.0229 46.909 42.986C46.8722 42.9492 46.8353 42.9123 46.7984 42.8755C46.7616 42.8386 46.7246 42.8017 46.6877 42.7647C46.6508 42.7278 46.6138 42.6908 46.5768 42.6538C46.5398 42.6168 46.5028 42.5798 46.4658 42.5428C46.4287 42.5057 46.3917 42.4687 46.3546 42.4316C46.3175 42.3945 46.2803 42.3574 46.2432 42.3202C46.2061 42.2831 46.1689 42.2459 46.1317 42.2087C46.0945 42.1715 46.0573 42.1343 46.02 42.0971C45.9828 42.0598 45.9455 42.0225 45.9082 41.9853C45.8709 41.948 45.8336 41.9106 45.7963 41.8733C45.759 41.836 45.7216 41.7986 45.6842 41.7612C45.6468 41.7238 45.6094 41.6864 45.572 41.649C45.5345 41.6115 45.4971 41.5741 45.4596 41.5366C45.4221 41.4991 45.3846 41.4616 45.3471 41.4241C45.3096 41.3866 45.272 41.349 45.2344 41.3114C45.1969 41.2739 45.1593 41.2363 45.1216 41.1987C45.084 41.161 45.0464 41.1234 45.0087 41.0857C44.9711 41.0481 44.9334 41.0104 44.8957 40.9727C44.858 40.935 44.8202 40.8973 44.7825 40.8595C44.7447 40.8218 44.707 40.784 44.6692 40.7462C44.6314 40.7084 44.5936 40.6706 44.5557 40.6328C44.5179 40.5949 44.4801 40.5571 44.4422 40.5192C44.4043 40.4813 44.3664 40.4434 44.3285 40.4055C44.2906 40.3676 44.2526 40.3296 44.2147 40.2917C44.1767 40.2537 44.1387 40.2158 44.1007 40.1778C44.0628 40.1398 44.0247 40.1017 43.9867 40.0637C43.9487 40.0257 43.9106 39.9876 43.8725 39.9495C43.8345 39.9115 43.7964 39.8734 43.7583 39.8353C43.7201 39.7972 43.682 39.759 43.6439 39.7209C43.6057 39.6827 43.5675 39.6446 43.5293 39.6064C43.4912 39.5682 43.453 39.53 43.4147 39.4917C43.3765 39.4535 43.3383 39.4153 43.3 39.377C43.2617 39.3388 43.2235 39.3005 43.1852 39.2622C43.1469 39.2239 43.1086 39.1856 43.0702 39.1472C43.0319 39.1089 42.9935 39.0706 42.9552 39.0322C42.9168 38.9938 42.8784 38.9554 42.84 38.9171C42.8016 38.8787 42.7632 38.8402 42.7248 38.8018C42.6864 38.7634 42.6479 38.7249 42.6094 38.6865C42.571 38.648 42.5325 38.6095 42.494 38.571C42.4555 38.5325 42.417 38.494 42.3785 38.4555C42.3399 38.4169 42.3014 38.3784 42.2628 38.3398C42.2243 38.3013 42.1857 38.2627 42.1471 38.2241C42.1085 38.1855 42.0699 38.1469 42.0313 38.1083C41.9927 38.0697 41.954 38.0311 41.9154 37.9924C41.8767 37.9538 41.8381 37.9151 41.7994 37.8764C41.7607 37.8377 41.722 37.799 41.6833 37.7603C41.6446 37.7216 41.6059 37.6829 41.5672 37.6442C41.5284 37.6054 41.4897 37.5667 41.4509 37.5279C41.4122 37.4892 41.3734 37.4504 41.3346 37.4116C41.2958 37.3728 41.257 37.334 41.2182 37.2952C41.1794 37.2564 41.1406 37.2176 41.1017 37.1787C41.0629 37.1399 41.024 37.101 40.9852 37.0622C40.9463 37.0233 40.9074 36.9844 40.8685 36.9455C40.8296 36.9067 40.7907 36.8678 40.7518 36.8288C40.7129 36.7899 40.674 36.751 40.6351 36.7121C40.5961 36.6731 40.5572 36.6342 40.5182 36.5952C40.4793 36.5563 40.4403 36.5173 40.4013 36.4783C40.3623 36.4393 40.3233 36.4004 40.2843 36.3614C40.2453 36.3224 40.2063 36.2833 40.1673 36.2443C40.1283 36.2053 40.0892 36.1663 40.0502 36.1272C40.0112 36.0882 39.9721 36.0491 39.933 36.0101C39.894 35.971 39.8549 35.9319 39.8158 35.8928C39.7767 35.8538 39.7377 35.8147 39.6986 35.7756C39.6595 35.7365 39.6203 35.6974 39.5812 35.6582C39.5421 35.6191 39.503 35.58 39.4638 35.5409C39.4247 35.5017 39.3856 35.4626 39.3464 35.4234C39.3072 35.3843 39.2681 35.3451 39.2289 35.3059C39.1897 35.2668 39.1506 35.2276 39.1114 35.1884C39.0722 35.1492 39.033 35.11 38.9938 35.0708C38.9546 35.0316 38.9154 34.9924 38.8762 34.9532C38.8369 34.914 38.7977 34.8747 38.7585 34.8355C38.7193 34.7963 38.68 34.757 38.6408 34.7178C38.6015 34.6785 38.5623 34.6393 38.523 34.6C38.4838 34.5608 38.4445 34.5215 38.4052 34.4822C38.366 34.443 38.3267 34.4037 38.2874 34.3644C38.2481 34.3251 38.2088 34.2858 38.1695 34.2465C38.1302 34.2072 38.0909 34.1679 38.0516 34.1286C38.0123 34.0893 37.973 34.05 37.9337 34.0107C37.8944 33.9714 37.8551 33.9321 37.8157 33.8927C37.7764 33.8534 37.7371 33.8141 37.6977 33.7747C37.6584 33.7354 37.6191 33.6961 37.5797 33.6567C37.5404 33.6174 37.501 33.578 37.4617 33.5387C37.4223 33.4993 37.383 33.46 37.3436 33.4206C37.3042 33.3813 37.2649 33.3419 37.2255 33.3025C37.1861 33.2632 37.1468 33.2238 37.1074 33.1844C37.068 33.145 37.0286 33.1057 36.9893 33.0663C36.9499 33.0269 36.9105 32.9875 36.8711 32.9481C36.8317 32.9087 36.7923 32.8694 36.753 32.83C36.7136 32.7906 36.6742 32.7512 36.6348 32.7118C36.5954 32.6724 36.556 32.633 36.5166 32.5936C36.4772 32.5542 36.4378 32.5148 36.3984 32.4754C36.359 32.436 36.3196 32.3966 36.2802 32.3572C36.2408 32.3178 36.2014 32.2784 36.162 32.239C36.1226 32.1996 36.0831 32.1602 36.0437 32.1208C36.0043 32.0813 35.9649 32.0419 35.9255 32.0025C35.8861 31.9631 35.8467 31.9237 35.8073 31.8843C35.7679 31.8449 35.7285 31.8055 35.6891 31.7661C35.6496 31.7267 35.6102 31.6873 35.5708 31.6478C35.5314 31.6084 35.492 31.569 35.4526 31.5296C35.4132 31.4902 35.3738 31.4508 35.3344 31.4114C35.295 31.372 35.2556 31.3326 35.2162 31.2932C35.1768 31.2538 35.1374 31.2144 35.098 31.175C35.0586 31.1356 35.0192 31.0962 34.9798 31.0568C34.9404 31.0174 34.901 30.978 34.8616 30.9386C34.8222 30.8992 34.7828 30.8598 34.7434 30.8204C34.704 30.781 34.6646 30.7417 34.6253 30.7023C34.5859 30.6629 34.5465 30.6235 34.5071 30.5841C34.4677 30.5447 34.4284 30.5054 34.389 30.466C34.3496 30.4266 34.3102 30.3873 34.2709 30.3479C34.2315 30.3085 34.1922 30.2692 34.1528 30.2298C34.1134 30.1905 34.0741 30.1511 34.0347 30.1118C33.9954 30.0724 33.956 30.0331 33.9167 29.9937C33.8774 29.9544 33.838 29.915 33.7987 29.8757C33.7594 29.8364 33.72 29.797 33.6807 29.7577C33.6414 29.7184 33.6021 29.6791 33.5628 29.6398C33.5234 29.6005 33.4841 29.5611 33.4448 29.5218C33.4055 29.4825 33.3662 29.4432 33.3269 29.404C33.2877 29.3647 33.2484 29.3254 33.2091 29.2861C33.1698 29.2468 33.1305 29.2076 33.0913 29.1683C33.052 29.129 33.0127 29.0898 32.9735 29.0505C32.9342 29.0112 32.895 28.972 32.8557 28.9328C32.8165 28.8935 32.7773 28.8543 32.738 28.8151C32.6988 28.7758 32.6596 28.7366 32.6204 28.6974C32.5812 28.6582 32.542 28.619 32.5028 28.5798C32.4636 28.5406 32.4244 28.5014 32.3852 28.4622C32.346 28.423 32.3069 28.3839 32.2677 28.3447C32.2285 28.3055 32.1894 28.2664 32.1502 28.2272C32.1111 28.1881 32.0719 28.1489 32.0328 28.1098C31.9937 28.0707 31.9545 28.0316 31.9154 27.9925C31.8763 27.9533 31.8372 27.9142 31.7981 27.8751C31.759 27.836 31.7199 27.797 31.6809 27.7579C31.6418 27.7188 31.6027 27.6797 31.5637 27.6407C31.5246 27.6016 31.4856 27.5626 31.4465 27.5236C31.4075 27.4845 31.3685 27.4455 31.3295 27.4065C31.2904 27.3675 31.2514 27.3285 31.2124 27.2895C31.1735 27.2505 31.1345 27.2115 31.0955 27.1725C31.0565 27.1335 31.0176 27.0946 30.9786 27.0556C30.9397 27.0167 30.9007 26.9777 30.8618 26.9388C30.8229 26.8999 30.784 26.861 30.7451 26.8221C30.7061 26.7832 30.6673 26.7443 30.6284 26.7054C30.5895 26.6665 30.5506 26.6276 30.5118 26.5888C30.4729 26.5499 30.4341 26.5111 30.3952 26.4723C30.3564 26.4334 30.3176 26.3946 30.2788 26.3558C30.24 26.317 30.2012 26.2782 30.1624 26.2394C30.1236 26.2007 30.0849 26.1619 30.0461 26.1231C30.0074 26.0844 29.9686 26.0457 29.9299 26.0069C29.8912 25.9682 29.8525 25.9295 29.8138 25.8908C29.7751 25.8521 29.7364 25.8134 29.6977 25.7748C29.6591 25.7361 29.6204 25.6974 29.5818 25.6588C29.5431 25.6202 29.5045 25.5815 29.4659 25.5429C29.4273 25.5043 29.3887 25.4657 29.3501 25.4271C29.3115 25.3886 29.273 25.35 29.2344 25.3114C29.1959 25.2729 29.1574 25.2344 29.1188 25.1958C29.0803 25.1573 29.0418 25.1188 29.0033 25.0803C28.9648 25.0419 28.9264 25.0034 28.8879 24.9649C28.8495 24.9265 28.811 24.888 28.7726 24.8496C28.7342 24.8112 28.6958 24.7728 28.6574 24.7344C28.619 24.696 28.5806 24.6577 28.5423 24.6193C28.5039 24.581 28.4656 24.5426 28.4273 24.5043C28.389 24.466 28.3507 24.4277 28.3124 24.3894C28.2741 24.3511 28.2358 24.3128 28.1976 24.2746C28.1593 24.2364 28.1211 24.1981 28.0829 24.1599C28.0447 24.1217 28.0065 24.0835 27.9683 24.0453C27.9301 24.0072 27.892 23.969 27.8538 23.9309C27.8157 23.8927 27.7776 23.8546 27.7395 23.8165C27.7014 23.7784 27.6633 23.7403 27.6253 23.7023C27.5872 23.6642 27.5492 23.6262 27.5111 23.5881C27.4731 23.5501 27.4351 23.5121 27.3971 23.4741C27.3591 23.4362 27.3212 23.3982 27.2832 23.3602C27.2453 23.3223 27.2074 23.2844 27.1695 23.2465C27.1316 23.2086 27.0937 23.1707 27.0558 23.1328C27.018 23.095 26.9801 23.0571 26.9423 23.0193C26.9045 22.9815 26.8667 22.9437 26.8289 22.9059C26.7911 22.8682 26.7534 22.8304 26.7156 22.7927C26.6779 22.7549 26.6402 22.7172 26.6025 22.6795C26.5648 22.6418 26.5272 22.6042 26.4895 22.5665C26.4519 22.5289 26.4142 22.4913 26.3766 22.4537C26.339 22.4161 26.3015 22.3785 26.2639 22.3409C26.2263 22.3034 26.1888 22.2658 26.1513 22.2283C26.1138 22.1908 26.0763 22.1533 26.0388 22.1159C26.0014 22.0784 25.9639 22.0409 25.9265 22.0035C25.8891 21.9661 25.8517 21.9287 25.8143 21.8913C25.777 21.854 25.7396 21.8166 25.7023 21.7793C25.665 21.742 25.6277 21.7047 25.5904 21.6674C25.5531 21.6301 25.5159 21.5929 25.4786 21.5557C25.4414 21.5184 25.4042 21.4812 25.367 21.4441C25.3299 21.4069 25.2927 21.3697 25.2556 21.3326C25.2185 21.2955 25.1814 21.2584 25.1443 21.2213C25.1072 21.1842 25.0702 21.1472 25.0331 21.1102C24.9961 21.0731 24.9591 21.0361 24.9221 20.9992C24.8852 20.9622 24.8482 20.9252 24.8113 20.8883C24.7744 20.8514 24.7375 20.8145 24.7006 20.7776C24.6638 20.7408 24.6269 20.7039 24.5901 20.6671C24.5533 20.6303 24.5165 20.5935 24.4798 20.5568C24.443 20.52 24.4063 20.4833 24.3696 20.4466C24.3328 20.4099 24.2962 20.3732 24.2595 20.3365C24.2229 20.2999 24.1862 20.2633 24.1497 20.2267C24.1131 20.1901 24.0765 20.1535 24.04 20.117C24.0034 20.0804 23.9669 20.0439 23.9304 20.0074C23.8939 19.971 23.8575 19.9345 23.8211 19.8981C23.7846 19.8617 23.7483 19.8253 23.7119 19.7889C23.6755 19.7525 23.6392 19.7162 23.6029 19.6799C23.5666 19.6436 23.5303 19.6073 23.494 19.5711C23.4578 19.5348 23.4216 19.4986 23.3854 19.4624C23.3492 19.4262 23.313 19.3901 23.2769 19.3539C23.2408 19.3178 23.2047 19.2817 23.1686 19.2456C23.1325 19.2096 23.0965 19.1735 23.0605 19.1375C23.0245 19.1015 22.9885 19.0655 22.9526 19.0296C22.9166 18.9936 22.8807 18.9577 22.8448 18.9218C22.8089 18.886 22.7731 18.8501 22.7373 18.8143C22.7015 18.7785 22.6657 18.7427 22.6299 18.7069C22.5942 18.6712 22.5584 18.6354 22.5227 18.5997C22.487 18.5641 22.4514 18.5284 22.4158 18.4928C22.3801 18.4571 22.3445 18.4215 22.309 18.386C22.2734 18.3504 22.2379 18.3149 22.2024 18.2794C22.1669 18.2439 22.1314 18.2084 22.096 18.173C22.0605 18.1376 22.0252 18.1022 21.9898 18.0668C21.9544 18.0314 21.9191 17.9961 21.8838 17.9608C21.8485 17.9255 21.8132 17.8902 21.778 17.855C21.7428 17.8198 21.7076 17.7846 21.6724 17.7494C21.6373 17.7143 21.6021 17.6791 21.567 17.6441C21.5319 17.609 21.4969 17.5739 21.4619 17.5389C21.4268 17.5039 21.3919 17.4689 21.3569 17.4339C21.322 17.399 21.287 17.3641 21.2522 17.3292C21.2173 17.2943 21.1824 17.2594 21.1476 17.2246C21.1128 17.1898 21.078 17.155 21.0433 17.1203C21.0086 17.0856 20.9739 17.0509 20.9392 17.0162C20.9045 16.9815 20.8699 16.9469 20.8353 16.9123C20.8007 16.8777 20.7661 16.8432 20.7316 16.8086C20.6971 16.7741 20.6626 16.7396 20.6282 16.7052C20.5937 16.6707 20.5593 16.6363 20.525 16.602C20.4906 16.5676 20.4562 16.5333 20.422 16.499C20.3877 16.4647 20.3534 16.4304 20.3192 16.3962C20.285 16.362 20.2508 16.3278 20.2166 16.2936C20.1825 16.2595 20.1484 16.2254 20.1143 16.1913C20.0802 16.1573 20.0462 16.1232 20.0122 16.0892C19.9782 16.0552 19.9443 16.0213 19.9104 15.9874C19.8765 15.9535 19.8426 15.9196 19.8087 15.8858C19.7749 15.8519 19.7411 15.8181 19.7074 15.7844C19.6736 15.7506 19.6399 15.7169 19.6062 15.6832C19.5725 15.6496 19.5389 15.6159 19.5053 15.5823C19.4717 15.5487 19.4382 15.5152 19.4046 15.4817C19.3711 15.4481 19.3377 15.4147 19.3042 15.3812C19.2708 15.3478 19.2374 15.3144 19.204 15.2811C19.1707 15.2477 19.1374 15.2144 19.1041 15.1811C19.0708 15.1479 19.0376 15.1146 19.0044 15.0814C18.9712 15.0483 18.9381 15.0151 18.905 14.982C18.8719 14.9489 18.8388 14.9158 18.8058 14.8828C18.7728 14.8498 18.7398 14.8168 18.7069 14.7839C18.6739 14.751 18.641 14.7181 18.6082 14.6852C18.5753 14.6524 18.5425 14.6196 18.5098 14.5868C18.477 14.554 18.4443 14.5213 18.4116 14.4886C18.3789 14.4559 18.3463 14.4233 18.3137 14.3907C18.2811 14.3581 18.2486 14.3256 18.2161 14.2931C18.1836 14.2606 18.1511 14.2281 18.1187 14.1957C18.0863 14.1633 18.0539 14.1309 18.0216 14.0986C17.9892 14.0663 17.957 14.034 17.9247 14.0017C17.8925 13.9695 17.8603 13.9373 17.8281 13.9052C17.796 13.873 17.7639 13.8409 17.7318 13.8088C17.6998 13.7768 17.6678 13.7448 17.6358 13.7128C17.6038 13.6808 17.5719 13.6489 17.54 13.617C17.5081 13.5852 17.4763 13.5533 17.4445 13.5215C17.4127 13.4898 17.381 13.458 17.3493 13.4263C17.3176 13.3946 17.286 13.363 17.2544 13.3314C17.2228 13.2998 17.1912 13.2682 17.1597 13.2367C17.1282 13.2052 17.0967 13.1738 17.0653 13.1423C17.0339 13.1109 17.0025 13.0796 16.9712 13.0482C16.9399 13.0169 16.9086 12.9857 16.8774 12.9544C16.8462 12.9232 16.815 12.892 16.7839 12.8609C16.7528 12.8298 16.7217 12.7987 16.6907 12.7677C16.6596 12.7366 16.6286 12.7057 16.5977 12.6747C16.5668 12.6438 16.5359 12.6129 16.505 12.5821C16.4742 12.5512 16.4434 12.5204 16.4127 12.4897C16.3819 12.459 16.3513 12.4283 16.3206 12.3976C16.29 12.367 16.2594 12.3364 16.2288 12.3059C16.1983 12.2753 16.1678 12.2448 16.1374 12.2144C16.1069 12.1839 16.0765 12.1535 16.0462 12.1232C16.0158 12.0929 15.9856 12.0626 15.9553 12.0323C15.9251 12.0021 15.8949 11.9719 15.8647 11.9418C15.8346 11.9116 15.8045 11.8815 15.7745 11.8515C15.7444 11.8214 15.7144 11.7915 15.6845 11.7615C15.6546 11.7316 15.6247 11.7017 15.5948 11.6719C15.565 11.642 15.5352 11.6122 15.5055 11.5825C15.4758 11.5528 15.4461 11.5231 15.4165 11.4935C15.3868 11.4639 15.3573 11.4343 15.3277 11.4048C15.2982 11.3752 15.2688 11.3458 15.2393 11.3164C15.2099 11.2869 15.1806 11.2576 15.1512 11.2283C15.1219 11.199 15.0927 11.1697 15.0635 11.1405C15.0343 11.1113 15.0051 11.0821 14.976 11.053C14.9469 11.0239 14.9179 10.9949 14.8889 10.9659C14.8599 10.9369 14.831 10.908 14.8021 10.8791C14.7732 10.8502 14.7444 10.8214 14.7156 10.7926C14.6868 10.7638 14.6581 10.7351 14.6294 10.7064C14.6008 10.6778 14.5722 10.6492 14.5436 10.6206C14.515 10.5921 14.4865 10.5636 14.4581 10.5351C14.4297 10.5067 14.4013 10.4783 14.3729 10.4499C14.3446 10.4216 14.3163 10.3933 14.2881 10.3651C14.2599 10.3369 14.2317 10.3087 14.2036 10.2806C14.1755 10.2525 14.1474 10.2244 14.1194 10.1964C14.0914 10.1684 14.0635 10.1405 14.0356 10.1126C14.0077 10.0847 13.9799 10.0569 13.9521 10.0291C13.9243 10.0013 13.8966 9.97362 13.8689 9.94596C13.8413 9.91831 13.8137 9.8907 13.7861 9.86316C13.7586 9.83561 13.7311 9.80813 13.7037 9.7807C13.6763 9.75327 13.6489 9.72589 13.6216 9.69858C13.5943 9.67127 13.567 9.64401 13.5398 9.61681C13.5126 9.58961 13.4855 9.56247 13.4584 9.53539C13.4313 9.50831 13.4043 9.48129 13.3773 9.45432C13.3503 9.42736 13.3234 9.40045 13.2966 9.37361C13.2697 9.34676 13.243 9.31998 13.2162 9.29325C13.1895 9.26652 13.1628 9.23985 13.1362 9.21324C13.1096 9.18663 13.0831 9.16009 13.0566 9.1336C13.0301 9.10711 13.0037 9.08068 12.9773 9.05431C12.9509 9.02794 12.9246 9.00163 12.8984 8.97538C12.8721 8.94913 12.8459 8.92295 12.8198 8.89682C12.7937 8.87069 12.7676 8.84463 12.7416 8.81862C12.7156 8.79261 12.6897 8.76667 12.6638 8.74079C12.6379 8.7149 12.6121 8.68908 12.5863 8.66332C12.5605 8.63756 12.5348 8.61186 12.5092 8.58623C12.4836 8.56059 12.458 8.53501 12.4325 8.5095C12.407 8.48399 12.3815 8.45854 12.3561 8.43315C12.3307 8.40776 12.3054 8.38243 12.2802 8.35717C12.2549 8.33191 12.2297 8.30671 12.2046 8.28157C12.1794 8.25643 12.1543 8.23136 12.1293 8.20635C12.1043 8.18134 12.0794 8.15639 12.0545 8.1315C12.0296 8.10662 12.0048 8.0818 11.98 8.05704C11.9553 8.03228 11.9306 8.00759 11.9059 7.98296C11.8813 7.95833 11.8567 7.93376 11.8322 7.90926C11.8077 7.88476 11.7833 7.86032 11.7589 7.83595C11.7346 7.81158 11.7103 7.78727 11.686 7.76303C11.6618 7.73879 11.6376 7.71461 11.6135 7.6905C11.5894 7.66639 11.5653 7.64234 11.5413 7.61836C11.5174 7.59437 11.4934 7.57046 11.4696 7.54661C11.4457 7.52276 11.422 7.49897 11.3982 7.47525C11.3745 7.45153 11.3509 7.42788 11.3273 7.40429C11.3037 7.38071 11.2802 7.35719 11.2567 7.33373C11.2333 7.31028 11.2099 7.28689 11.1866 7.26357C11.1632 7.24025 11.14 7.217 11.1168 7.19381C11.0936 7.17063 11.0705 7.14751 11.0474 7.12446C11.0244 7.1014 11.0014 7.07842 10.9785 7.0555C10.9556 7.03259 10.9327 7.00974 10.9099 6.98696C10.8872 6.96418 10.8644 6.94146 10.8418 6.91882C10.8192 6.89617 10.7966 6.8736 10.7741 6.85109C10.7516 6.82858 10.7291 6.80614 10.7068 6.78377C10.6844 6.7614 10.6621 6.7391 10.6398 6.71686C10.6176 6.69463 10.5955 6.67247 10.5734 6.65037C10.5513 6.62828 10.5292 6.60625 10.5073 6.5843C10.4853 6.56234 10.4634 6.54046 10.4416 6.51864C10.4198 6.49682 10.3981 6.47508 10.3764 6.4534C10.3547 6.43173 10.3331 6.41012 10.3116 6.38859C10.29 6.36705 10.2686 6.34558 10.2472 6.32419C10.2258 6.3028 10.2045 6.28147 10.1832 6.26022C10.162 6.23897 10.1408 6.21779 10.1197 6.19668C10.0986 6.17557 10.0775 6.15453 10.0565 6.13356C10.0356 6.11259 10.0147 6.0917 9.99386 6.07088C9.97304 6.05005 9.95228 6.0293 9.93161 6.00862C9.91093 5.98794 9.89032 5.96733 9.86978 5.9468C9.84925 5.92626 9.82878 5.9058 9.80839 5.88541C9.788 5.86502 9.76769 5.8447 9.74744 5.82446C9.7272 5.80421 9.70703 5.78404 9.68693 5.76394C9.66683 5.74385 9.6468 5.72382 9.62685 5.70387C9.6069 5.68392 9.58702 5.66404 9.56722 5.64423C9.54742 5.62443 9.52769 5.6047 9.50803 5.58504C9.48837 5.56539 9.46879 5.5458 9.44928 5.5263C9.42977 5.50679 9.41034 5.48736 9.39098 5.468C9.37162 5.44864 9.35234 5.42935 9.33313 5.41014C9.31392 5.39093 9.29478 5.3718 9.27573 5.35274C9.25667 5.33368 9.23768 5.3147 9.21877 5.29579C9.19986 5.27688 9.18103 5.25805 9.16227 5.23929C9.14352 5.22053 9.12483 5.20185 9.10623 5.18324C9.08762 5.16464 9.06909 5.14611 9.05064 5.12765C9.03219 5.1092 9.01381 5.09082 8.99551 5.07252C8.97721 5.05422 8.95898 5.036 8.94084 5.01785C8.92269 4.9997 8.90462 4.98163 8.88663 4.96364C8.86863 4.94565 8.85072 4.92773 8.83288 4.90989C8.81504 4.89205 8.79728 4.87429 8.77959 4.85661C8.76191 4.83893 8.74431 4.82132 8.72678 4.80379C8.70925 4.78626 8.6918 4.76881 8.67443 4.75144C8.65706 4.73407 8.63976 4.71678 8.62255 4.69956C8.60533 4.68235 8.5882 4.66521 8.57114 4.64815C8.55408 4.6311 8.5371 4.61412 8.5202 4.59722C8.5033 4.58032 8.48648 4.5635 8.46974 4.54675C8.453 4.53001 8.43634 4.51335 8.41975 4.49677C8.40317 4.48019 8.38667 4.46368 8.37025 4.44726C8.35382 4.43084 8.33748 4.41449 8.32122 4.39823C8.30495 4.38197 8.28877 4.36579 8.27267 4.34968C8.25657 4.33358 8.24055 4.31756 8.2246 4.30162C8.20866 4.28568 8.1928 4.26982 8.17702 4.25404C8.16124 4.23826 8.14555 4.22256 8.12993 4.20694C8.11431 4.19133 8.09878 4.17579 8.08332 4.16034C8.06787 4.14488 8.0525 4.12951 8.03721 4.11422C8.02192 4.09893 8.00671 4.08372 7.99158 4.06859C7.97645 4.05347 7.96141 4.03842 7.94645 4.02346C7.93148 4.0085 7.9166 3.99362 7.90181 3.97882C7.88701 3.96403 7.8723 3.94931 7.85766 3.93468C7.84303 3.92005 7.82848 3.9055 7.81402 3.89103C7.79955 3.87657 7.78517 3.86219 7.77087 3.84789C7.75658 3.83359 7.74236 3.81938 7.72823 3.80524C7.7141 3.79111 7.70005 3.77707 7.68609 3.7631C7.67212 3.74914 7.65825 3.73526 7.64445 3.72147C7.63066 3.70767 7.61694 3.69396 7.60332 3.68033C7.58969 3.66671 7.57615 3.65317 7.5627 3.63971C7.54924 3.62625 7.53587 3.61288 7.52258 3.5996C7.50929 3.58631 7.49609 3.57311 7.48298 3.55999C7.46986 3.54688 7.45683 3.53385 7.44389 3.5209C7.43094 3.50796 7.41808 3.4951 7.40531 3.48233C7.39254 3.46955 7.37985 3.45687 7.36725 3.44427C7.35465 3.43167 7.34214 3.41915 7.32971 3.40672C7.31728 3.3943 7.30494 3.38196 7.29269 3.3697C7.28043 3.35745 7.26827 3.34528 7.25619 3.3332C7.24411 3.32112 7.23211 3.30913 7.22021 3.29722C7.2083 3.28532 7.19648 3.2735 7.18475 3.26177C7.17302 3.25004 7.16138 3.23839 7.14982 3.22684C7.13827 3.21528 7.1268 3.20382 7.11542 3.19244C7.10404 3.18106 7.09275 3.16977 7.08155 3.15857C7.07035 3.14737 7.05924 3.13625 7.04821 3.12523C7.03719 3.1142 7.02625 3.10327 7.01541 3.09242C7.00456 3.08157 6.9938 3.07082 6.98313 3.06015C6.97246 3.04948 6.96188 3.0389 6.9514 3.02841C6.94091 3.01792 6.93051 3.00752 6.9202 2.99721C6.90989 2.9869 6.89967 2.97668 6.88954 2.96655C6.87941 2.95642 6.86937 2.94638 6.85942 2.93643C6.84947 2.92648 6.83961 2.91663 6.82984 2.90686C6.82007 2.89709 6.8104 2.88741 6.80081 2.87783C6.79122 2.86824 6.78173 2.85874 6.77233 2.84934C6.76292 2.83994 6.75361 2.83062 6.74439 2.8214C6.73517 2.81218 6.72604 2.80305 6.717 2.79401C6.70796 2.78498 6.69902 2.77603 6.69016 2.76718C6.68131 2.75832 6.67255 2.74956 6.66388 2.74089C6.65521 2.73222 6.64663 2.72365 6.63815 2.71516C6.62966 2.70668 6.62127 2.69829 6.61297 2.68999C6.60468 2.68169 6.59647 2.67349 6.58836 2.66537C6.58025 2.65726 6.57223 2.64924 6.5643 2.64132C6.55638 2.63339 6.54854 2.62556 6.54081 2.61782C6.53307 2.61008 6.52542 2.60244 6.51787 2.59489C6.51032 2.58734 6.50287 2.57988 6.4955 2.57252C6.48814 2.56516 6.48088 2.55789 6.4737 2.55072C6.46653 2.54354 6.45945 2.53647 6.45247 2.52948C6.44548 2.5225 6.4386 2.51561 6.4318 2.50882C6.42501 2.50202 6.41831 2.49533 6.41171 2.48872C6.40511 2.48212 6.3986 2.47561 6.39219 2.4692C6.38578 2.46279 6.37946 2.45648 6.37324 2.45026C6.36702 2.44404 6.3609 2.43791 6.35487 2.43188C6.34884 2.42586 6.34291 2.41993 6.33708 2.41409C6.33124 2.40826 6.3255 2.40252 6.31986 2.39688C6.31422 2.39124 6.30868 2.38569 6.30323 2.38024C6.29778 2.3748 6.29243 2.36945 6.28718 2.3642C6.28193 2.35894 6.27677 2.35379 6.27171 2.34873C6.26666 2.34367 6.2617 2.33871 6.25684 2.33385C6.25197 2.32899 6.24721 2.32422 6.24254 2.31956C6.23788 2.31489 6.23331 2.31033 6.22884 2.30586C6.22437 2.30139 6.22 2.29702 6.21573 2.29274C6.21146 2.28847 6.20729 2.2843 6.20321 2.28023C6.19914 2.27615 6.19516 2.27218 6.19129 2.2683C6.18741 2.26443 6.18364 2.26065 6.17996 2.25697C6.17628 2.2533 6.17271 2.24972 6.16923 2.24624C6.16575 2.24277 6.16238 2.23939 6.1591 2.23611C6.15582 2.23284 6.15265 2.22966 6.14957 2.22658C6.14649 2.22351 6.14352 2.22053 6.14064 2.21766C6.13777 2.21478 6.13499 2.21201 6.13232 2.20933C6.12965 2.20666 6.12707 2.20409 6.1246 2.20162C6.12213 2.19915 6.11976 2.19678 6.11749 2.19451C6.11523 2.19224 6.11306 2.19007 6.11099 2.18801C6.10893 2.18595 6.10697 2.18398 6.10511 2.18212C6.10325 2.18026 6.10149 2.1785 6.09983 2.17685C6.09817 2.17519 6.09662 2.17364 6.09517 2.17218C6.09372 2.17073 6.09237 2.16939 6.09112 2.16814C6.08988 2.16689 6.08874 2.16575 6.0877 2.16471C6.08666 2.16367 6.08572 2.16274 6.08489 2.1619C6.08406 2.16107 6.08333 2.16034 6.0827 2.15972C6.08208 2.15909 6.08156 2.15857 6.08114 2.15815C6.08072 2.15774 6.08041 2.15742 6.0802 2.15721C6.07999 2.15701 6.07989 2.1569 4.31212 3.92467Z" fill="#FF7C7C"/>
<path d="M2.54435 47.1569C1.56804 48.1332 1.56804 49.7161 2.54435 50.6924C3.52066 51.6687 5.10357 51.6687 6.07989 50.6924L2.54435 47.1569ZM51.0799 5.69244C52.0562 4.71612 52.0562 3.13321 51.0799 2.1569C50.1036 1.18059 48.5207 1.18059 47.5444 2.1569L51.0799 5.69244ZM4.31212 48.9247C6.07989 50.6924 6.07999 50.6923 6.0802 50.6921C6.08041 50.6919 6.08072 50.6916 6.08114 50.6912C6.08156 50.6908 6.08208 50.6902 6.0827 50.6896C6.08333 50.689 6.08406 50.6883 6.08489 50.6874C6.08572 50.6866 6.08666 50.6857 6.0877 50.6846C6.08874 50.6836 6.08988 50.6824 6.09112 50.6812C6.09237 50.6799 6.09372 50.6786 6.09517 50.6771C6.09662 50.6757 6.09817 50.6741 6.09983 50.6725C6.10149 50.6708 6.10325 50.6691 6.10511 50.6672C6.10697 50.6654 6.10893 50.6634 6.11099 50.6613C6.11306 50.6593 6.11523 50.6571 6.11749 50.6548C6.11976 50.6526 6.12213 50.6502 6.1246 50.6477C6.12707 50.6452 6.12965 50.6427 6.13232 50.64C6.13499 50.6373 6.13777 50.6346 6.14064 50.6317C6.14352 50.6288 6.14649 50.6258 6.14957 50.6228C6.15265 50.6197 6.15582 50.6165 6.1591 50.6132C6.16238 50.6099 6.16575 50.6066 6.16923 50.6031C6.17271 50.5996 6.17628 50.596 6.17996 50.5924C6.18364 50.5887 6.18741 50.5849 6.19129 50.581C6.19516 50.5772 6.19914 50.5732 6.20321 50.5691C6.20729 50.565 6.21146 50.5609 6.21573 50.5566C6.22 50.5523 6.22437 50.5479 6.22884 50.5435C6.23331 50.539 6.23788 50.5344 6.24254 50.5298C6.24721 50.5251 6.25197 50.5203 6.25684 50.5155C6.2617 50.5106 6.26666 50.5057 6.27171 50.5006C6.27677 50.4955 6.28193 50.4904 6.28718 50.4851C6.29243 50.4799 6.29778 50.4745 6.30323 50.4691C6.30868 50.4636 6.31422 50.4581 6.31986 50.4525C6.3255 50.4468 6.33124 50.4411 6.33708 50.4352C6.34291 50.4294 6.34884 50.4235 6.35487 50.4175C6.3609 50.4114 6.36702 50.4053 6.37324 50.3991C6.37946 50.3929 6.38578 50.3865 6.39219 50.3801C6.3986 50.3737 6.40511 50.3672 6.41171 50.3606C6.41831 50.354 6.42501 50.3473 6.4318 50.3405C6.4386 50.3337 6.44548 50.3268 6.45247 50.3199C6.45945 50.3129 6.46653 50.3058 6.4737 50.2986C6.48088 50.2914 6.48814 50.2842 6.4955 50.2768C6.50287 50.2695 6.51032 50.262 6.51787 50.2544C6.52542 50.2469 6.53307 50.2393 6.54081 50.2315C6.54854 50.2238 6.55638 50.2159 6.5643 50.208C6.57223 50.2001 6.58025 50.1921 6.58836 50.184C6.59647 50.1758 6.60468 50.1676 6.61297 50.1593C6.62127 50.151 6.62966 50.1427 6.63815 50.1342C6.64663 50.1257 6.65521 50.1171 6.66388 50.1084C6.67255 50.0998 6.68131 50.091 6.69016 50.0822C6.69902 50.0733 6.70796 50.0644 6.717 50.0553C6.72604 50.0463 6.73517 50.0372 6.74439 50.0279C6.75361 50.0187 6.76292 50.0094 6.77233 50C6.78173 49.9906 6.79122 49.9811 6.80081 49.9715C6.8104 49.9619 6.82007 49.9522 6.82984 49.9425C6.83961 49.9327 6.84947 49.9229 6.85942 49.9129C6.86937 49.903 6.87941 49.8929 6.88954 49.8828C6.89967 49.8727 6.90989 49.8624 6.9202 49.8521C6.93051 49.8418 6.94091 49.8314 6.9514 49.8209C6.96188 49.8104 6.97246 49.7999 6.98313 49.7892C6.9938 49.7785 7.00456 49.7678 7.01541 49.7569C7.02625 49.7461 7.03719 49.7351 7.04821 49.7241C7.05924 49.7131 7.07035 49.702 7.08155 49.6908C7.09275 49.6796 7.10404 49.6683 7.11542 49.6569C7.1268 49.6455 7.13827 49.6341 7.14982 49.6225C7.16138 49.6109 7.17302 49.5993 7.18475 49.5876C7.19648 49.5758 7.2083 49.564 7.22021 49.5521C7.23211 49.5402 7.24411 49.5282 7.25619 49.5161C7.26827 49.5041 7.28043 49.4919 7.29269 49.4796C7.30494 49.4674 7.31728 49.455 7.32971 49.4426C7.34214 49.4302 7.35465 49.4177 7.36725 49.4051C7.37985 49.3925 7.39254 49.3798 7.40531 49.367C7.41808 49.3542 7.43094 49.3414 7.44389 49.3284C7.45683 49.3155 7.46986 49.3025 7.48298 49.2893C7.49609 49.2762 7.50929 49.263 7.52258 49.2497C7.53587 49.2365 7.54924 49.2231 7.5627 49.2096C7.57615 49.1962 7.58969 49.1826 7.60332 49.169C7.61694 49.1554 7.63066 49.1417 7.64445 49.1279C7.65825 49.1141 7.67212 49.1002 7.68609 49.0862C7.70005 49.0723 7.7141 49.0582 7.72823 49.0441C7.74236 49.03 7.75658 49.0157 7.77087 49.0014C7.78517 48.9871 7.79955 48.9728 7.81402 48.9583C7.82848 48.9438 7.84303 48.9293 7.85766 48.9147C7.8723 48.9 7.88701 48.8853 7.90181 48.8705C7.9166 48.8557 7.93148 48.8408 7.94645 48.8259C7.96141 48.8109 7.97645 48.7959 7.99158 48.7807C8.00671 48.7656 8.02192 48.7504 8.03721 48.7351C8.0525 48.7198 8.06787 48.7045 8.08332 48.689C8.09878 48.6735 8.11431 48.658 8.12993 48.6424C8.14555 48.6268 8.16124 48.6111 8.17702 48.5953C8.1928 48.5795 8.20866 48.5637 8.2246 48.5477C8.24055 48.5318 8.25657 48.5158 8.27267 48.4997C8.28877 48.4835 8.30495 48.4674 8.32122 48.4511C8.33748 48.4348 8.35382 48.4185 8.37025 48.4021C8.38667 48.3857 8.40317 48.3691 8.41975 48.3526C8.43634 48.336 8.453 48.3193 8.46974 48.3026C8.48648 48.2858 8.5033 48.269 8.5202 48.2521C8.5371 48.2352 8.55408 48.2182 8.57114 48.2012C8.5882 48.1841 8.60533 48.167 8.62255 48.1498C8.63976 48.1326 8.65706 48.1153 8.67443 48.0979C8.6918 48.0805 8.70925 48.0631 8.72678 48.0455C8.74431 48.028 8.76191 48.0104 8.77959 47.9927C8.79728 47.975 8.81504 47.9573 8.83288 47.9394C8.85072 47.9216 8.86863 47.9037 8.88663 47.8857C8.90462 47.8677 8.92269 47.8496 8.94084 47.8315C8.95898 47.8133 8.97721 47.7951 8.99551 47.7768C9.01381 47.7585 9.03219 47.7401 9.05064 47.7217C9.06909 47.7032 9.08762 47.6847 9.10623 47.6661C9.12483 47.6475 9.14352 47.6288 9.16227 47.61C9.18103 47.5913 9.19986 47.5725 9.21877 47.5535C9.23768 47.5346 9.25667 47.5157 9.27573 47.4966C9.29478 47.4775 9.31392 47.4584 9.33313 47.4392C9.35234 47.42 9.37162 47.4007 9.39098 47.3813C9.41034 47.362 9.42977 47.3425 9.44928 47.323C9.46879 47.3035 9.48837 47.2839 9.50803 47.2643C9.52769 47.2446 9.54742 47.2249 9.56722 47.2051C9.58702 47.1853 9.6069 47.1654 9.62685 47.1455C9.6468 47.1255 9.66683 47.1055 9.68693 47.0854C9.70703 47.0653 9.7272 47.0451 9.74744 47.0249C9.76769 47.0046 9.788 46.9843 9.80839 46.9639C9.82878 46.9435 9.84925 46.9231 9.86978 46.9025C9.89032 46.882 9.91093 46.8614 9.93161 46.8407C9.95228 46.82 9.97304 46.7993 9.99386 46.7785C10.0147 46.7576 10.0356 46.7367 10.0565 46.7158C10.0775 46.6948 10.0986 46.6738 10.1197 46.6527C10.1408 46.6315 10.162 46.6104 10.1832 46.5891C10.2045 46.5679 10.2258 46.5465 10.2472 46.5251C10.2686 46.5037 10.29 46.4823 10.3116 46.4607C10.3331 46.4392 10.3547 46.4176 10.3764 46.3959C10.3981 46.3743 10.4198 46.3525 10.4416 46.3307C10.4634 46.3089 10.4853 46.287 10.5073 46.265C10.5292 46.2431 10.5513 46.2211 10.5734 46.199C10.5955 46.1769 10.6176 46.1547 10.6398 46.1325C10.6621 46.1102 10.6844 46.0879 10.7068 46.0656C10.7291 46.0432 10.7516 46.0208 10.7741 45.9982C10.7966 45.9757 10.8192 45.9532 10.8418 45.9305C10.8644 45.9079 10.8872 45.8852 10.9099 45.8624C10.9327 45.8396 10.9556 45.8167 10.9785 45.7938C11.0014 45.7709 11.0244 45.7479 11.0474 45.7249C11.0705 45.7018 11.0936 45.6787 11.1168 45.6555C11.14 45.6323 11.1632 45.6091 11.1866 45.5858C11.2099 45.5624 11.2333 45.5391 11.2567 45.5156C11.2802 45.4921 11.3037 45.4686 11.3273 45.445C11.3509 45.4215 11.3745 45.3978 11.3982 45.3741C11.422 45.3504 11.4457 45.3266 11.4696 45.3027C11.4934 45.2789 11.5174 45.255 11.5413 45.231C11.5653 45.207 11.5894 45.1829 11.6135 45.1588C11.6376 45.1347 11.6618 45.1105 11.686 45.0863C11.7103 45.0621 11.7346 45.0378 11.7589 45.0134C11.7833 44.989 11.8077 44.9646 11.8322 44.9401C11.8567 44.9156 11.8813 44.891 11.9059 44.8664C11.9306 44.8417 11.9553 44.8171 11.98 44.7923C12.0048 44.7675 12.0296 44.7427 12.0545 44.7178C12.0794 44.6929 12.1043 44.668 12.1293 44.643C12.1543 44.618 12.1794 44.5929 12.2046 44.5678C12.2297 44.5426 12.2549 44.5174 12.2802 44.4922C12.3054 44.4669 12.3307 44.4416 12.3561 44.4162C12.3815 44.3908 12.407 44.3653 12.4325 44.3398C12.458 44.3143 12.4836 44.2887 12.5092 44.2631C12.5348 44.2375 12.5605 44.2118 12.5863 44.186C12.6121 44.1603 12.6379 44.1344 12.6638 44.1085C12.6897 44.0827 12.7156 44.0567 12.7416 44.0307C12.7676 44.0047 12.7937 43.9786 12.8198 43.9525C12.8459 43.9264 12.8721 43.9002 12.8984 43.874C12.9246 43.8477 12.9509 43.8214 12.9773 43.795C13.0037 43.7687 13.0301 43.7422 13.0566 43.7157C13.0831 43.6892 13.1096 43.6627 13.1362 43.6361C13.1628 43.6095 13.1895 43.5828 13.2162 43.5561C13.243 43.5294 13.2697 43.5026 13.2966 43.4757C13.3234 43.4489 13.3503 43.422 13.3773 43.395C13.4043 43.368 13.4313 43.341 13.4584 43.3139C13.4855 43.2869 13.5126 43.2597 13.5398 43.2325C13.567 43.2053 13.5943 43.1781 13.6216 43.1508C13.6489 43.1234 13.6763 43.0961 13.7037 43.0686C13.7311 43.0412 13.7586 43.0137 13.7861 42.9862C13.8137 42.9586 13.8413 42.931 13.8689 42.9034C13.8966 42.8757 13.9243 42.848 13.9521 42.8202C13.9799 42.7924 14.0077 42.7646 14.0356 42.7367C14.0635 42.7088 14.0914 42.6809 14.1194 42.6529C14.1474 42.6249 14.1755 42.5968 14.2036 42.5687C14.2317 42.5406 14.2599 42.5125 14.2881 42.4842C14.3163 42.456 14.3446 42.4277 14.3729 42.3994C14.4013 42.3711 14.4297 42.3427 14.4581 42.3142C14.4865 42.2858 14.515 42.2573 14.5436 42.2287C14.5722 42.2002 14.6008 42.1716 14.6294 42.1429C14.6581 42.1142 14.6868 42.0855 14.7156 42.0567C14.7444 42.028 14.7732 41.9991 14.8021 41.9702C14.831 41.9414 14.8599 41.9124 14.8889 41.8834C14.9179 41.8544 14.9469 41.8254 14.976 41.7963C15.0051 41.7672 15.0343 41.738 15.0635 41.7088C15.0927 41.6796 15.1219 41.6504 15.1512 41.6211C15.1806 41.5918 15.2099 41.5624 15.2393 41.533C15.2688 41.5036 15.2982 41.4741 15.3277 41.4446C15.3573 41.415 15.3868 41.3855 15.4165 41.3559C15.4461 41.3262 15.4758 41.2965 15.5055 41.2668C15.5352 41.2371 15.565 41.2073 15.5948 41.1775C15.6247 41.1476 15.6546 41.1178 15.6845 41.0878C15.7144 41.0579 15.7444 41.0279 15.7745 40.9979C15.8045 40.9678 15.8346 40.9377 15.8647 40.9076C15.8949 40.8774 15.9251 40.8473 15.9553 40.817C15.9856 40.7868 16.0158 40.7565 16.0462 40.7261C16.0765 40.6958 16.1069 40.6654 16.1374 40.635C16.1678 40.6045 16.1983 40.574 16.2288 40.5435C16.2594 40.5129 16.29 40.4823 16.3206 40.4517C16.3513 40.4211 16.3819 40.3904 16.4127 40.3596C16.4434 40.3289 16.4742 40.2981 16.505 40.2673C16.5359 40.2364 16.5668 40.2055 16.5977 40.1746C16.6286 40.1437 16.6596 40.1127 16.6907 40.0817C16.7217 40.0506 16.7528 40.0196 16.7839 39.9884C16.815 39.9573 16.8462 39.9261 16.8774 39.8949C16.9086 39.8637 16.9399 39.8324 16.9712 39.8011C17.0025 39.7698 17.0339 39.7384 17.0653 39.707C17.0967 39.6756 17.1282 39.6441 17.1597 39.6126C17.1912 39.5811 17.2228 39.5496 17.2544 39.518C17.286 39.4864 17.3176 39.4547 17.3493 39.423C17.381 39.3913 17.4127 39.3596 17.4445 39.3278C17.4763 39.296 17.5081 39.2642 17.54 39.2323C17.5719 39.2004 17.6038 39.1685 17.6358 39.1365C17.6678 39.1046 17.6998 39.0726 17.7318 39.0405C17.7639 39.0084 17.796 38.9763 17.8281 38.9442C17.8603 38.912 17.8925 38.8798 17.9247 38.8476C17.957 38.8154 17.9892 38.7831 18.0216 38.7508C18.0539 38.7184 18.0863 38.6861 18.1187 38.6536C18.1511 38.6212 18.1836 38.5888 18.2161 38.5563C18.2486 38.5238 18.2811 38.4912 18.3137 38.4586C18.3463 38.426 18.3789 38.3934 18.4116 38.3607C18.4443 38.328 18.477 38.2953 18.5098 38.2625C18.5425 38.2298 18.5753 38.197 18.6082 38.1641C18.641 38.1313 18.6739 38.0984 18.7069 38.0654C18.7398 38.0325 18.7728 37.9995 18.8058 37.9665C18.8388 37.9335 18.8719 37.9004 18.905 37.8673C18.9381 37.8342 18.9712 37.8011 19.0044 37.7679C19.0376 37.7347 19.0708 37.7015 19.1041 37.6682C19.1374 37.6349 19.1707 37.6016 19.204 37.5683C19.2374 37.5349 19.2708 37.5015 19.3042 37.4681C19.3377 37.4347 19.3711 37.4012 19.4046 37.3677C19.4382 37.3342 19.4717 37.3006 19.5053 37.267C19.5389 37.2334 19.5725 37.1998 19.6062 37.1661C19.6399 37.1324 19.6736 37.0987 19.7074 37.065C19.7411 37.0312 19.7749 36.9974 19.8087 36.9636C19.8426 36.9297 19.8765 36.8959 19.9104 36.862C19.9443 36.828 19.9782 36.7941 20.0122 36.7601C20.0462 36.7261 20.0802 36.6921 20.1143 36.658C20.1484 36.6239 20.1825 36.5898 20.2166 36.5557C20.2508 36.5215 20.285 36.4874 20.3192 36.4531C20.3534 36.4189 20.3877 36.3847 20.422 36.3504C20.4562 36.3161 20.4906 36.2817 20.525 36.2474C20.5593 36.213 20.5937 36.1786 20.6282 36.1441C20.6626 36.1097 20.6971 36.0752 20.7316 36.0407C20.7661 36.0062 20.8007 35.9716 20.8353 35.937C20.8699 35.9024 20.9045 35.8678 20.9392 35.8331C20.9739 35.7985 21.0086 35.7638 21.0433 35.729C21.078 35.6943 21.1128 35.6595 21.1476 35.6247C21.1824 35.5899 21.2173 35.555 21.2522 35.5202C21.287 35.4853 21.322 35.4504 21.3569 35.4154C21.3919 35.3805 21.4268 35.3455 21.4619 35.3105C21.4969 35.2754 21.5319 35.2404 21.567 35.2053C21.6021 35.1702 21.6373 35.1351 21.6724 35.0999C21.7076 35.0647 21.7428 35.0295 21.778 34.9943C21.8132 34.9591 21.8485 34.9238 21.8838 34.8885C21.9191 34.8532 21.9544 34.8179 21.9898 34.7825C22.0252 34.7472 22.0605 34.7118 22.096 34.6763C22.1314 34.6409 22.1669 34.6054 22.2024 34.5699C22.2379 34.5344 22.2734 34.4989 22.309 34.4634C22.3445 34.4278 22.3801 34.3922 22.4158 34.3566C22.4514 34.3209 22.487 34.2853 22.5227 34.2496C22.5584 34.2139 22.5942 34.1782 22.6299 34.1424C22.6657 34.1067 22.7015 34.0709 22.7373 34.035C22.7731 33.9992 22.8089 33.9634 22.8448 33.9275C22.8807 33.8916 22.9166 33.8557 22.9526 33.8197C22.9885 33.7838 23.0245 33.7478 23.0605 33.7118C23.0965 33.6758 23.1325 33.6398 23.1686 33.6037C23.2047 33.5676 23.2408 33.5315 23.2769 33.4954C23.313 33.4593 23.3492 33.4231 23.3854 33.3869C23.4216 33.3507 23.4578 33.3145 23.494 33.2783C23.5303 33.242 23.5666 33.2058 23.6029 33.1694C23.6392 33.1331 23.6755 33.0968 23.7119 33.0604C23.7483 33.0241 23.7846 32.9877 23.8211 32.9512C23.8575 32.9148 23.8939 32.8784 23.9304 32.8419C23.9669 32.8054 24.0034 32.7689 24.04 32.7324C24.0765 32.6958 24.1131 32.6593 24.1497 32.6227C24.1862 32.5861 24.2229 32.5494 24.2595 32.5128C24.2962 32.4761 24.3328 32.4395 24.3696 32.4028C24.4063 32.3661 24.443 32.3293 24.4798 32.2926C24.5165 32.2558 24.5533 32.219 24.5901 32.1822C24.6269 32.1454 24.6638 32.1086 24.7006 32.0717C24.7375 32.0348 24.7744 31.9979 24.8113 31.961C24.8482 31.9241 24.8852 31.8871 24.9221 31.8502C24.9591 31.8132 24.9961 31.7762 25.0331 31.7392C25.0702 31.7022 25.1072 31.6651 25.1443 31.628C25.1814 31.591 25.2185 31.5539 25.2556 31.5167C25.2927 31.4796 25.3299 31.4425 25.367 31.4053C25.4042 31.3681 25.4414 31.3309 25.4786 31.2937C25.5159 31.2564 25.5531 31.2192 25.5904 31.1819C25.6277 31.1447 25.665 31.1074 25.7023 31.07C25.7396 31.0327 25.777 30.9954 25.8143 30.958C25.8517 30.9206 25.8891 30.8832 25.9265 30.8458C25.9639 30.8084 26.0014 30.7709 26.0388 30.7335C26.0763 30.696 26.1138 30.6585 26.1513 30.621C26.1888 30.5835 26.2263 30.546 26.2639 30.5084C26.3015 30.4709 26.339 30.4333 26.3766 30.3957C26.4142 30.3581 26.4519 30.3205 26.4895 30.2828C26.5272 30.2452 26.5648 30.2075 26.6025 30.1698C26.6402 30.1321 26.6779 30.0944 26.7156 30.0567C26.7534 30.0189 26.7911 29.9812 26.8289 29.9434C26.8667 29.9056 26.9045 29.8678 26.9423 29.83C26.9801 29.7922 27.018 29.7544 27.0558 29.7165C27.0937 29.6786 27.1316 29.6408 27.1695 29.6029C27.2074 29.5649 27.2453 29.527 27.2832 29.4891C27.3212 29.4511 27.3591 29.4132 27.3971 29.3752C27.4351 29.3372 27.4731 29.2992 27.5111 29.2612C27.5492 29.2232 27.5872 29.1851 27.6253 29.1471C27.6633 29.109 27.7014 29.0709 27.7395 29.0328C27.7776 28.9947 27.8157 28.9566 27.8538 28.9185C27.892 28.8803 27.9301 28.8422 27.9683 28.804C28.0065 28.7658 28.0447 28.7276 28.0829 28.6894C28.1211 28.6512 28.1593 28.613 28.1976 28.5747C28.2358 28.5365 28.2741 28.4982 28.3124 28.4599C28.3507 28.4217 28.389 28.3834 28.4273 28.345C28.4656 28.3067 28.5039 28.2684 28.5423 28.23C28.5806 28.1917 28.619 28.1533 28.6574 28.1149C28.6958 28.0765 28.7342 28.0381 28.7726 27.9997C28.811 27.9613 28.8495 27.9229 28.8879 27.8844C28.9264 27.8459 28.9648 27.8075 29.0033 27.769C29.0418 27.7305 29.0803 27.692 29.1188 27.6535C29.1574 27.615 29.1959 27.5764 29.2344 27.5379C29.273 27.4993 29.3115 27.4608 29.3501 27.4222C29.3887 27.3836 29.4273 27.345 29.4659 27.3064C29.5045 27.2678 29.5431 27.2292 29.5818 27.1905C29.6204 27.1519 29.6591 27.1132 29.6977 27.0746C29.7364 27.0359 29.7751 26.9972 29.8138 26.9585C29.8525 26.9198 29.8912 26.8811 29.9299 26.8424C29.9686 26.8037 30.0074 26.7649 30.0461 26.7262C30.0849 26.6874 30.1236 26.6487 30.1624 26.6099C30.2012 26.5711 30.24 26.5323 30.2788 26.4935C30.3176 26.4547 30.3564 26.4159 30.3952 26.3771C30.4341 26.3382 30.4729 26.2994 30.5118 26.2605C30.5506 26.2217 30.5895 26.1828 30.6284 26.1439C30.6673 26.1051 30.7061 26.0662 30.7451 26.0273C30.784 25.9884 30.8229 25.9494 30.8618 25.9105C30.9007 25.8716 30.9397 25.8327 30.9786 25.7937C31.0176 25.7548 31.0565 25.7158 31.0955 25.6768C31.1345 25.6379 31.1735 25.5989 31.2124 25.5599C31.2514 25.5209 31.2904 25.4819 31.3295 25.4429C31.3685 25.4038 31.4075 25.3648 31.4465 25.3258C31.4856 25.2867 31.5246 25.2477 31.5637 25.2086C31.6027 25.1696 31.6418 25.1305 31.6809 25.0914C31.7199 25.0524 31.759 25.0133 31.7981 24.9742C31.8372 24.9351 31.8763 24.896 31.9154 24.8569C31.9545 24.8178 31.9937 24.7786 32.0328 24.7395C32.0719 24.7004 32.1111 24.6612 32.1502 24.6221C32.1894 24.583 32.2285 24.5438 32.2677 24.5046C32.3069 24.4655 32.346 24.4263 32.3852 24.3871C32.4244 24.3479 32.4636 24.3087 32.5028 24.2695C32.542 24.2303 32.5812 24.1911 32.6204 24.1519C32.6596 24.1127 32.6988 24.0735 32.738 24.0343C32.7773 23.995 32.8165 23.9558 32.8557 23.9166C32.895 23.8773 32.9342 23.8381 32.9735 23.7988C33.0127 23.7596 33.052 23.7203 33.0913 23.681C33.1305 23.6418 33.1698 23.6025 33.2091 23.5632C33.2484 23.524 33.2877 23.4847 33.3269 23.4454C33.3662 23.4061 33.4055 23.3668 33.4448 23.3275C33.4841 23.2882 33.5234 23.2489 33.5628 23.2096C33.6021 23.1703 33.6414 23.1309 33.6807 23.0916C33.72 23.0523 33.7594 23.013 33.7987 22.9736C33.838 22.9343 33.8774 22.895 33.9167 22.8556C33.956 22.8163 33.9954 22.7769 34.0347 22.7376C34.0741 22.6982 34.1134 22.6589 34.1528 22.6195C34.1922 22.5802 34.2315 22.5408 34.2709 22.5014C34.3102 22.4621 34.3496 22.4227 34.389 22.3833C34.4284 22.344 34.4677 22.3046 34.5071 22.2652C34.5465 22.2258 34.5859 22.1865 34.6253 22.1471C34.6646 22.1077 34.704 22.0683 34.7434 22.0289C34.7828 21.9895 34.8222 21.9501 34.8616 21.9107C34.901 21.8713 34.9404 21.8319 34.9798 21.7926C35.0192 21.7532 35.0586 21.7138 35.098 21.6744C35.1374 21.635 35.1768 21.5956 35.2162 21.5561C35.2556 21.5167 35.295 21.4773 35.3344 21.4379C35.3738 21.3985 35.4132 21.3591 35.4526 21.3197C35.492 21.2803 35.5314 21.2409 35.5708 21.2015C35.6102 21.1621 35.6496 21.1227 35.6891 21.0833C35.7285 21.0439 35.7679 21.0044 35.8073 20.965C35.8467 20.9256 35.8861 20.8862 35.9255 20.8468C35.9649 20.8074 36.0043 20.768 36.0437 20.7286C36.0831 20.6892 36.1226 20.6498 36.162 20.6104C36.2014 20.571 36.2408 20.5315 36.2802 20.4921C36.3196 20.4527 36.359 20.4133 36.3984 20.3739C36.4378 20.3345 36.4772 20.2951 36.5166 20.2557C36.556 20.2163 36.5954 20.1769 36.6348 20.1375C36.6742 20.0981 36.7136 20.0588 36.753 20.0194C36.7923 19.98 36.8317 19.9406 36.8711 19.9012C36.9105 19.8618 36.9499 19.8224 36.9893 19.7831C37.0286 19.7437 37.068 19.7043 37.1074 19.6649C37.1468 19.6255 37.1861 19.5862 37.2255 19.5468C37.2649 19.5074 37.3042 19.4681 37.3436 19.4287C37.383 19.3894 37.4223 19.35 37.4617 19.3107C37.501 19.2713 37.5404 19.232 37.5797 19.1926C37.6191 19.1533 37.6584 19.1139 37.6977 19.0746C37.7371 19.0353 37.7764 18.9959 37.8157 18.9566C37.8551 18.9173 37.8944 18.8779 37.9337 18.8386C37.973 18.7993 38.0123 18.76 38.0516 18.7207C38.0909 18.6814 38.1302 18.6421 38.1695 18.6028C38.2088 18.5635 38.2481 18.5242 38.2874 18.4849C38.3267 18.4456 38.366 18.4064 38.4052 18.3671C38.4445 18.3278 38.4838 18.2886 38.523 18.2493C38.5623 18.21 38.6015 18.1708 38.6408 18.1315C38.68 18.0923 38.7193 18.0531 38.7585 18.0138C38.7977 17.9746 38.8369 17.9354 38.8762 17.8962C38.9154 17.8569 38.9546 17.8177 38.9938 17.7785C39.033 17.7393 39.0722 17.7001 39.1114 17.6609C39.1506 17.6218 39.1897 17.5826 39.2289 17.5434C39.2681 17.5042 39.3072 17.4651 39.3464 17.4259C39.3856 17.3868 39.4247 17.3476 39.4638 17.3085C39.503 17.2693 39.5421 17.2302 39.5812 17.1911C39.6203 17.152 39.6595 17.1129 39.6986 17.0738C39.7377 17.0347 39.7767 16.9956 39.8158 16.9565C39.8549 16.9174 39.894 16.8783 39.933 16.8393C39.9721 16.8002 40.0112 16.7612 40.0502 16.7221C40.0892 16.6831 40.1283 16.644 40.1673 16.605C40.2063 16.566 40.2453 16.527 40.2843 16.488C40.3233 16.449 40.3623 16.41 40.4013 16.371C40.4403 16.332 40.4793 16.2931 40.5182 16.2541C40.5572 16.2151 40.5961 16.1762 40.6351 16.1373C40.674 16.0983 40.7129 16.0594 40.7518 16.0205C40.7907 15.9816 40.8296 15.9427 40.8685 15.9038C40.9074 15.8649 40.9463 15.826 40.9852 15.7872C41.024 15.7483 41.0629 15.7094 41.1017 15.6706C41.1406 15.6318 41.1794 15.5929 41.2182 15.5541C41.257 15.5153 41.2958 15.4765 41.3346 15.4377C41.3734 15.3989 41.4122 15.3602 41.4509 15.3214C41.4897 15.2826 41.5284 15.2439 41.5672 15.2052C41.6059 15.1664 41.6446 15.1277 41.6833 15.089C41.722 15.0503 41.7607 15.0116 41.7994 14.9729C41.8381 14.9342 41.8767 14.8956 41.9154 14.8569C41.954 14.8183 41.9927 14.7796 42.0313 14.741C42.0699 14.7024 42.1085 14.6638 42.1471 14.6252C42.1857 14.5866 42.2243 14.548 42.2628 14.5095C42.3014 14.4709 42.3399 14.4324 42.3785 14.3939C42.417 14.3553 42.4555 14.3168 42.494 14.2783C42.5325 14.2398 42.571 14.2013 42.6094 14.1629C42.6479 14.1244 42.6864 14.086 42.7248 14.0475C42.7632 14.0091 42.8016 13.9707 42.84 13.9323C42.8784 13.8939 42.9168 13.8555 42.9552 13.8171C42.9935 13.7788 43.0319 13.7404 43.0702 13.7021C43.1086 13.6638 43.1469 13.6254 43.1852 13.5872C43.2235 13.5489 43.2617 13.5106 43.3 13.4723C43.3383 13.4341 43.3765 13.3958 43.4147 13.3576C43.453 13.3194 43.4912 13.2812 43.5293 13.243C43.5675 13.2048 43.6057 13.1666 43.6439 13.1285C43.682 13.0903 43.7201 13.0522 43.7583 13.0141C43.7964 12.976 43.8345 12.9379 43.8725 12.8998C43.9106 12.8617 43.9487 12.8237 43.9867 12.7856C44.0247 12.7476 44.0628 12.7096 44.1007 12.6716C44.1387 12.6336 44.1767 12.5956 44.2147 12.5576C44.2526 12.5197 44.2906 12.4817 44.3285 12.4438C44.3664 12.4059 44.4043 12.368 44.4422 12.3301C44.4801 12.2923 44.5179 12.2544 44.5557 12.2166C44.5936 12.1787 44.6314 12.1409 44.6692 12.1031C44.707 12.0653 44.7447 12.0276 44.7825 11.9898C44.8202 11.9521 44.858 11.9144 44.8957 11.8766C44.9334 11.8389 44.9711 11.8013 45.0087 11.7636C45.0464 11.7259 45.084 11.6883 45.1216 11.6507C45.1593 11.6131 45.1969 11.5755 45.2344 11.5379C45.272 11.5003 45.3096 11.4628 45.3471 11.4252C45.3846 11.3877 45.4221 11.3502 45.4596 11.3127C45.4971 11.2752 45.5345 11.2378 45.572 11.2004C45.6094 11.1629 45.6468 11.1255 45.6842 11.0881C45.7216 11.0507 45.759 11.0134 45.7963 10.976C45.8336 10.9387 45.8709 10.9014 45.9082 10.8641C45.9455 10.8268 45.9828 10.7895 46.02 10.7523C46.0573 10.715 46.0945 10.6778 46.1317 10.6406C46.1689 10.6034 46.2061 10.5663 46.2432 10.5291C46.2803 10.492 46.3175 10.4549 46.3546 10.4178C46.3917 10.3807 46.4287 10.3436 46.4658 10.3066C46.5028 10.2695 46.5398 10.2325 46.5768 10.1955C46.6138 10.1585 46.6508 10.1216 46.6877 10.0846C46.7246 10.0477 46.7616 10.0108 46.7984 9.97388C46.8353 9.93699 46.8722 9.90013 46.909 9.8633C46.9459 9.82647 46.9827 9.78966 47.0194 9.75289C47.0562 9.71611 47.093 9.67935 47.1297 9.64263C47.1664 9.6059 47.2031 9.56921 47.2398 9.53254C47.2765 9.49587 47.3131 9.45922 47.3497 9.42261C47.3863 9.386 47.4229 9.34941 47.4595 9.31285C47.496 9.2763 47.5326 9.23976 47.5691 9.20326C47.6056 9.16676 47.642 9.13029 47.6785 9.09384C47.7149 9.0574 47.7513 9.02098 47.7877 8.9846C47.8241 8.94821 47.8605 8.91185 47.8968 8.87552C47.9331 8.8392 47.9694 8.8029 48.0057 8.76662C48.042 8.73036 48.0782 8.69412 48.1144 8.65791C48.1506 8.6217 48.1868 8.58551 48.223 8.54936C48.2591 8.51321 48.2952 8.47709 48.3313 8.441C48.3674 8.40491 48.4035 8.36885 48.4395 8.33282C48.4755 8.29679 48.5115 8.2608 48.5475 8.22483C48.5835 8.18886 48.6194 8.15292 48.6553 8.11702C48.6912 8.08111 48.7271 8.04524 48.7629 8.0094C48.7988 7.97355 48.8346 7.93774 48.8704 7.90196C48.9061 7.86618 48.9419 7.83044 48.9776 7.79472C49.0133 7.759 49.049 7.72332 49.0847 7.68767C49.1203 7.65202 49.1559 7.6164 49.1915 7.58081C49.2271 7.54523 49.2626 7.50967 49.2982 7.47415C49.3337 7.43863 49.3692 7.40314 49.4046 7.36769C49.4401 7.33223 49.4755 7.29681 49.5109 7.26142C49.5463 7.22603 49.5816 7.19068 49.617 7.15536C49.6523 7.12004 49.6876 7.08475 49.7228 7.04949C49.7581 7.01424 49.7933 6.97902 49.8285 6.94383C49.8637 6.90865 49.8988 6.8735 49.9339 6.83838C49.9691 6.80326 50.0041 6.76818 50.0392 6.73313C50.0742 6.69809 50.1092 6.66307 50.1442 6.6281C50.1792 6.59312 50.2141 6.55818 50.249 6.52327C50.284 6.48836 50.3188 6.45349 50.3537 6.41866C50.3885 6.38382 50.4233 6.34902 50.4581 6.31426C50.4928 6.27949 50.5276 6.24476 50.5623 6.21007C50.5969 6.17538 50.6316 6.14072 50.6662 6.1061C50.7008 6.07148 50.7354 6.0369 50.77 6.00235C50.8045 5.9678 50.839 5.9333 50.8735 5.89882C50.908 5.86435 50.9424 5.82992 50.9768 5.79552C51.0112 5.76112 51.0456 5.72676 51.0799 5.69244L47.5444 2.1569C47.51 2.19122 47.4757 2.22559 47.4413 2.25998C47.4069 2.29438 47.3724 2.32882 47.338 2.36329C47.3035 2.39776 47.269 2.43227 47.2344 2.46682C47.1999 2.50136 47.1653 2.53595 47.1307 2.57057C47.0961 2.60519 47.0614 2.63984 47.0267 2.67453C46.992 2.70923 46.9573 2.74396 46.9225 2.77872C46.8878 2.81349 46.853 2.84828 46.8181 2.88312C46.7833 2.91796 46.7484 2.95283 46.7135 2.98774C46.6786 3.02264 46.6437 3.05759 46.6087 3.09256C46.5737 3.12754 46.5387 3.16255 46.5037 3.1976C46.4686 3.23265 46.4335 3.26773 46.3984 3.30285C46.3633 3.33796 46.3281 3.37311 46.293 3.4083C46.2578 3.44348 46.2225 3.4787 46.1873 3.51396C46.152 3.54921 46.1168 3.5845 46.0814 3.61982C46.0461 3.65514 46.0108 3.6905 45.9754 3.72589C45.94 3.76128 45.9046 3.7967 45.8691 3.83215C45.8336 3.86761 45.7982 3.9031 45.7626 3.93862C45.7271 3.97414 45.6916 4.00969 45.656 4.04528C45.6204 4.08086 45.5848 4.11648 45.5491 4.15213C45.5135 4.18779 45.4778 4.22347 45.4421 4.25919C45.4063 4.2949 45.3706 4.33065 45.3348 4.36643C45.299 4.40221 45.2632 4.43802 45.2274 4.47386C45.1915 4.50971 45.1557 4.54558 45.1198 4.58148C45.0839 4.61739 45.0479 4.65333 45.012 4.68929C44.976 4.72526 44.94 4.76126 44.904 4.79729C44.8679 4.83332 44.8319 4.86938 44.7958 4.90547C44.7597 4.94156 44.7236 4.97768 44.6874 5.01383C44.6513 5.04998 44.6151 5.08616 44.5789 5.12237C44.5427 5.15858 44.5064 5.19482 44.4702 5.23109C44.4339 5.26736 44.3976 5.30366 44.3613 5.33999C44.3249 5.37632 44.2886 5.41268 44.2522 5.44906C44.2158 5.48545 44.1794 5.52187 44.1429 5.55831C44.1065 5.59475 44.07 5.63123 44.0335 5.66773C43.997 5.70423 43.9605 5.74076 43.9239 5.77732C43.8874 5.81388 43.8508 5.85046 43.8142 5.88708C43.7776 5.92369 43.7409 5.96034 43.7042 5.997C43.6676 6.03367 43.6309 6.07037 43.5942 6.1071C43.5574 6.14382 43.5207 6.18057 43.4839 6.21735C43.4471 6.25413 43.4103 6.29093 43.3735 6.32777C43.3367 6.3646 43.2998 6.40146 43.2629 6.43835C43.226 6.47523 43.1891 6.51214 43.1522 6.54908C43.1152 6.58602 43.0783 6.62299 43.0413 6.65998C43.0043 6.69697 42.9673 6.73398 42.9302 6.77102C42.8932 6.80807 42.8561 6.84514 42.819 6.88223C42.7819 6.91932 42.7448 6.95644 42.7077 6.99358C42.6705 7.03073 42.6334 7.0679 42.5962 7.10509C42.559 7.14228 42.5217 7.1795 42.4845 7.21675C42.4473 7.25399 42.41 7.29126 42.3727 7.32855C42.3354 7.36584 42.2981 7.40315 42.2608 7.44049C42.2234 7.47783 42.1861 7.5152 42.1487 7.55259C42.1113 7.58997 42.0739 7.62738 42.0364 7.66482C41.999 7.70226 41.9615 7.73971 41.9241 7.77719C41.8866 7.81468 41.8491 7.85218 41.8115 7.88971C41.774 7.92723 41.7365 7.96479 41.6989 8.00236C41.6613 8.03993 41.6237 8.07753 41.5861 8.11514C41.5485 8.15276 41.5109 8.1904 41.4732 8.22806C41.4355 8.26572 41.3978 8.30341 41.3601 8.34111C41.3224 8.37882 41.2847 8.41655 41.247 8.4543C41.2092 8.49205 41.1714 8.52981 41.1336 8.56761C41.0959 8.6054 41.058 8.64321 41.0202 8.68104C40.9824 8.71888 40.9445 8.75673 40.9066 8.79461C40.8688 8.83248 40.8309 8.87038 40.793 8.9083C40.755 8.94621 40.7171 8.98415 40.6791 9.02211C40.6412 9.06006 40.6032 9.09804 40.5652 9.13604C40.5272 9.17403 40.4892 9.21205 40.4512 9.25009C40.4131 9.28812 40.3751 9.32618 40.337 9.36425C40.2989 9.40233 40.2608 9.44042 40.2227 9.47854C40.1846 9.51665 40.1465 9.55478 40.1083 9.59293C40.0702 9.63108 40.032 9.66925 39.9938 9.70744C39.9556 9.74563 39.9174 9.78383 39.8792 9.82206C39.841 9.86028 39.8027 9.89852 39.7645 9.93679C39.7262 9.97505 39.6879 10.0133 39.6496 10.0516C39.6113 10.0899 39.573 10.1282 39.5347 10.1666C39.4964 10.2049 39.458 10.2432 39.4196 10.2816C39.3813 10.32 39.3429 10.3584 39.3045 10.3967C39.2661 10.4351 39.2277 10.4736 39.1893 10.512C39.1508 10.5504 39.1124 10.5889 39.0739 10.6273C39.0354 10.6658 38.997 10.7043 38.9585 10.7428C38.92 10.7813 38.8815 10.8198 38.8429 10.8583C38.8044 10.8969 38.7659 10.9354 38.7273 10.974C38.6887 11.0125 38.6502 11.0511 38.6116 11.0897C38.573 11.1283 38.5344 11.1669 38.4958 11.2055C38.4571 11.2441 38.4185 11.2827 38.3799 11.3214C38.3412 11.36 38.3025 11.3987 38.2639 11.4374C38.2252 11.4761 38.1865 11.5148 38.1478 11.5535C38.1091 11.5922 38.0704 11.6309 38.0316 11.6696C37.9929 11.7084 37.9541 11.7471 37.9154 11.7859C37.8766 11.8246 37.8378 11.8634 37.7991 11.9022C37.7603 11.941 37.7215 11.9798 37.6827 12.0186C37.6438 12.0574 37.605 12.0962 37.5662 12.1351C37.5273 12.1739 37.4885 12.2128 37.4496 12.2516C37.4108 12.2905 37.3719 12.3294 37.333 12.3683C37.2941 12.4071 37.2552 12.446 37.2163 12.485C37.1774 12.5239 37.1385 12.5628 37.0995 12.6017C37.0606 12.6407 37.0216 12.6796 36.9827 12.7186C36.9437 12.7575 36.9048 12.7965 36.8658 12.8355C36.8268 12.8745 36.7878 12.9134 36.7488 12.9524C36.7098 12.9914 36.6708 13.0305 36.6318 13.0695C36.5927 13.1085 36.5537 13.1475 36.5147 13.1866C36.4756 13.2256 36.4366 13.2647 36.3975 13.3037C36.3584 13.3428 36.3194 13.3819 36.2803 13.421C36.2412 13.46 36.2021 13.4991 36.163 13.5382C36.1239 13.5773 36.0848 13.6164 36.0457 13.6556C36.0066 13.6947 35.9674 13.7338 35.9283 13.773C35.8892 13.8121 35.85 13.8512 35.8109 13.8904C35.7717 13.9295 35.7325 13.9687 35.6934 14.0079C35.6542 14.047 35.615 14.0862 35.5758 14.1254C35.5367 14.1646 35.4975 14.2038 35.4583 14.243C35.4191 14.2822 35.3798 14.3214 35.3406 14.3606C35.3014 14.3998 35.2622 14.4391 35.223 14.4783C35.1837 14.5175 35.1445 14.5568 35.1052 14.596C35.066 14.6353 35.0267 14.6745 34.9875 14.7138C34.9482 14.753 34.909 14.7923 34.8697 14.8316C34.8304 14.8708 34.7911 14.9101 34.7519 14.9494C34.7126 14.9887 34.6733 15.028 34.634 15.0673C34.5947 15.1066 34.5554 15.1459 34.5161 15.1852C34.4768 15.2245 34.4375 15.2638 34.3982 15.3031C34.3588 15.3424 34.3195 15.3817 34.2802 15.4211C34.2409 15.4604 34.2015 15.4997 34.1622 15.5391C34.1229 15.5784 34.0835 15.6177 34.0442 15.6571C34.0048 15.6964 33.9655 15.7358 33.9261 15.7751C33.8868 15.8145 33.8474 15.8538 33.8081 15.8932C33.7687 15.9325 33.7293 15.9719 33.69 16.0113C33.6506 16.0506 33.6112 16.09 33.5719 16.1294C33.5325 16.1688 33.4931 16.2081 33.4537 16.2475C33.4144 16.2869 33.375 16.3263 33.3356 16.3657C33.2962 16.4051 33.2568 16.4444 33.2174 16.4838C33.178 16.5232 33.1386 16.5626 33.0992 16.602C33.0598 16.6414 33.0204 16.6808 32.9811 16.7202C32.9417 16.7596 32.9023 16.799 32.8629 16.8384C32.8235 16.8778 32.784 16.9172 32.7446 16.9566C32.7052 16.996 32.6658 17.0354 32.6264 17.0748C32.587 17.1142 32.5476 17.1536 32.5082 17.193C32.4688 17.2325 32.4294 17.2719 32.39 17.3113C32.3506 17.3507 32.3112 17.3901 32.2718 17.4295C32.2323 17.4689 32.1929 17.5083 32.1535 17.5477C32.1141 17.5871 32.0747 17.6265 32.0353 17.666C31.9959 17.7054 31.9565 17.7448 31.9171 17.7842C31.8777 17.8236 31.8383 17.863 31.7988 17.9024C31.7594 17.9418 31.72 17.9812 31.6806 18.0206C31.6412 18.06 31.6018 18.0994 31.5624 18.1388C31.523 18.1782 31.4836 18.2176 31.4442 18.257C31.4048 18.2964 31.3654 18.3358 31.326 18.3752C31.2867 18.4146 31.2473 18.454 31.2079 18.4934C31.1685 18.5328 31.1291 18.5722 31.0897 18.6115C31.0503 18.6509 31.011 18.6903 30.9716 18.7297C30.9322 18.7691 30.8928 18.8084 30.8535 18.8478C30.8141 18.8872 30.7747 18.9265 30.7353 18.9659C30.696 19.0053 30.6566 19.0446 30.6173 19.084C30.5779 19.1233 30.5386 19.1627 30.4992 19.202C30.4599 19.2414 30.4205 19.2807 30.3812 19.3201C30.3418 19.3594 30.3025 19.3988 30.2632 19.4381C30.2238 19.4774 30.1845 19.5168 30.1452 19.5561C30.1058 19.5954 30.0665 19.6347 30.0272 19.674C29.9879 19.7133 29.9486 19.7527 29.9093 19.792C29.87 19.8313 29.8307 19.8706 29.7914 19.9098C29.7521 19.9491 29.7128 19.9884 29.6736 20.0277C29.6343 20.067 29.595 20.1062 29.5557 20.1455C29.5165 20.1848 29.4772 20.224 29.438 20.2633C29.3987 20.3026 29.3595 20.3418 29.3202 20.381C29.281 20.4203 29.2417 20.4595 29.2025 20.4987C29.1633 20.538 29.1241 20.5772 29.0849 20.6164C29.0456 20.6556 29.0064 20.6948 28.9672 20.734C28.928 20.7732 28.8889 20.8124 28.8497 20.8516C28.8105 20.8908 28.7713 20.9299 28.7322 20.9691C28.693 21.0083 28.6538 21.0474 28.6147 21.0866C28.5755 21.1257 28.5364 21.1649 28.4973 21.204C28.4581 21.2431 28.419 21.2822 28.3799 21.3213C28.3408 21.3605 28.3017 21.3996 28.2626 21.4387C28.2235 21.4778 28.1844 21.5168 28.1453 21.5559C28.1063 21.595 28.0672 21.6341 28.0281 21.6731C27.9891 21.7122 27.95 21.7512 27.911 21.7902C27.872 21.8293 27.8329 21.8683 27.7939 21.9073C27.7549 21.9463 27.7159 21.9853 27.6769 22.0243C27.6379 22.0633 27.5989 22.1023 27.56 22.1413C27.521 22.1803 27.482 22.2192 27.4431 22.2582C27.4041 22.2971 27.3652 22.3361 27.3263 22.375C27.2873 22.4139 27.2484 22.4528 27.2095 22.4917C27.1706 22.5306 27.1317 22.5695 27.0928 22.6084C27.054 22.6473 27.0151 22.6862 26.9762 22.725C26.9374 22.7639 26.8985 22.8027 26.8597 22.8415C26.8209 22.8804 26.7821 22.9192 26.7433 22.958C26.7045 22.9968 26.6657 23.0356 26.6269 23.0744C26.5881 23.1131 26.5493 23.1519 26.5106 23.1907C26.4718 23.2294 26.4331 23.2681 26.3944 23.3069C26.3557 23.3456 26.3169 23.3843 26.2782 23.423C26.2396 23.4617 26.2009 23.5004 26.1622 23.539C26.1235 23.5777 26.0849 23.6164 26.0462 23.655C26.0076 23.6936 25.969 23.7323 25.9304 23.7709C25.8918 23.8095 25.8532 23.8481 25.8146 23.8867C25.776 23.9252 25.7374 23.9638 25.6989 24.0024C25.6604 24.0409 25.6218 24.0794 25.5833 24.118C25.5448 24.1565 25.5063 24.195 25.4678 24.2335C25.4293 24.2719 25.3908 24.3104 25.3524 24.3489C25.3139 24.3873 25.2755 24.4258 25.2371 24.4642C25.1987 24.5026 25.1603 24.541 25.1219 24.5794C25.0835 24.6178 25.0451 24.6561 25.0068 24.6945C24.9684 24.7328 24.9301 24.7712 24.8917 24.8095C24.8534 24.8478 24.8151 24.8861 24.7768 24.9244C24.7386 24.9627 24.7003 25.001 24.6621 25.0392C24.6238 25.0774 24.5856 25.1157 24.5474 25.1539C24.5092 25.1921 24.471 25.2303 24.4328 25.2685C24.3946 25.3066 24.3565 25.3448 24.3183 25.3829C24.2802 25.4211 24.2421 25.4592 24.204 25.4973C24.1659 25.5354 24.1278 25.5735 24.0897 25.6115C24.0517 25.6496 24.0136 25.6876 23.9756 25.7257C23.9376 25.7637 23.8996 25.8017 23.8616 25.8397C23.8236 25.8776 23.7856 25.9156 23.7477 25.9536C23.7098 25.9915 23.6718 26.0294 23.6339 26.0673C23.596 26.1052 23.5582 26.1431 23.5203 26.181C23.4824 26.2188 23.4446 26.2567 23.4068 26.2945C23.369 26.3323 23.3312 26.3701 23.2934 26.4079C23.2556 26.4456 23.2178 26.4834 23.1801 26.5211C23.1424 26.5589 23.1047 26.5966 23.067 26.6343C23.0293 26.672 22.9916 26.7096 22.954 26.7473C22.9163 26.7849 22.8787 26.8225 22.8411 26.8601C22.8035 26.8977 22.7659 26.9353 22.7284 26.9729C22.6908 27.0104 22.6533 27.048 22.6158 27.0855C22.5783 27.123 22.5408 27.1605 22.5033 27.1979C22.4658 27.2354 22.4284 27.2729 22.391 27.3103C22.3536 27.3477 22.3162 27.3851 22.2788 27.4225C22.2414 27.4598 22.2041 27.4972 22.1668 27.5345C22.1294 27.5718 22.0921 27.6091 22.0549 27.6464C22.0176 27.6837 21.9803 27.7209 21.9431 27.7581C21.9059 27.7954 21.8687 27.8326 21.8315 27.8697C21.7943 27.9069 21.7572 27.9441 21.7201 27.9812C21.6829 28.0183 21.6458 28.0554 21.6088 28.0925C21.5717 28.1296 21.5346 28.1666 21.4976 28.2036C21.4606 28.2407 21.4236 28.2777 21.3866 28.3146C21.3496 28.3516 21.3127 28.3886 21.2758 28.4255C21.2389 28.4624 21.202 28.4993 21.1651 28.5362C21.1282 28.573 21.0914 28.6099 21.0546 28.6467C21.0178 28.6835 20.981 28.7203 20.9442 28.757C20.9075 28.7938 20.8707 28.8305 20.834 28.8672C20.7973 28.9039 20.7606 28.9406 20.724 28.9773C20.6873 29.0139 20.6507 29.0505 20.6141 29.0871C20.5775 29.1237 20.541 29.1603 20.5044 29.1968C20.4679 29.2334 20.4314 29.2699 20.3949 29.3064C20.3584 29.3428 20.322 29.3793 20.2855 29.4157C20.2491 29.4521 20.2127 29.4885 20.1764 29.5249C20.14 29.5613 20.1036 29.5976 20.0673 29.6339C20.031 29.6702 19.9948 29.7065 19.9585 29.7427C19.9223 29.779 19.886 29.8152 19.8499 29.8514C19.8137 29.8876 19.7775 29.9237 19.7414 29.9599C19.7052 29.996 19.6691 30.0321 19.6331 30.0682C19.597 30.1042 19.561 30.1403 19.525 30.1763C19.489 30.2123 19.453 30.2483 19.417 30.2842C19.3811 30.3202 19.3452 30.3561 19.3093 30.392C19.2734 30.4278 19.2376 30.4637 19.2017 30.4995C19.1659 30.5353 19.1301 30.5711 19.0944 30.6069C19.0586 30.6426 19.0229 30.6784 18.9872 30.7141C18.9515 30.7497 18.9158 30.7854 18.8802 30.821C18.8446 30.8567 18.809 30.8923 18.7734 30.9278C18.7379 30.9634 18.7023 30.9989 18.6668 31.0344C18.6313 31.0699 18.5959 31.1054 18.5604 31.1408C18.525 31.1762 18.4896 31.2116 18.4543 31.247C18.4189 31.2824 18.3836 31.3177 18.3483 31.353C18.313 31.3883 18.2777 31.4236 18.2425 31.4588C18.2072 31.494 18.172 31.5292 18.1369 31.5644C18.1017 31.5995 18.0666 31.6347 18.0315 31.6697C17.9964 31.7048 17.9614 31.7399 17.9263 31.7749C17.8913 31.8099 17.8563 31.8449 17.8214 31.8799C17.7864 31.9148 17.7515 31.9497 17.7166 31.9846C17.6817 32.0195 17.6469 32.0544 17.6121 32.0892C17.5773 32.124 17.5425 32.1588 17.5078 32.1935C17.473 32.2282 17.4383 32.2629 17.4037 32.2976C17.369 32.3323 17.3344 32.3669 17.2998 32.4015C17.2652 32.4361 17.2306 32.4706 17.1961 32.5052C17.1616 32.5397 17.1271 32.5742 17.0926 32.6086C17.0582 32.6431 17.0238 32.6775 16.9894 32.7118C16.955 32.7462 16.9207 32.7805 16.8864 32.8148C16.8521 32.8491 16.8179 32.8834 16.7836 32.9176C16.7494 32.9518 16.7152 32.986 16.6811 33.0202C16.6469 33.0543 16.6128 33.0884 16.5788 33.1225C16.5447 33.1565 16.5107 33.1906 16.4767 33.2246C16.4427 33.2586 16.4087 33.2925 16.3748 33.3264C16.3409 33.3603 16.307 33.3942 16.2732 33.428C16.2394 33.4619 16.2056 33.4957 16.1718 33.5294C16.1381 33.5632 16.1044 33.5969 16.0707 33.6306C16.037 33.6642 16.0034 33.6979 15.9698 33.7315C15.9362 33.7651 15.9026 33.7986 15.8691 33.8321C15.8356 33.8657 15.8021 33.8991 15.7687 33.9326C15.7353 33.966 15.7019 33.9994 15.6685 34.0327C15.6352 34.0661 15.6018 34.0994 15.5686 34.1327C15.5353 34.1659 15.5021 34.1992 15.4689 34.2324C15.4357 34.2655 15.4026 34.2987 15.3695 34.3318C15.3364 34.3649 15.3033 34.398 15.2703 34.431C15.2373 34.464 15.2043 34.497 15.1713 34.5299C15.1384 34.5628 15.1055 34.5957 15.0727 34.6286C15.0398 34.6614 15.007 34.6942 14.9742 34.727C14.9415 34.7598 14.9088 34.7925 14.8761 34.8252C14.8434 34.8579 14.8108 34.8905 14.7782 34.9231C14.7456 34.9557 14.713 34.9882 14.6805 35.0207C14.648 35.0532 14.6156 35.0857 14.5832 35.1181C14.5507 35.1505 14.5184 35.1829 14.486 35.2152C14.4537 35.2475 14.4214 35.2798 14.3892 35.3121C14.3569 35.3443 14.3248 35.3765 14.2926 35.4086C14.2605 35.4408 14.2284 35.4729 14.1963 35.505C14.1642 35.537 14.1322 35.569 14.1003 35.601C14.0683 35.633 14.0364 35.6649 14.0045 35.6968C13.9726 35.7286 13.9408 35.7605 13.909 35.7923C13.8772 35.824 13.8455 35.8558 13.8138 35.8875C13.7821 35.9192 13.7504 35.9508 13.7188 35.9824C13.6872 36.014 13.6557 36.0456 13.6242 36.0771C13.5927 36.1086 13.5612 36.14 13.5298 36.1715C13.4984 36.2029 13.467 36.2342 13.4357 36.2656C13.4044 36.2969 13.3731 36.3281 13.3419 36.3594C13.3107 36.3906 13.2795 36.4218 13.2484 36.4529C13.2172 36.484 13.1862 36.5151 13.1551 36.5461C13.1241 36.5772 13.0931 36.6081 13.0622 36.6391C13.0312 36.67 13.0004 36.7009 12.9695 36.7317C12.9387 36.7626 12.9079 36.7934 12.8771 36.8241C12.8464 36.8548 12.8157 36.8855 12.7851 36.9162C12.7544 36.9468 12.7238 36.9774 12.6933 37.0079C12.6628 37.0385 12.6323 37.069 12.6018 37.0994C12.5714 37.1299 12.541 37.1603 12.5107 37.1906C12.4803 37.2209 12.45 37.2512 12.4198 37.2815C12.3895 37.3117 12.3593 37.3419 12.3292 37.372C12.2991 37.4022 12.269 37.4323 12.2389 37.4623C12.2089 37.4924 12.1789 37.5223 12.149 37.5523C12.119 37.5822 12.0891 37.6121 12.0593 37.6419C12.0295 37.6718 11.9997 37.7016 11.97 37.7313C11.9402 37.761 11.9106 37.7907 11.8809 37.8203C11.8513 37.8499 11.8217 37.8795 11.7922 37.909C11.7627 37.9386 11.7332 37.968 11.7038 37.9974C11.6744 38.0269 11.645 38.0562 11.6157 38.0855C11.5864 38.1148 11.5571 38.1441 11.5279 38.1733C11.4987 38.2025 11.4696 38.2317 11.4405 38.2608C11.4114 38.2899 11.3823 38.3189 11.3534 38.3479C11.3244 38.3769 11.2954 38.4058 11.2665 38.4347C11.2377 38.4636 11.2088 38.4924 11.1801 38.5212C11.1513 38.55 11.1226 38.5787 11.0939 38.6074C11.0652 38.636 11.0366 38.6646 11.0081 38.6932C10.9795 38.7217 10.951 38.7502 10.9226 38.7787C10.8941 38.8071 10.8657 38.8355 10.8374 38.8639C10.8091 38.8922 10.7808 38.9205 10.7526 38.9487C10.7243 38.9769 10.6962 39.0051 10.6681 39.0332C10.6399 39.0613 10.6119 39.0894 10.5839 39.1174C10.5559 39.1454 10.5279 39.1733 10.5001 39.2012C10.4722 39.2291 10.4443 39.2569 10.4166 39.2847C10.3888 39.3125 10.3611 39.3402 10.3334 39.3678C10.3058 39.3955 10.2782 39.4231 10.2506 39.4506C10.2231 39.4782 10.1956 39.5057 10.1681 39.5331C10.1407 39.5605 10.1133 39.5879 10.086 39.6152C10.0587 39.6425 10.0315 39.6698 10.0043 39.697C9.97706 39.7242 9.94992 39.7513 9.92284 39.7784C9.89576 39.8055 9.86874 39.8325 9.84177 39.8595C9.81481 39.8864 9.78791 39.9133 9.76106 39.9402C9.73421 39.967 9.70743 39.9938 9.6807 40.0206C9.65397 40.0473 9.6273 40.0739 9.60069 40.1006C9.57409 40.1272 9.54754 40.1537 9.52105 40.1802C9.49456 40.2067 9.46813 40.2331 9.44176 40.2595C9.41539 40.2859 9.38908 40.3122 9.36283 40.3384C9.33659 40.3647 9.3104 40.3909 9.28427 40.417C9.25814 40.4431 9.23208 40.4692 9.20607 40.4952C9.18007 40.5212 9.15412 40.5471 9.12824 40.573C9.10235 40.5989 9.07653 40.6247 9.05077 40.6505C9.02501 40.6762 8.99931 40.7019 8.97368 40.7276C8.94804 40.7532 8.92247 40.7788 8.89695 40.8043C8.87144 40.8298 8.84599 40.8553 8.8206 40.8807C8.79521 40.906 8.76989 40.9314 8.74462 40.9566C8.71936 40.9819 8.69416 41.0071 8.66902 41.0322C8.64388 41.0574 8.61881 41.0824 8.5938 41.1075C8.56879 41.1325 8.54384 41.1574 8.51895 41.1823C8.49407 41.2072 8.46925 41.232 8.44449 41.2568C8.41973 41.2815 8.39504 41.3062 8.37041 41.3308C8.34578 41.3555 8.32122 41.38 8.29671 41.4045C8.27221 41.429 8.24778 41.4535 8.2234 41.4778C8.19903 41.5022 8.17472 41.5265 8.15048 41.5508C8.12624 41.575 8.10206 41.5992 8.07795 41.6233C8.05384 41.6474 8.02979 41.6715 8.00581 41.6954C7.98183 41.7194 7.95791 41.7433 7.93406 41.7672C7.91021 41.791 7.88642 41.8148 7.8627 41.8385C7.83899 41.8623 7.81533 41.8859 7.79175 41.9095C7.76816 41.9331 7.74464 41.9566 7.72119 41.9801C7.69773 42.0035 7.67434 42.0269 7.65102 42.0502C7.6277 42.0735 7.60445 42.0968 7.58126 42.12C7.55808 42.1432 7.53496 42.1663 7.51191 42.1893C7.48886 42.2124 7.46587 42.2354 7.44295 42.2583C7.42004 42.2812 7.39719 42.3041 7.37441 42.3268C7.35163 42.3496 7.32891 42.3723 7.30627 42.395C7.28362 42.4176 7.26105 42.4402 7.23854 42.4627C7.21603 42.4852 7.19359 42.5077 7.17122 42.53C7.14885 42.5524 7.12655 42.5747 7.10432 42.5969C7.08208 42.6192 7.05992 42.6413 7.03782 42.6634C7.01573 42.6855 6.9937 42.7075 6.97175 42.7295C6.94979 42.7515 6.92791 42.7733 6.90609 42.7952C6.88428 42.817 6.86253 42.8387 6.84085 42.8604C6.81918 42.8821 6.79757 42.9037 6.77604 42.9252C6.7545 42.9468 6.73304 42.9682 6.71164 42.9896C6.69025 43.011 6.66892 43.0323 6.64767 43.0536C6.62642 43.0748 6.60524 43.096 6.58413 43.1171C6.56302 43.1382 6.54198 43.1593 6.52101 43.1802C6.50005 43.2012 6.47915 43.2221 6.45833 43.2429C6.4375 43.2637 6.41675 43.2845 6.39607 43.3052C6.37539 43.3259 6.35478 43.3465 6.33425 43.367C6.31371 43.3875 6.29325 43.408 6.27286 43.4284C6.25247 43.4488 6.23215 43.4691 6.21191 43.4893C6.19166 43.5096 6.17149 43.5298 6.15139 43.5499C6.1313 43.57 6.11127 43.59 6.09132 43.6099C6.07137 43.6299 6.05149 43.6498 6.03169 43.6696C6.01188 43.6894 5.99215 43.7091 5.97249 43.7288C5.95284 43.7484 5.93326 43.768 5.91375 43.7875C5.89424 43.807 5.87481 43.8264 5.85545 43.8458C5.83609 43.8652 5.8168 43.8844 5.79759 43.9037C5.77839 43.9229 5.75925 43.942 5.74019 43.9611C5.72113 43.9801 5.70215 43.9991 5.68324 44.018C5.66433 44.0369 5.6455 44.0558 5.62674 44.0745C5.60798 44.0933 5.5893 44.112 5.57069 44.1306C5.55209 44.1492 5.53356 44.1677 5.51511 44.1861C5.49665 44.2046 5.47828 44.223 5.45997 44.2413C5.44167 44.2596 5.42345 44.2778 5.4053 44.2959C5.38716 44.3141 5.36909 44.3322 5.35109 44.3502C5.3331 44.3682 5.31518 44.3861 5.29734 44.4039C5.27951 44.4217 5.26174 44.4395 5.24406 44.4572C5.22638 44.4749 5.20877 44.4925 5.19124 44.51C5.17372 44.5275 5.15627 44.545 5.13889 44.5624C5.12152 44.5797 5.10423 44.597 5.08701 44.6142C5.0698 44.6315 5.05266 44.6486 5.0356 44.6656C5.01855 44.6827 5.00157 44.6997 4.98467 44.7166C4.96777 44.7335 4.95095 44.7503 4.93421 44.767C4.91746 44.7838 4.9008 44.8004 4.88422 44.817C4.86764 44.8336 4.85113 44.8501 4.83471 44.8665C4.81829 44.883 4.80195 44.8993 4.78568 44.9156C4.76942 44.9318 4.75324 44.948 4.73714 44.9641C4.72103 44.9802 4.70501 44.9962 4.68907 45.0122C4.67313 45.0281 4.65727 45.044 4.64149 45.0598C4.62571 45.0755 4.61001 45.0912 4.5944 45.1069C4.57878 45.1225 4.56324 45.138 4.54779 45.1535C4.53234 45.1689 4.51696 45.1843 4.50167 45.1996C4.48638 45.2149 4.47117 45.2301 4.45605 45.2452C4.44092 45.2603 4.42587 45.2754 4.41091 45.2903C4.39595 45.3053 4.38107 45.3202 4.36627 45.335C4.35148 45.3498 4.33676 45.3645 4.32213 45.3791C4.3075 45.3938 4.29295 45.4083 4.27849 45.4228C4.26402 45.4372 4.24964 45.4516 4.23534 45.4659C4.22104 45.4802 4.20683 45.4944 4.1927 45.5086C4.17856 45.5227 4.16452 45.5367 4.15055 45.5507C4.13659 45.5647 4.12271 45.5785 4.10892 45.5923C4.09512 45.6061 4.08141 45.6198 4.06778 45.6335C4.05416 45.6471 4.04062 45.6606 4.02716 45.6741C4.01371 45.6875 4.00033 45.7009 3.98705 45.7142C3.97376 45.7275 3.96056 45.7407 3.94744 45.7538C3.93433 45.7669 3.9213 45.78 3.90835 45.7929C3.89541 45.8058 3.88255 45.8187 3.86978 45.8315C3.85701 45.8442 3.84432 45.8569 3.83172 45.8695C3.81912 45.8821 3.8066 45.8946 3.79418 45.9071C3.78175 45.9195 3.76941 45.9318 3.75715 45.9441C3.7449 45.9564 3.73273 45.9685 3.72065 45.9806C3.70857 45.9927 3.69658 46.0047 3.68467 46.0166C3.67277 46.0285 3.66095 46.0403 3.64922 46.052C3.63749 46.0638 3.62585 46.0754 3.61429 46.087C3.60274 46.0985 3.59127 46.11 3.57989 46.1214C3.56851 46.1327 3.55722 46.144 3.54602 46.1552C3.53482 46.1664 3.5237 46.1775 3.51268 46.1886C3.50165 46.1996 3.49072 46.2105 3.47987 46.2214C3.46902 46.2322 3.45827 46.243 3.4476 46.2537C3.43693 46.2643 3.42635 46.2749 3.41586 46.2854C3.40537 46.2959 3.39497 46.3063 3.38466 46.3166C3.37435 46.3269 3.36413 46.3371 3.354 46.3472C3.34387 46.3574 3.33383 46.3674 3.32388 46.3774C3.31394 46.3873 3.30408 46.3972 3.29431 46.4069C3.28454 46.4167 3.27486 46.4264 3.26528 46.436C3.25569 46.4456 3.2462 46.4551 3.23679 46.4645C3.22739 46.4739 3.21808 46.4832 3.20885 46.4924C3.19963 46.5016 3.1905 46.5107 3.18147 46.5198C3.17243 46.5288 3.16348 46.5378 3.15463 46.5466C3.14578 46.5555 3.13701 46.5642 3.12834 46.5729C3.11968 46.5816 3.1111 46.5902 3.10261 46.5986C3.09413 46.6071 3.08574 46.6155 3.07744 46.6238C3.06914 46.6321 3.06094 46.6403 3.05282 46.6484C3.04471 46.6565 3.03669 46.6646 3.02877 46.6725C3.02084 46.6804 3.01301 46.6882 3.00527 46.696C2.99753 46.7037 2.98989 46.7114 2.98234 46.7189C2.97479 46.7265 2.96733 46.7339 2.95997 46.7413C2.95261 46.7486 2.94534 46.7559 2.93817 46.7631C2.931 46.7703 2.92392 46.7773 2.91693 46.7843C2.90995 46.7913 2.90306 46.7982 2.89627 46.805C2.88948 46.8118 2.88278 46.8185 2.87617 46.8251C2.86957 46.8317 2.86306 46.8382 2.85665 46.8446C2.85024 46.851 2.84393 46.8573 2.83771 46.8635C2.83149 46.8698 2.82536 46.8759 2.81934 46.8819C2.81331 46.8879 2.80738 46.8939 2.80154 46.8997C2.79571 46.9055 2.78997 46.9113 2.78433 46.9169C2.77869 46.9226 2.77314 46.9281 2.7677 46.9336C2.76225 46.939 2.7569 46.9444 2.75165 46.9496C2.74639 46.9549 2.74124 46.96 2.73618 46.9651C2.73112 46.9701 2.72616 46.9751 2.7213 46.98C2.71644 46.9848 2.71168 46.9896 2.70701 46.9942C2.70234 46.9989 2.69778 47.0035 2.69331 47.0079C2.68884 47.0124 2.68447 47.0168 2.6802 47.0211C2.67592 47.0253 2.67175 47.0295 2.66768 47.0336C2.6636 47.0376 2.65963 47.0416 2.65575 47.0455C2.65188 47.0494 2.6481 47.0531 2.64443 47.0568C2.64075 47.0605 2.63717 47.0641 2.6337 47.0676C2.63022 47.071 2.62684 47.0744 2.62356 47.0777C2.62029 47.081 2.61711 47.0841 2.61404 47.0872C2.61096 47.0903 2.60798 47.0933 2.60511 47.0961C2.60223 47.099 2.59946 47.1018 2.59679 47.1045C2.59411 47.1071 2.59154 47.1097 2.58907 47.1122C2.5866 47.1147 2.58423 47.117 2.58196 47.1193C2.57969 47.1216 2.57753 47.1237 2.57546 47.1258C2.5734 47.1279 2.57143 47.1298 2.56957 47.1317C2.56771 47.1335 2.56595 47.1353 2.5643 47.137C2.56264 47.1386 2.56109 47.1402 2.55964 47.1416C2.55818 47.1431 2.55684 47.1444 2.55559 47.1457C2.55435 47.1469 2.5532 47.148 2.55216 47.1491C2.55112 47.1501 2.55019 47.1511 2.54936 47.1519C2.54852 47.1527 2.54779 47.1535 2.54717 47.1541C2.54654 47.1547 2.54602 47.1552 2.5456 47.1556C2.54519 47.1561 2.54487 47.1564 2.54467 47.1566C2.54446 47.1568 2.54435 47.1569 4.31212 48.9247Z" fill="#FF7C7C"/>
</svg>
