<svg width="51" height="51" viewBox="0 0 51 51" fill="none" xmlns="http://www.w3.org/2000/svg">
<path d="M25.2411 50.1583C39.0483 50.1583 50.2411 38.9654 50.2411 25.1583C50.2411 11.3511 39.0483 0.158264 25.2411 0.158264C11.434 0.158264 0.24115 11.3511 0.24115 25.1583C0.24115 38.9654 11.434 50.1583 25.2411 50.1583Z" fill="#663399"/>
<path d="M11.3126 39.0868C7.56255 35.3368 5.59827 30.3368 5.59827 25.5154L25.0626 44.8011C20.0626 44.6226 15.0626 42.8368 11.3126 39.0868ZM29.5268 44.2654L6.13398 20.8726C8.09827 12.1226 15.9554 5.51541 25.2411 5.51541C31.8483 5.51541 37.5626 8.7297 41.134 13.5511L38.4554 15.8726C35.4197 11.7654 30.5983 9.08684 25.2411 9.08684C18.2768 9.08684 12.384 13.5511 10.0626 19.8011L30.5983 40.3368C35.7768 38.5511 39.7054 34.0868 40.9554 28.7297H32.384V25.1583H44.884C44.884 34.444 38.2768 42.3011 29.5268 44.2654Z" fill="white"/>
</svg>
