<svg width="114" height="25" viewBox="0 0 114 25" fill="none" xmlns="http://www.w3.org/2000/svg">
<rect x="1.24106" y="0.390198" width="112" height="23.607" rx="11.8035" fill="#2A2B2E" stroke="#F5F5F5" stroke-width="0.5"/>
<path d="M13.6512 15.2936C12.9978 15.2936 12.4278 15.0403 11.9411 14.5336V14.7936C11.9411 14.9203 11.8945 15.027 11.8011 15.1136C11.7145 15.2003 11.6078 15.2436 11.4811 15.2436C11.3545 15.2436 11.2478 15.2003 11.1611 15.1136C11.0745 15.027 11.0311 14.9203 11.0311 14.7936V8.30363C11.0311 8.17696 11.0745 8.07029 11.1611 7.98363C11.2478 7.89029 11.3545 7.84363 11.4811 7.84363C11.6145 7.84363 11.7245 7.88696 11.8111 7.97363C11.8978 8.06029 11.9411 8.17029 11.9411 8.30363V10.7536C12.4278 10.247 12.9978 9.99363 13.6512 9.99363C14.0645 9.99363 14.4545 10.1003 14.8212 10.3136C15.1945 10.5203 15.4945 10.827 15.7212 11.2336C15.9545 11.6336 16.0711 12.1036 16.0711 12.6436C16.0711 13.1836 15.9545 13.657 15.7212 14.0636C15.4945 14.4636 15.1945 14.7703 14.8212 14.9836C14.4545 15.1903 14.0645 15.2936 13.6512 15.2936ZM13.5211 14.4436C14.0145 14.4436 14.4112 14.287 14.7112 13.9736C15.0112 13.6603 15.1612 13.217 15.1612 12.6436C15.1612 12.0703 15.0112 11.627 14.7112 11.3136C14.4112 11.0003 14.0145 10.8436 13.5211 10.8436C13.2145 10.8436 12.9245 10.9136 12.6512 11.0536C12.3845 11.187 12.1478 11.367 11.9411 11.5936V13.6936C12.1478 13.9203 12.3845 14.1036 12.6512 14.2436C12.9245 14.377 13.2145 14.4436 13.5211 14.4436ZM17.7897 15.2436C17.6631 15.2436 17.5564 15.2003 17.4697 15.1136C17.3831 15.027 17.3397 14.9203 17.3397 14.7936V8.30363C17.3397 8.17696 17.3831 8.07029 17.4697 7.98363C17.5564 7.89029 17.6631 7.84363 17.7897 7.84363C17.9231 7.84363 18.0331 7.88696 18.1197 7.97363C18.2064 8.06029 18.2497 8.17029 18.2497 8.30363V14.7936C18.2497 14.9203 18.2031 15.027 18.1097 15.1136C18.0231 15.2003 17.9164 15.2436 17.7897 15.2436ZM22.08 15.2936C21.5666 15.2936 21.1166 15.1836 20.73 14.9636C20.3433 14.7436 20.0433 14.4336 19.83 14.0336C19.6233 13.627 19.52 13.1636 19.52 12.6436C19.52 12.1236 19.6233 11.6636 19.83 11.2636C20.0433 10.857 20.3433 10.5436 20.73 10.3236C21.1166 10.1036 21.5666 9.99363 22.08 9.99363C22.5866 9.99363 23.0333 10.1036 23.42 10.3236C23.8066 10.5436 24.1066 10.857 24.32 11.2636C24.5333 11.6636 24.64 12.1236 24.64 12.6436C24.64 13.1636 24.5333 13.627 24.32 14.0336C24.1066 14.4336 23.8066 14.7436 23.42 14.9636C23.0333 15.1836 22.5866 15.2936 22.08 15.2936ZM22.08 14.4636C22.3533 14.4636 22.6133 14.4003 22.86 14.2736C23.1133 14.147 23.32 13.947 23.48 13.6736C23.6466 13.4003 23.73 13.0536 23.73 12.6336C23.73 12.2203 23.6466 11.877 23.48 11.6036C23.32 11.3303 23.1133 11.1336 22.86 11.0136C22.6133 10.887 22.3533 10.8236 22.08 10.8236C21.8 10.8236 21.5333 10.887 21.28 11.0136C21.0333 11.1336 20.83 11.3303 20.67 11.6036C20.51 11.877 20.43 12.2203 20.43 12.6336C20.43 13.0536 20.51 13.4003 20.67 13.6736C20.83 13.947 21.0333 14.147 21.28 14.2736C21.5333 14.4003 21.8 14.4636 22.08 14.4636ZM28.294 17.5936C27.9073 17.5936 27.5173 17.5436 27.124 17.4436C26.7306 17.3436 26.4073 17.2203 26.154 17.0736C26.034 17.0003 25.974 16.8836 25.974 16.7236C25.974 16.617 26.0106 16.5203 26.084 16.4336C26.164 16.3536 26.2606 16.3136 26.374 16.3136C26.4273 16.3136 26.4873 16.327 26.554 16.3536C27.0606 16.607 27.6106 16.7336 28.204 16.7336C29.224 16.7336 29.734 16.1903 29.734 15.1036V14.4336C29.2606 14.9403 28.6906 15.1936 28.024 15.1936C27.6306 15.1936 27.2473 15.097 26.874 14.9036C26.5073 14.7036 26.204 14.4103 25.964 14.0236C25.724 13.6303 25.604 13.1536 25.604 12.5936C25.604 12.0336 25.724 11.5603 25.964 11.1736C26.204 10.7803 26.5073 10.487 26.874 10.2936C27.2473 10.0936 27.6306 9.99363 28.024 9.99363C28.6906 9.99363 29.2606 10.247 29.734 10.7536V10.5036C29.734 10.377 29.7773 10.2703 29.864 10.1836C29.9506 10.0903 30.0573 10.0436 30.184 10.0436C30.3106 10.0436 30.4173 10.0903 30.504 10.1836C30.5973 10.2703 30.644 10.377 30.644 10.5036V14.9736C30.644 15.8136 30.4406 16.4603 30.034 16.9136C29.6273 17.367 29.0473 17.5936 28.294 17.5936ZM28.214 14.3636C28.5273 14.3636 28.804 14.297 29.044 14.1636C29.284 14.0303 29.514 13.8503 29.734 13.6236V11.5636C29.514 11.337 29.284 11.157 29.044 11.0236C28.804 10.8903 28.5273 10.8236 28.214 10.8236C27.714 10.8236 27.304 10.977 26.984 11.2836C26.6706 11.5836 26.514 12.0203 26.514 12.5936C26.514 13.167 26.6706 13.607 26.984 13.9136C27.304 14.2136 27.714 14.3636 28.214 14.3636ZM35.2702 15.2436C35.1435 15.2436 35.0369 15.2003 34.9502 15.1136C34.8635 15.027 34.8202 14.9203 34.8202 14.7936V8.30363C34.8202 8.17696 34.8635 8.07029 34.9502 7.98363C35.0369 7.89029 35.1435 7.84363 35.2702 7.84363C35.3969 7.84363 35.5035 7.89029 35.5902 7.98363C35.6835 8.07029 35.7302 8.17696 35.7302 8.30363V12.3936L38.1102 10.1936C38.2102 10.107 38.3102 10.0636 38.4102 10.0636C38.5635 10.0636 38.6735 10.107 38.7402 10.1936C38.8135 10.2803 38.8502 10.3836 38.8502 10.5036C38.8502 10.617 38.7935 10.7303 38.6802 10.8436L37.2402 12.1336L39.0502 14.5336C39.1169 14.6203 39.1502 14.7103 39.1502 14.8036C39.1502 14.937 39.1069 15.0436 39.0202 15.1236C38.9335 15.2036 38.8235 15.2436 38.6902 15.2436C38.6235 15.2436 38.5569 15.227 38.4902 15.1936C38.4235 15.1603 38.3669 15.1136 38.3202 15.0536L36.6002 12.7136L35.7302 13.5036V14.7936C35.7302 14.9203 35.6835 15.027 35.5902 15.1136C35.5035 15.2003 35.3969 15.2436 35.2702 15.2436ZM41.4718 15.2936C41.1784 15.2936 40.9051 15.2336 40.6518 15.1136C40.4051 14.9936 40.2084 14.8203 40.0618 14.5936C39.9151 14.3603 39.8418 14.0936 39.8418 13.7936C39.8418 13.3003 40.0351 12.907 40.4218 12.6136C40.8151 12.3203 41.3884 12.1736 42.1418 12.1736H43.3518V12.0936C43.3518 11.6536 43.2418 11.337 43.0218 11.1436C42.8084 10.9503 42.4718 10.8536 42.0118 10.8536C41.7584 10.8536 41.5318 10.8736 41.3318 10.9136C41.1384 10.9536 40.9218 11.0136 40.6818 11.0936C40.6284 11.107 40.5851 11.1136 40.5518 11.1136C40.4518 11.1136 40.3651 11.077 40.2918 11.0036C40.2184 10.9303 40.1818 10.8403 40.1818 10.7336C40.1818 10.5536 40.2684 10.427 40.4418 10.3536C41.0084 10.1136 41.5851 9.99363 42.1718 9.99363C42.6318 9.99363 43.0184 10.087 43.3318 10.2736C43.6518 10.4603 43.8851 10.7036 44.0318 11.0036C44.1851 11.297 44.2618 11.617 44.2618 11.9636V14.7936C44.2618 14.9203 44.2151 15.027 44.1218 15.1136C44.0351 15.2003 43.9284 15.2436 43.8018 15.2436C43.6751 15.2436 43.5684 15.2003 43.4818 15.1136C43.3951 15.027 43.3518 14.9203 43.3518 14.7936V14.5336C42.8584 15.0403 42.2318 15.2936 41.4718 15.2936ZM41.8118 14.4936C42.1051 14.4936 42.3884 14.4236 42.6618 14.2836C42.9351 14.137 43.1651 13.957 43.3518 13.7436V12.9036H42.2618C41.2551 12.9036 40.7518 13.167 40.7518 13.6936C40.7518 13.9336 40.8318 14.127 40.9918 14.2736C41.1584 14.4203 41.4318 14.4936 41.8118 14.4936ZM46.237 15.2436C46.1103 15.2436 46.0037 15.2003 45.917 15.1136C45.8303 15.027 45.787 14.9203 45.787 14.7936V10.5036C45.787 10.377 45.8303 10.2703 45.917 10.1836C46.0037 10.0903 46.1103 10.0436 46.237 10.0436C46.3637 10.0436 46.4703 10.0903 46.557 10.1836C46.6503 10.2703 46.697 10.377 46.697 10.5036V10.9336C47.1637 10.307 47.687 9.99363 48.267 9.99363H48.317C48.4437 9.99363 48.547 10.037 48.627 10.1236C48.7137 10.2103 48.757 10.317 48.757 10.4436C48.757 10.5703 48.7137 10.6736 48.627 10.7536C48.5403 10.8336 48.4303 10.8736 48.297 10.8736H48.247C47.927 10.8736 47.6337 10.9536 47.367 11.1136C47.1003 11.267 46.877 11.4803 46.697 11.7536V14.7936C46.697 14.9203 46.6503 15.027 46.557 15.1136C46.4703 15.2003 46.3637 15.2436 46.237 15.2436ZM51.7487 15.2936C50.9353 15.2936 50.2986 15.0636 49.8386 14.6036C49.3853 14.137 49.1586 13.4836 49.1586 12.6436C49.1586 12.1703 49.2453 11.7336 49.4186 11.3336C49.592 10.9336 49.8586 10.6103 50.2187 10.3636C50.5786 10.117 51.022 9.99363 51.5486 9.99363C52.042 9.99363 52.4687 10.1103 52.8287 10.3436C53.1887 10.5703 53.462 10.877 53.6486 11.2636C53.8353 11.6436 53.9287 12.0603 53.9287 12.5136C53.9287 12.6403 53.8853 12.747 53.7987 12.8336C53.7186 12.9203 53.6087 12.9636 53.4687 12.9636H50.0786C50.132 13.4303 50.3053 13.7936 50.5986 14.0536C50.892 14.3136 51.302 14.4436 51.8287 14.4436C52.1087 14.4436 52.352 14.417 52.5587 14.3636C52.772 14.3103 52.9787 14.2336 53.1787 14.1336C53.232 14.107 53.292 14.0936 53.3587 14.0936C53.4653 14.0936 53.5587 14.1303 53.6387 14.2036C53.7187 14.277 53.7587 14.3703 53.7587 14.4836C53.7587 14.6303 53.672 14.7536 53.4987 14.8536C53.2387 15.0003 52.982 15.1103 52.7287 15.1836C52.4753 15.257 52.1487 15.2936 51.7487 15.2936ZM53.0287 12.2236C53.0087 11.897 52.922 11.6236 52.7686 11.4036C52.622 11.1836 52.4387 11.0236 52.2186 10.9236C51.9986 10.817 51.7753 10.7636 51.5486 10.7636C51.322 10.7636 51.0987 10.817 50.8787 10.9236C50.6586 11.0236 50.4753 11.1836 50.3286 11.4036C50.182 11.6236 50.0986 11.897 50.0786 12.2236H53.0287ZM55.5827 15.2436C55.456 15.2436 55.3494 15.2003 55.2627 15.1136C55.176 15.027 55.1327 14.9203 55.1327 14.7936V10.5036C55.1327 10.377 55.176 10.2703 55.2627 10.1836C55.3494 10.0903 55.456 10.0436 55.5827 10.0436C55.7094 10.0436 55.816 10.0903 55.9027 10.1836C55.996 10.2703 56.0427 10.377 56.0427 10.5036V10.9136C56.296 10.6336 56.5694 10.4103 56.8627 10.2436C57.156 10.077 57.5027 9.99363 57.9027 9.99363C58.2694 9.99363 58.586 10.0803 58.8527 10.2536C59.126 10.427 59.3327 10.6636 59.4727 10.9636C59.6194 11.2636 59.6927 11.5936 59.6927 11.9536V14.7936C59.6927 14.9203 59.646 15.027 59.5527 15.1136C59.466 15.2003 59.3594 15.2436 59.2327 15.2436C59.106 15.2436 58.9994 15.2003 58.9127 15.1136C58.826 15.027 58.7827 14.9203 58.7827 14.7936V12.0536C58.7827 11.2403 58.416 10.8336 57.6827 10.8336C57.3494 10.8336 57.0494 10.9203 56.7827 11.0936C56.5227 11.267 56.276 11.5003 56.0427 11.7936V14.7936C56.0427 14.9203 55.996 15.027 55.9027 15.1136C55.816 15.2003 55.7094 15.2436 55.5827 15.2436ZM62.2786 17.5436C62.1586 17.5436 62.0552 17.5003 61.9686 17.4136C61.8886 17.327 61.8486 17.2236 61.8486 17.1036C61.8486 17.0503 61.8586 16.997 61.8786 16.9436L62.5286 15.2736L60.6486 10.6936C60.6219 10.627 60.6086 10.5636 60.6086 10.5036C60.6086 10.377 60.6519 10.2703 60.7386 10.1836C60.8252 10.0903 60.9319 10.0436 61.0586 10.0436C61.1519 10.0436 61.2352 10.0703 61.3086 10.1236C61.3886 10.177 61.4452 10.2436 61.4786 10.3236L63.0186 14.1436L64.5886 10.3436C64.6752 10.1436 64.8152 10.0436 65.0086 10.0436C65.1352 10.0436 65.2419 10.0903 65.3286 10.1836C65.4152 10.2703 65.4586 10.377 65.4586 10.5036C65.4586 10.5636 65.4486 10.6203 65.4286 10.6736L62.6986 17.2336C62.6052 17.4403 62.4652 17.5436 62.2786 17.5436ZM66.9397 9.05363C66.7997 9.05363 66.6797 9.00363 66.5797 8.90363C66.4797 8.80363 66.4297 8.68363 66.4297 8.54363V8.50363C66.4297 8.36363 66.4797 8.24363 66.5797 8.14363C66.6797 8.04363 66.7997 7.99363 66.9397 7.99363H66.9997C67.1397 7.99363 67.2597 8.04363 67.3597 8.14363C67.4597 8.24363 67.5097 8.36363 67.5097 8.50363V8.54363C67.5097 8.68363 67.4597 8.80363 67.3597 8.90363C67.2597 9.00363 67.1397 9.05363 66.9997 9.05363H66.9397ZM66.9597 15.2436C66.833 15.2436 66.7263 15.2003 66.6397 15.1136C66.553 15.027 66.5097 14.9203 66.5097 14.7936V10.5036C66.5097 10.377 66.553 10.2703 66.6397 10.1836C66.7263 10.0903 66.833 10.0436 66.9597 10.0436C67.093 10.0436 67.203 10.087 67.2897 10.1736C67.3763 10.2603 67.4197 10.3703 67.4197 10.5036V14.7936C67.4197 14.9203 67.373 15.027 67.2797 15.1136C67.193 15.2003 67.0863 15.2436 66.9597 15.2436ZM69.4499 15.2436C69.3232 15.2436 69.2166 15.2003 69.1299 15.1136C69.0432 15.027 68.9999 14.9203 68.9999 14.7936V10.5036C68.9999 10.377 69.0432 10.2703 69.1299 10.1836C69.2166 10.0903 69.3232 10.0436 69.4499 10.0436C69.5766 10.0436 69.6832 10.0903 69.7699 10.1836C69.8632 10.2703 69.9099 10.377 69.9099 10.5036V10.9136C70.1632 10.6336 70.4366 10.4103 70.7299 10.2436C71.0232 10.077 71.3699 9.99363 71.7699 9.99363C72.1366 9.99363 72.4532 10.0803 72.7199 10.2536C72.9932 10.427 73.1999 10.6636 73.3399 10.9636C73.4866 11.2636 73.5599 11.5936 73.5599 11.9536V14.7936C73.5599 14.9203 73.5132 15.027 73.4199 15.1136C73.3332 15.2003 73.2266 15.2436 73.0999 15.2436C72.9732 15.2436 72.8666 15.2003 72.7799 15.1136C72.6932 15.027 72.6499 14.9203 72.6499 14.7936V12.0536C72.6499 11.2403 72.2832 10.8336 71.5499 10.8336C71.2166 10.8336 70.9166 10.9203 70.6499 11.0936C70.3899 11.267 70.1432 11.5003 69.9099 11.7936V14.7936C69.9099 14.9203 69.8632 15.027 69.7699 15.1136C69.6832 15.2003 69.5766 15.2436 69.4499 15.2436ZM77.4736 17.5936C77.087 17.5936 76.697 17.5436 76.3036 17.4436C75.9103 17.3436 75.587 17.2203 75.3336 17.0736C75.2136 17.0003 75.1536 16.8836 75.1536 16.7236C75.1536 16.617 75.1903 16.5203 75.2636 16.4336C75.3436 16.3536 75.4403 16.3136 75.5536 16.3136C75.607 16.3136 75.667 16.327 75.7336 16.3536C76.2403 16.607 76.7903 16.7336 77.3837 16.7336C78.4037 16.7336 78.9137 16.1903 78.9137 15.1036V14.4336C78.4403 14.9403 77.8703 15.1936 77.2037 15.1936C76.8103 15.1936 76.427 15.097 76.0537 14.9036C75.687 14.7036 75.3836 14.4103 75.1436 14.0236C74.9036 13.6303 74.7836 13.1536 74.7836 12.5936C74.7836 12.0336 74.9036 11.5603 75.1436 11.1736C75.3836 10.7803 75.687 10.487 76.0537 10.2936C76.427 10.0936 76.8103 9.99363 77.2037 9.99363C77.8703 9.99363 78.4403 10.247 78.9137 10.7536V10.5036C78.9137 10.377 78.957 10.2703 79.0437 10.1836C79.1303 10.0903 79.237 10.0436 79.3637 10.0436C79.4903 10.0436 79.597 10.0903 79.6837 10.1836C79.777 10.2703 79.8237 10.377 79.8237 10.5036V14.9736C79.8237 15.8136 79.6203 16.4603 79.2137 16.9136C78.807 17.367 78.227 17.5936 77.4736 17.5936ZM77.3937 14.3636C77.707 14.3636 77.9837 14.297 78.2237 14.1636C78.4637 14.0303 78.6937 13.8503 78.9137 13.6236V11.5636C78.6937 11.337 78.4637 11.157 78.2237 11.0236C77.9837 10.8903 77.707 10.8236 77.3937 10.8236C76.8937 10.8236 76.4836 10.977 76.1636 11.2836C75.8503 11.5836 75.6937 12.0203 75.6937 12.5936C75.6937 13.167 75.8503 13.607 76.1636 13.9136C76.4836 14.2136 76.8937 14.3636 77.3937 14.3636ZM86.3599 15.2936C85.8799 15.2936 85.4366 15.187 85.0299 14.9736C84.6232 14.7603 84.2966 14.4536 84.0499 14.0536C83.8099 13.6536 83.6899 13.1836 83.6899 12.6436C83.6899 12.1036 83.8099 11.6336 84.0499 11.2336C84.2966 10.8336 84.6232 10.527 85.0299 10.3136C85.4366 10.1003 85.8799 9.99363 86.3599 9.99363C86.7132 9.99363 87.0166 10.0403 87.2699 10.1336C87.5299 10.2203 87.7699 10.3336 87.9899 10.4736C88.1232 10.5603 88.1899 10.677 88.1899 10.8236C88.1899 10.9236 88.1499 11.017 88.0699 11.1036C87.9966 11.1836 87.9099 11.2236 87.8099 11.2236C87.7366 11.2236 87.6632 11.2036 87.5899 11.1636C87.3699 11.0503 87.1799 10.9703 87.0199 10.9236C86.8666 10.8703 86.6732 10.8436 86.4399 10.8436C85.8666 10.8436 85.4166 11.0103 85.0899 11.3436C84.7632 11.6703 84.5999 12.1036 84.5999 12.6436C84.5999 13.1836 84.7632 13.6203 85.0899 13.9536C85.4166 14.2803 85.8666 14.4436 86.4399 14.4436C86.6732 14.4436 86.8666 14.4203 87.0199 14.3736C87.1799 14.3203 87.3699 14.237 87.5899 14.1236C87.6632 14.0836 87.7366 14.0636 87.8099 14.0636C87.9099 14.0636 87.9966 14.107 88.0699 14.1936C88.1499 14.2736 88.1899 14.3636 88.1899 14.4636C88.1899 14.6103 88.1232 14.727 87.9899 14.8136C87.7699 14.9536 87.5299 15.0703 87.2699 15.1636C87.0166 15.2503 86.7132 15.2936 86.3599 15.2936ZM91.5429 15.2936C91.0295 15.2936 90.5795 15.1836 90.1929 14.9636C89.8062 14.7436 89.5062 14.4336 89.2929 14.0336C89.0862 13.627 88.9829 13.1636 88.9829 12.6436C88.9829 12.1236 89.0862 11.6636 89.2929 11.2636C89.5062 10.857 89.8062 10.5436 90.1929 10.3236C90.5795 10.1036 91.0295 9.99363 91.5429 9.99363C92.0495 9.99363 92.4962 10.1036 92.8829 10.3236C93.2695 10.5436 93.5695 10.857 93.7829 11.2636C93.9962 11.6636 94.1029 12.1236 94.1029 12.6436C94.1029 13.1636 93.9962 13.627 93.7829 14.0336C93.5695 14.4336 93.2695 14.7436 92.8829 14.9636C92.4962 15.1836 92.0495 15.2936 91.5429 15.2936ZM91.5429 14.4636C91.8162 14.4636 92.0762 14.4003 92.3229 14.2736C92.5762 14.147 92.7829 13.947 92.9429 13.6736C93.1095 13.4003 93.1929 13.0536 93.1929 12.6336C93.1929 12.2203 93.1095 11.877 92.9429 11.6036C92.7829 11.3303 92.5762 11.1336 92.3229 11.0136C92.0762 10.887 91.8162 10.8236 91.5429 10.8236C91.2629 10.8236 90.9962 10.887 90.7429 11.0136C90.4962 11.1336 90.2929 11.3303 90.1329 11.6036C89.9729 11.877 89.8929 12.2203 89.8929 12.6336C89.8929 13.0536 89.9729 13.4003 90.1329 13.6736C90.2929 13.947 90.4962 14.147 90.7429 14.2736C90.9962 14.4003 91.2629 14.4636 91.5429 14.4636ZM95.8269 15.2436C95.7002 15.2436 95.5935 15.2003 95.5069 15.1136C95.4202 15.027 95.3769 14.9203 95.3769 14.7936V10.5036C95.3769 10.377 95.4202 10.2703 95.5069 10.1836C95.5935 10.0903 95.7002 10.0436 95.8269 10.0436C95.9535 10.0436 96.0602 10.0903 96.1469 10.1836C96.2402 10.2703 96.2869 10.377 96.2869 10.5036V10.9136C96.4735 10.647 96.6969 10.427 96.9569 10.2536C97.2235 10.0803 97.5669 9.99363 97.9869 9.99363C98.3602 9.99363 98.6802 10.0936 98.9469 10.2936C99.2135 10.4936 99.4035 10.737 99.5169 11.0236C99.9302 10.337 100.544 9.99363 101.357 9.99363C101.73 9.99363 102.04 10.087 102.287 10.2736C102.54 10.4603 102.727 10.7003 102.847 10.9936C102.967 11.287 103.027 11.5936 103.027 11.9136V14.7936C103.027 14.9203 102.98 15.027 102.887 15.1136C102.8 15.2003 102.694 15.2436 102.567 15.2436C102.44 15.2436 102.334 15.2003 102.247 15.1136C102.16 15.027 102.117 14.9203 102.117 14.7936V12.0936C102.117 11.6603 102.04 11.3436 101.887 11.1436C101.734 10.937 101.47 10.8336 101.097 10.8336C100.757 10.8336 100.474 10.9236 100.247 11.1036C100.027 11.277 99.8302 11.507 99.6569 11.7936V14.7936C99.6569 14.9203 99.6102 15.027 99.5169 15.1136C99.4302 15.2003 99.3235 15.2436 99.1969 15.2436C99.0702 15.2436 98.9635 15.2003 98.8769 15.1136C98.7902 15.027 98.7469 14.9203 98.7469 14.7936V12.0936C98.7469 11.6603 98.6702 11.3436 98.5169 11.1436C98.3635 10.937 98.1002 10.8336 97.7269 10.8336C97.3869 10.8336 97.1035 10.9236 96.8769 11.1036C96.6569 11.277 96.4602 11.507 96.2869 11.7936V14.7936C96.2869 14.9203 96.2402 15.027 96.1469 15.1136C96.0602 15.2003 95.9535 15.2436 95.8269 15.2436Z" fill="#F5F5F5"/>
<path d="M32.6826 15.2236C32.5292 15.2236 32.3959 15.1703 32.2826 15.0636C32.1759 14.9503 32.1226 14.817 32.1226 14.6636V14.6036C32.1226 14.4503 32.1759 14.3203 32.2826 14.2136C32.3959 14.1003 32.5292 14.0436 32.6826 14.0436H32.7826C32.9359 14.0436 33.0659 14.1003 33.1726 14.2136C33.2859 14.3203 33.3426 14.4503 33.3426 14.6036V14.6636C33.3426 14.817 33.2859 14.9503 33.1726 15.0636C33.0659 15.1703 32.9359 15.2236 32.7826 15.2236H32.6826Z" fill="#FF7C7C"/>
<path d="M81.8622 15.2236C81.7089 15.2236 81.5756 15.1703 81.4622 15.0636C81.3556 14.9503 81.3022 14.817 81.3022 14.6636V14.6036C81.3022 14.4503 81.3556 14.3203 81.4622 14.2136C81.5756 14.1003 81.7089 14.0436 81.8622 14.0436H81.9622C82.1156 14.0436 82.2456 14.1003 82.3522 14.2136C82.4656 14.3203 82.5222 14.4503 82.5222 14.6036V14.6636C82.5222 14.817 82.4656 14.9503 82.3522 15.0636C82.2456 15.1703 82.1156 15.2236 81.9622 15.2236H81.8622Z" fill="#8DEAFF"/>
</svg>
