<svg width="100" height="81" viewBox="0 0 100 81" fill="none" xmlns="http://www.w3.org/2000/svg">
<path d="M3.56667 13.9783C2.72667 13.8983 2.04667 13.7649 1.52667 13.5783C1.02 13.3916 0.639998 13.2249 0.386665 13.0783L1.14667 11.1183C1.57333 11.3183 2.07333 11.5049 2.64667 11.6783C3.22 11.8383 3.82667 11.9183 4.46667 11.9183C5.21333 11.9183 5.73333 11.8249 6.02667 11.6383C6.32 11.4383 6.46667 11.1316 6.46667 10.7183C6.46667 10.4783 6.40667 10.2716 6.28667 10.0983C6.18 9.92493 6.01333 9.7716 5.78667 9.63826C5.57333 9.4916 5.30667 9.36493 4.98667 9.25826C4.66667 9.13826 4.30667 9.00493 3.90667 8.85826C3.52 8.72493 3.14 8.5716 2.76667 8.39826C2.39333 8.22493 2.06 8.01826 1.76667 7.77826C1.47333 7.52493 1.23333 7.22493 1.04667 6.87826C0.873332 6.51826 0.786665 6.07826 0.786665 5.55826C0.786665 5.18493 0.833332 4.82493 0.926665 4.47826C1.03333 4.1316 1.19333 3.8116 1.40667 3.51826C1.63333 3.22493 1.92667 2.9716 2.28667 2.75826C2.64667 2.5316 3.08667 2.35826 3.60667 2.23826V0.298264H5.88667V2.13826C6.5 2.1916 7.04 2.28493 7.50667 2.41826C7.98667 2.5516 8.36 2.6716 8.62667 2.77826L8.06667 4.83826C7.68 4.67826 7.22 4.53826 6.68667 4.41826C6.16667 4.28493 5.62667 4.21826 5.06667 4.21826C4.42667 4.21826 3.98 4.3316 3.72667 4.55826C3.48667 4.78493 3.36667 5.0516 3.36667 5.35826C3.36667 5.5716 3.40667 5.7516 3.48667 5.89826C3.58 6.0316 3.71333 6.1516 3.88667 6.25826C4.07333 6.36493 4.29333 6.4716 4.54667 6.57826C4.8 6.6716 5.1 6.77826 5.44667 6.89826C5.96667 7.09826 6.44667 7.3116 6.88667 7.53826C7.32667 7.7516 7.70667 8.00493 8.02667 8.29826C8.34667 8.57826 8.59333 8.9116 8.76667 9.29826C8.95333 9.68493 9.04667 10.1383 9.04667 10.6583C9.04667 11.0183 8.99333 11.3783 8.88667 11.7383C8.78 12.0849 8.6 12.4116 8.34667 12.7183C8.10667 13.0116 7.78 13.2716 7.36667 13.4983C6.96667 13.7116 6.46 13.8649 5.84667 13.9583V16.0983H3.56667V13.9783Z" fill="#8DEAFF"/>
<path d="M25.3867 2.05826C25.3867 2.53826 25.2333 2.91826 24.9267 3.19826C24.62 3.47826 24.2533 3.61826 23.8267 3.61826C23.4 3.61826 23.0333 3.47826 22.7267 3.19826C22.4333 2.91826 22.2867 2.53826 22.2867 2.05826C22.2867 1.56493 22.4333 1.17826 22.7267 0.898263C23.0333 0.618264 23.4 0.478264 23.8267 0.478264C24.2533 0.478264 24.62 0.618264 24.9267 0.898263C25.2333 1.17826 25.3867 1.56493 25.3867 2.05826ZM29.0467 13.7583C28.54 13.9983 28.06 14.1583 27.6067 14.2383C27.1667 14.3316 26.76 14.3783 26.3867 14.3783C25.7467 14.3783 25.2067 14.2849 24.7667 14.0983C24.34 13.9116 23.9933 13.6449 23.7267 13.2983C23.4733 12.9383 23.2933 12.5049 23.1867 11.9983C23.08 11.4916 23.0267 10.9116 23.0267 10.2583V6.79826H20.4267V4.75826H25.4867V10.5783C25.4867 11.1383 25.5867 11.5583 25.7867 11.8383C26 12.1049 26.3467 12.2383 26.8267 12.2383C27.0533 12.2383 27.3267 12.2116 27.6467 12.1583C27.9667 12.0916 28.3267 11.9649 28.7267 11.7783L29.0467 13.7583ZM34.2667 12.2983C34.8667 12.2983 35.3267 12.2583 35.6467 12.1783C35.9667 12.0849 36.1267 11.9049 36.1267 11.6383C36.1267 11.4649 36.0733 11.3183 35.9667 11.1983C35.8733 11.0783 35.7333 10.9783 35.5467 10.8983C35.3733 10.8049 35.1667 10.7183 34.9267 10.6383C34.7 10.5583 34.46 10.4783 34.2067 10.3983C33.8467 10.2916 33.48 10.1716 33.1067 10.0383C32.7333 9.8916 32.3933 9.7116 32.0867 9.49826C31.78 9.28493 31.5267 9.01826 31.3267 8.69826C31.1267 8.36493 31.0267 7.9516 31.0267 7.45826C31.0267 7.05826 31.1 6.68493 31.2467 6.33826C31.4067 5.97826 31.6467 5.66493 31.9667 5.39826C32.3 5.11826 32.72 4.90493 33.2267 4.75826C33.7333 4.59826 34.34 4.51826 35.0467 4.51826C35.66 4.51826 36.2267 4.56493 36.7467 4.65826C37.28 4.7516 37.74 4.88493 38.1267 5.05826L37.7467 7.13826C37.52 7.0716 37.1667 6.96493 36.6867 6.81826C36.2067 6.65826 35.6667 6.57826 35.0667 6.57826C34.44 6.57826 34.0133 6.65826 33.7867 6.81826C33.5733 6.96493 33.4667 7.12493 33.4667 7.29826C33.4667 7.44493 33.5133 7.57826 33.6067 7.69826C33.7133 7.80493 33.8467 7.90493 34.0067 7.99826C34.18 8.0916 34.3733 8.18493 34.5867 8.27826C34.8133 8.35826 35.0533 8.43826 35.3067 8.51826C35.6667 8.63826 36.04 8.7716 36.4267 8.91826C36.8133 9.06493 37.16 9.2516 37.4667 9.47826C37.7867 9.6916 38.0467 9.9716 38.2467 10.3183C38.4467 10.6516 38.5467 11.0649 38.5467 11.5583C38.5467 11.9449 38.4733 12.3116 38.3267 12.6583C38.18 13.0049 37.9333 13.3049 37.5867 13.5583C37.2533 13.8116 36.8133 14.0116 36.2667 14.1583C35.72 14.3049 35.0467 14.3783 34.2467 14.3783C33.4333 14.3783 32.74 14.2849 32.1667 14.0983C31.5933 13.9116 31.1333 13.7449 30.7867 13.5983L31.1667 11.5383C31.6333 11.7249 32.1267 11.8983 32.6467 12.0583C33.18 12.2183 33.72 12.2983 34.2667 12.2983ZM49.1467 9.43826C49.1467 10.1849 49.04 10.8649 48.8267 11.4783C48.6133 12.0783 48.3133 12.5983 47.9267 13.0383C47.54 13.4783 47.0733 13.8183 46.5267 14.0583C45.9933 14.2983 45.3933 14.4183 44.7267 14.4183C44.06 14.4183 43.4533 14.2983 42.9067 14.0583C42.3733 13.8183 41.9067 13.4783 41.5067 13.0383C41.12 12.5983 40.82 12.0783 40.6067 11.4783C40.3933 10.8649 40.2867 10.1849 40.2867 9.43826C40.2867 8.70493 40.3933 8.03826 40.6067 7.43826C40.8333 6.82493 41.14 6.30493 41.5267 5.87826C41.9267 5.43826 42.4 5.10493 42.9467 4.87826C43.4933 4.63826 44.0867 4.51826 44.7267 4.51826C45.38 4.51826 45.9733 4.63826 46.5067 4.87826C47.0533 5.10493 47.52 5.43826 47.9067 5.87826C48.3067 6.30493 48.6133 6.82493 48.8267 7.43826C49.04 8.03826 49.1467 8.70493 49.1467 9.43826ZM42.7867 9.45826C42.7867 10.2983 42.9333 10.9783 43.2267 11.4983C43.5333 12.0183 44.02 12.2783 44.6867 12.2783C45.3267 12.2783 45.8067 12.0183 46.1267 11.4983C46.46 10.9783 46.6267 10.2983 46.6267 9.45826C46.6267 8.61826 46.4733 7.94493 46.1667 7.43826C45.8733 6.91826 45.3933 6.65826 44.7267 6.65826C44.0867 6.65826 43.6 6.91826 43.2667 7.43826C42.9467 7.94493 42.7867 8.61826 42.7867 9.45826ZM49.8667 15.3183H59.5467V17.4583H49.8667V15.3183ZM62.7667 9.39826C62.7667 10.2383 62.92 10.9249 63.2267 11.4583C63.5467 11.9916 64.0533 12.2583 64.7467 12.2583C64.9467 12.2583 65.1333 12.2516 65.3067 12.2383C65.48 12.2249 65.66 12.2049 65.8467 12.1783V7.05826C65.66 6.9516 65.4467 6.86493 65.2067 6.79826C64.9667 6.71826 64.7133 6.67826 64.4467 6.67826C63.86 6.67826 63.4333 6.9116 63.1667 7.37826C62.9 7.84493 62.7667 8.51826 62.7667 9.39826ZM68.3067 13.8783C67.8533 14.0249 67.3 14.1449 66.6467 14.2383C65.9933 14.3316 65.3533 14.3783 64.7267 14.3783C63.26 14.3783 62.1467 13.9449 61.3867 13.0783C60.64 12.2116 60.2667 11.0249 60.2667 9.51826C60.2667 7.98493 60.58 6.77826 61.2067 5.89826C61.8467 5.00493 62.7867 4.55826 64.0267 4.55826C64.36 4.55826 64.6867 4.59826 65.0067 4.67826C65.3267 4.74493 65.6067 4.84493 65.8467 4.97826V0.698263L68.3067 0.278264V13.8783ZM74.7267 12.3983C74.9933 12.3983 75.2533 12.3983 75.5067 12.3983C75.76 12.3849 75.98 12.3649 76.1667 12.3383V10.1783C76.0067 10.1516 75.8133 10.1316 75.5867 10.1183C75.36 10.0916 75.1533 10.0783 74.9667 10.0783C74.7133 10.0783 74.4667 10.0983 74.2267 10.1383C73.9867 10.1649 73.7733 10.2183 73.5867 10.2983C73.4133 10.3783 73.2733 10.4916 73.1667 10.6383C73.06 10.7849 73.0067 10.9783 73.0067 11.2183C73.0067 11.6449 73.1667 11.9516 73.4867 12.1383C73.8067 12.3116 74.22 12.3983 74.7267 12.3983ZM74.5067 4.51826C75.28 4.51826 75.92 4.6116 76.4267 4.79826C76.9467 4.9716 77.36 5.22493 77.6667 5.55826C77.9733 5.87826 78.1933 6.27826 78.3267 6.75826C78.46 7.22493 78.5267 7.7516 78.5267 8.33826V13.9383C78.1667 14.0183 77.6333 14.1116 76.9267 14.2183C76.22 14.3249 75.4267 14.3783 74.5467 14.3783C73.9467 14.3783 73.4 14.3249 72.9067 14.2183C72.4267 14.1116 72.0133 13.9383 71.6667 13.6983C71.32 13.4449 71.0533 13.1249 70.8667 12.7383C70.68 12.3383 70.5867 11.8516 70.5867 11.2783C70.5867 10.7316 70.6933 10.2716 70.9067 9.89826C71.12 9.52493 71.4067 9.22493 71.7667 8.99826C72.1267 8.7716 72.54 8.6116 73.0067 8.51826C73.4733 8.4116 73.96 8.35826 74.4667 8.35826C75.1067 8.35826 75.6733 8.4116 76.1667 8.51826V8.21826C76.1667 7.7516 76.02 7.36493 75.7267 7.05826C75.4333 6.73826 74.9267 6.57826 74.2067 6.57826C73.74 6.57826 73.2867 6.6116 72.8467 6.67826C72.42 6.74493 72.0733 6.82493 71.8067 6.91826L71.4667 4.93826C71.7733 4.8316 72.2067 4.73826 72.7667 4.65826C73.3267 4.56493 73.9067 4.51826 74.5067 4.51826ZM82.5667 6.79826H80.4267V4.75826H82.5667V2.39826L85.0267 1.99826V4.75826H88.9667V6.79826H85.0267V10.5983C85.0267 10.9449 85.06 11.2249 85.1267 11.4383C85.1933 11.6516 85.2867 11.8183 85.4067 11.9383C85.5267 12.0583 85.6733 12.1383 85.8467 12.1783C86.02 12.2183 86.2133 12.2383 86.4267 12.2383C86.6533 12.2383 86.86 12.2316 87.0467 12.2183C87.2467 12.2049 87.4333 12.1849 87.6067 12.1583C87.7933 12.1183 87.98 12.0649 88.1667 11.9983C88.3667 11.9316 88.58 11.8449 88.8067 11.7383L89.1467 13.8583C88.6933 14.0449 88.2 14.1783 87.6667 14.2583C87.1467 14.3383 86.64 14.3783 86.1467 14.3783C85.5733 14.3783 85.0667 14.3316 84.6267 14.2383C84.1867 14.1449 83.8133 13.9649 83.5067 13.6983C83.2 13.4316 82.9667 13.0583 82.8067 12.5783C82.6467 12.0849 82.5667 11.4449 82.5667 10.6583V6.79826ZM90.3267 9.53826C90.3267 8.7116 90.4533 7.98493 90.7067 7.35826C90.96 6.7316 91.2933 6.2116 91.7067 5.79826C92.12 5.3716 92.5933 5.0516 93.1267 4.83826C93.66 4.62493 94.2067 4.51826 94.7667 4.51826C96.1533 4.51826 97.2067 4.9316 97.9267 5.75826C98.6467 6.5716 99.0067 7.76493 99.0067 9.33826C99.0067 9.49826 99 9.66493 98.9867 9.83826C98.9867 10.0116 98.98 10.1516 98.9667 10.2583H92.8667C92.8667 10.8716 93.12 11.3583 93.6267 11.7183C94.1333 12.0649 94.7867 12.2383 95.5867 12.2383C96.08 12.2383 96.5467 12.1849 96.9867 12.0783C97.44 11.9716 97.82 11.8649 98.1267 11.7583L98.4667 13.8583C98.04 14.0049 97.5867 14.1249 97.1067 14.2183C96.6267 14.3249 96.0867 14.3783 95.4867 14.3783C94.6867 14.3783 93.9667 14.2783 93.3267 14.0783C92.7 13.8649 92.16 13.5583 91.7067 13.1583C91.2667 12.7449 90.9267 12.2383 90.6867 11.6383C90.4467 11.0383 90.3267 10.3383 90.3267 9.53826ZM96.6267 8.55826C96.6267 8.30493 96.5933 8.06493 96.5267 7.83826C96.46 7.59826 96.3533 7.38493 96.2067 7.19826C96.06 7.0116 95.8733 6.86493 95.6467 6.75826C95.42 6.63826 95.14 6.57826 94.8067 6.57826C94.4867 6.57826 94.2067 6.6316 93.9667 6.73826C93.74 6.84493 93.5467 6.9916 93.3867 7.17826C93.24 7.36493 93.12 7.57826 93.0267 7.81826C92.9467 8.05826 92.8933 8.30493 92.8667 8.55826H96.6267Z" fill="#FFB6B9"/>
<path d="M8.10667 26.9383C8.10667 27.3649 8.02 27.7783 7.84667 28.1783C7.68667 28.5783 7.46667 28.9716 7.18667 29.3583C6.92 29.7449 6.61333 30.1249 6.26667 30.4983C5.92 30.8716 5.56667 31.2383 5.20667 31.5983C5.00667 31.7983 4.77333 32.0383 4.50667 32.3183C4.24 32.5983 3.98667 32.8849 3.74667 33.1783C3.50667 33.4716 3.30667 33.7583 3.14667 34.0383C2.98667 34.3183 2.90667 34.5583 2.90667 34.7583H8.60667V36.1583H1.10667C1.09333 36.0916 1.08667 36.0249 1.08667 35.9583C1.08667 35.8783 1.08667 35.8049 1.08667 35.7383C1.08667 35.1783 1.18 34.6583 1.36667 34.1783C1.55333 33.6983 1.79333 33.2449 2.08667 32.8183C2.38 32.3916 2.70667 31.9916 3.06667 31.6183C3.44 31.2316 3.80667 30.8583 4.16667 30.4983C4.46 30.2049 4.74 29.9183 5.00667 29.6383C5.28667 29.3583 5.52667 29.0783 5.72667 28.7983C5.94 28.5183 6.10667 28.2316 6.22667 27.9383C6.36 27.6316 6.42667 27.3183 6.42667 26.9983C6.42667 26.6383 6.36667 26.3316 6.24667 26.0783C6.14 25.8249 5.98667 25.6183 5.78667 25.4583C5.6 25.2849 5.38 25.1583 5.12667 25.0783C4.87333 24.9983 4.6 24.9583 4.30667 24.9583C3.96 24.9583 3.64 25.0049 3.34667 25.0983C3.06667 25.1916 2.81333 25.3049 2.58667 25.4383C2.37333 25.5716 2.18667 25.7049 2.02667 25.8383C1.86667 25.9583 1.74667 26.0583 1.66667 26.1383L0.846665 24.9783C0.953332 24.8583 1.11333 24.7116 1.32667 24.5383C1.54 24.3649 1.79333 24.2049 2.08667 24.0583C2.39333 23.8983 2.73333 23.7649 3.10667 23.6583C3.48 23.5516 3.88 23.4983 4.30667 23.4983C5.6 23.4983 6.55333 23.7983 7.16667 24.3983C7.79333 24.9849 8.10667 25.8316 8.10667 26.9383ZM15.8667 29.7383C15.8667 30.0849 15.76 30.3849 15.5467 30.6383C15.3467 30.8916 15.08 31.0183 14.7467 31.0183C14.4 31.0183 14.12 30.8916 13.9067 30.6383C13.6933 30.3849 13.5867 30.0849 13.5867 29.7383C13.5867 29.3916 13.6933 29.0849 13.9067 28.8183C14.12 28.5516 14.4 28.4183 14.7467 28.4183C15.08 28.4183 15.3467 28.5516 15.5467 28.8183C15.76 29.0849 15.8667 29.3916 15.8667 29.7383ZM10.6267 29.9583C10.6267 27.8783 10.98 26.2849 11.6867 25.1783C12.4067 24.0583 13.4133 23.4983 14.7067 23.4983C16.0133 23.4983 17.02 24.0583 17.7267 25.1783C18.4333 26.2849 18.7867 27.8783 18.7867 29.9583C18.7867 32.0383 18.4333 33.6383 17.7267 34.7583C17.02 35.8649 16.0133 36.4183 14.7067 36.4183C13.4133 36.4183 12.4067 35.8649 11.6867 34.7583C10.98 33.6383 10.6267 32.0383 10.6267 29.9583ZM17.1067 29.9583C17.1067 29.2783 17.0667 28.6383 16.9867 28.0383C16.9067 27.4249 16.7733 26.8916 16.5867 26.4383C16.4 25.9849 16.1533 25.6249 15.8467 25.3583C15.54 25.0916 15.16 24.9583 14.7067 24.9583C14.2533 24.9583 13.8733 25.0916 13.5667 25.3583C13.26 25.6249 13.0133 25.9849 12.8267 26.4383C12.64 26.8916 12.5067 27.4249 12.4267 28.0383C12.3467 28.6383 12.3067 29.2783 12.3067 29.9583C12.3067 30.6383 12.3467 31.2849 12.4267 31.8983C12.5067 32.4983 12.64 33.0249 12.8267 33.4783C13.0133 33.9316 13.26 34.2916 13.5667 34.5583C13.8733 34.8249 14.2533 34.9583 14.7067 34.9583C15.16 34.9583 15.54 34.8249 15.8467 34.5583C16.1533 34.2916 16.4 33.9316 16.5867 33.4783C16.7733 33.0249 16.9067 32.4983 16.9867 31.8983C17.0667 31.2849 17.1067 30.6383 17.1067 29.9583ZM28.1067 26.9383C28.1067 27.3649 28.02 27.7783 27.8467 28.1783C27.6867 28.5783 27.4667 28.9716 27.1867 29.3583C26.92 29.7449 26.6133 30.1249 26.2667 30.4983C25.92 30.8716 25.5667 31.2383 25.2067 31.5983C25.0067 31.7983 24.7733 32.0383 24.5067 32.3183C24.24 32.5983 23.9867 32.8849 23.7467 33.1783C23.5067 33.4716 23.3067 33.7583 23.1467 34.0383C22.9867 34.3183 22.9067 34.5583 22.9067 34.7583H28.6067V36.1583H21.1067C21.0933 36.0916 21.0867 36.0249 21.0867 35.9583C21.0867 35.8783 21.0867 35.8049 21.0867 35.7383C21.0867 35.1783 21.18 34.6583 21.3667 34.1783C21.5533 33.6983 21.7933 33.2449 22.0867 32.8183C22.38 32.3916 22.7067 31.9916 23.0667 31.6183C23.44 31.2316 23.8067 30.8583 24.1667 30.4983C24.46 30.2049 24.74 29.9183 25.0067 29.6383C25.2867 29.3583 25.5267 29.0783 25.7267 28.7983C25.94 28.5183 26.1067 28.2316 26.2267 27.9383C26.36 27.6316 26.4267 27.3183 26.4267 26.9983C26.4267 26.6383 26.3667 26.3316 26.2467 26.0783C26.14 25.8249 25.9867 25.6183 25.7867 25.4583C25.6 25.2849 25.38 25.1583 25.1267 25.0783C24.8733 24.9983 24.6 24.9583 24.3067 24.9583C23.96 24.9583 23.64 25.0049 23.3467 25.0983C23.0667 25.1916 22.8133 25.3049 22.5867 25.4383C22.3733 25.5716 22.1867 25.7049 22.0267 25.8383C21.8667 25.9583 21.7467 26.0583 21.6667 26.1383L20.8467 24.9783C20.9533 24.8583 21.1133 24.7116 21.3267 24.5383C21.54 24.3649 21.7933 24.2049 22.0867 24.0583C22.3933 23.8983 22.7333 23.7649 23.1067 23.6583C23.48 23.5516 23.88 23.4983 24.3067 23.4983C25.6 23.4983 26.5533 23.7983 27.1667 24.3983C27.7933 24.9849 28.1067 25.8316 28.1067 26.9383ZM35.8667 29.7383C35.8667 30.0849 35.76 30.3849 35.5467 30.6383C35.3467 30.8916 35.08 31.0183 34.7467 31.0183C34.4 31.0183 34.12 30.8916 33.9067 30.6383C33.6933 30.3849 33.5867 30.0849 33.5867 29.7383C33.5867 29.3916 33.6933 29.0849 33.9067 28.8183C34.12 28.5516 34.4 28.4183 34.7467 28.4183C35.08 28.4183 35.3467 28.5516 35.5467 28.8183C35.76 29.0849 35.8667 29.3916 35.8667 29.7383ZM30.6267 29.9583C30.6267 27.8783 30.98 26.2849 31.6867 25.1783C32.4067 24.0583 33.4133 23.4983 34.7067 23.4983C36.0133 23.4983 37.02 24.0583 37.7267 25.1783C38.4333 26.2849 38.7867 27.8783 38.7867 29.9583C38.7867 32.0383 38.4333 33.6383 37.7267 34.7583C37.02 35.8649 36.0133 36.4183 34.7067 36.4183C33.4133 36.4183 32.4067 35.8649 31.6867 34.7583C30.98 33.6383 30.6267 32.0383 30.6267 29.9583ZM37.1067 29.9583C37.1067 29.2783 37.0667 28.6383 36.9867 28.0383C36.9067 27.4249 36.7733 26.8916 36.5867 26.4383C36.4 25.9849 36.1533 25.6249 35.8467 25.3583C35.54 25.0916 35.16 24.9583 34.7067 24.9583C34.2533 24.9583 33.8733 25.0916 33.5667 25.3583C33.26 25.6249 33.0133 25.9849 32.8267 26.4383C32.64 26.8916 32.5067 27.4249 32.4267 28.0383C32.3467 28.6383 32.3067 29.2783 32.3067 29.9583C32.3067 30.6383 32.3467 31.2849 32.4267 31.8983C32.5067 32.4983 32.64 33.0249 32.8267 33.4783C33.0133 33.9316 33.26 34.2916 33.5667 34.5583C33.8733 34.8249 34.2533 34.9583 34.7067 34.9583C35.16 34.9583 35.54 34.8249 35.8467 34.5583C36.1533 34.2916 36.4 33.9316 36.5867 33.4783C36.7733 33.0249 36.9067 32.4983 36.9867 31.8983C37.0667 31.2849 37.1067 30.6383 37.1067 29.9583ZM42.5067 30.2983H46.9067V31.8583H42.5067V30.2983ZM51.2067 26.3383C51.8867 26.0716 52.5467 25.7383 53.1867 25.3383C53.8267 24.9249 54.42 24.4049 54.9667 23.7783H56.1267V34.7583H58.4667V36.1583H51.8067V34.7583H54.4867V26.0783C54.34 26.2116 54.16 26.3516 53.9467 26.4983C53.7467 26.6316 53.52 26.7649 53.2667 26.8983C53.0267 27.0316 52.7733 27.1583 52.5067 27.2783C52.24 27.3983 51.98 27.4983 51.7267 27.5783L51.2067 26.3383ZM68.1067 26.9383C68.1067 27.3649 68.02 27.7783 67.8467 28.1783C67.6867 28.5783 67.4667 28.9716 67.1867 29.3583C66.92 29.7449 66.6133 30.1249 66.2667 30.4983C65.92 30.8716 65.5667 31.2383 65.2067 31.5983C65.0067 31.7983 64.7733 32.0383 64.5067 32.3183C64.24 32.5983 63.9867 32.8849 63.7467 33.1783C63.5067 33.4716 63.3067 33.7583 63.1467 34.0383C62.9867 34.3183 62.9067 34.5583 62.9067 34.7583H68.6067V36.1583H61.1067C61.0933 36.0916 61.0867 36.0249 61.0867 35.9583C61.0867 35.8783 61.0867 35.8049 61.0867 35.7383C61.0867 35.1783 61.18 34.6583 61.3667 34.1783C61.5533 33.6983 61.7933 33.2449 62.0867 32.8183C62.38 32.3916 62.7067 31.9916 63.0667 31.6183C63.44 31.2316 63.8067 30.8583 64.1667 30.4983C64.46 30.2049 64.74 29.9183 65.0067 29.6383C65.2867 29.3583 65.5267 29.0783 65.7267 28.7983C65.94 28.5183 66.1067 28.2316 66.2267 27.9383C66.36 27.6316 66.4267 27.3183 66.4267 26.9983C66.4267 26.6383 66.3667 26.3316 66.2467 26.0783C66.14 25.8249 65.9867 25.6183 65.7867 25.4583C65.6 25.2849 65.38 25.1583 65.1267 25.0783C64.8733 24.9983 64.6 24.9583 64.3067 24.9583C63.96 24.9583 63.64 25.0049 63.3467 25.0983C63.0667 25.1916 62.8133 25.3049 62.5867 25.4383C62.3733 25.5716 62.1867 25.7049 62.0267 25.8383C61.8667 25.9583 61.7467 26.0583 61.6667 26.1383L60.8467 24.9783C60.9533 24.8583 61.1133 24.7116 61.3267 24.5383C61.54 24.3649 61.7933 24.2049 62.0867 24.0583C62.3933 23.8983 62.7333 23.7649 63.1067 23.6583C63.48 23.5516 63.88 23.4983 64.3067 23.4983C65.6 23.4983 66.5533 23.7983 67.1667 24.3983C67.7933 24.9849 68.1067 25.8316 68.1067 26.9383ZM72.5067 30.2983H76.9067V31.8583H72.5067V30.2983ZM85.8667 29.7383C85.8667 30.0849 85.76 30.3849 85.5467 30.6383C85.3467 30.8916 85.08 31.0183 84.7467 31.0183C84.4 31.0183 84.12 30.8916 83.9067 30.6383C83.6933 30.3849 83.5867 30.0849 83.5867 29.7383C83.5867 29.3916 83.6933 29.0849 83.9067 28.8183C84.12 28.5516 84.4 28.4183 84.7467 28.4183C85.08 28.4183 85.3467 28.5516 85.5467 28.8183C85.76 29.0849 85.8667 29.3916 85.8667 29.7383ZM80.6267 29.9583C80.6267 27.8783 80.98 26.2849 81.6867 25.1783C82.4067 24.0583 83.4133 23.4983 84.7067 23.4983C86.0133 23.4983 87.02 24.0583 87.7267 25.1783C88.4333 26.2849 88.7867 27.8783 88.7867 29.9583C88.7867 32.0383 88.4333 33.6383 87.7267 34.7583C87.02 35.8649 86.0133 36.4183 84.7067 36.4183C83.4133 36.4183 82.4067 35.8649 81.6867 34.7583C80.98 33.6383 80.6267 32.0383 80.6267 29.9583ZM87.1067 29.9583C87.1067 29.2783 87.0667 28.6383 86.9867 28.0383C86.9067 27.4249 86.7733 26.8916 86.5867 26.4383C86.4 25.9849 86.1533 25.6249 85.8467 25.3583C85.54 25.0916 85.16 24.9583 84.7067 24.9583C84.2533 24.9583 83.8733 25.0916 83.5667 25.3583C83.26 25.6249 83.0133 25.9849 82.8267 26.4383C82.64 26.8916 82.5067 27.4249 82.4267 28.0383C82.3467 28.6383 82.3067 29.2783 82.3067 29.9583C82.3067 30.6383 82.3467 31.2849 82.4267 31.8983C82.5067 32.4983 82.64 33.0249 82.8267 33.4783C83.0133 33.9316 83.26 34.2916 83.5667 34.5583C83.8733 34.8249 84.2533 34.9583 84.7067 34.9583C85.16 34.9583 85.54 34.8249 85.8467 34.5583C86.1533 34.2916 86.4 33.9316 86.5867 33.4783C86.7733 33.0249 86.9067 32.4983 86.9867 31.8983C87.0667 31.2849 87.1067 30.6383 87.1067 29.9583ZM91.2067 26.3383C91.8867 26.0716 92.5467 25.7383 93.1867 25.3383C93.8267 24.9249 94.42 24.4049 94.9667 23.7783H96.1267V34.7583H98.4667V36.1583H91.8067V34.7583H94.4867V26.0783C94.34 26.2116 94.16 26.3516 93.9467 26.4983C93.7467 26.6316 93.52 26.7649 93.2667 26.8983C93.0267 27.0316 92.7733 27.1583 92.5067 27.2783C92.24 27.3983 91.98 27.4983 91.7267 27.5783L91.2067 26.3383ZM8.92667 45.7783V47.1783H5.52667V58.1583H3.88667V47.1783H0.486665V45.7783H8.92667ZM15.8667 51.7383C15.8667 52.0849 15.76 52.3849 15.5467 52.6383C15.3467 52.8916 15.08 53.0183 14.7467 53.0183C14.4 53.0183 14.12 52.8916 13.9067 52.6383C13.6933 52.3849 13.5867 52.0849 13.5867 51.7383C13.5867 51.3916 13.6933 51.0849 13.9067 50.8183C14.12 50.5516 14.4 50.4183 14.7467 50.4183C15.08 50.4183 15.3467 50.5516 15.5467 50.8183C15.76 51.0849 15.8667 51.3916 15.8667 51.7383ZM10.6267 51.9583C10.6267 49.8783 10.98 48.2849 11.6867 47.1783C12.4067 46.0583 13.4133 45.4983 14.7067 45.4983C16.0133 45.4983 17.02 46.0583 17.7267 47.1783C18.4333 48.2849 18.7867 49.8783 18.7867 51.9583C18.7867 54.0383 18.4333 55.6383 17.7267 56.7583C17.02 57.8649 16.0133 58.4183 14.7067 58.4183C13.4133 58.4183 12.4067 57.8649 11.6867 56.7583C10.98 55.6383 10.6267 54.0383 10.6267 51.9583ZM17.1067 51.9583C17.1067 51.2783 17.0667 50.6383 16.9867 50.0383C16.9067 49.4249 16.7733 48.8916 16.5867 48.4383C16.4 47.9849 16.1533 47.6249 15.8467 47.3583C15.54 47.0916 15.16 46.9583 14.7067 46.9583C14.2533 46.9583 13.8733 47.0916 13.5667 47.3583C13.26 47.6249 13.0133 47.9849 12.8267 48.4383C12.64 48.8916 12.5067 49.4249 12.4267 50.0383C12.3467 50.6383 12.3067 51.2783 12.3067 51.9583C12.3067 52.6383 12.3467 53.2849 12.4267 53.8983C12.5067 54.4983 12.64 55.0249 12.8267 55.4783C13.0133 55.9316 13.26 56.2916 13.5667 56.5583C13.8733 56.8249 14.2533 56.9583 14.7067 56.9583C15.16 56.9583 15.54 56.8249 15.8467 56.5583C16.1533 56.2916 16.4 55.9316 16.5867 55.4783C16.7733 55.0249 16.9067 54.4983 16.9867 53.8983C17.0667 53.2849 17.1067 52.6383 17.1067 51.9583ZM28.6867 54.9383C28.6867 55.9783 28.3533 56.8183 27.6867 57.4583C27.0333 58.0983 26.0333 58.4183 24.6867 58.4183C23.9133 58.4183 23.2733 58.3183 22.7667 58.1183C22.26 57.9049 21.8533 57.6383 21.5467 57.3183C21.2533 56.9849 21.04 56.6183 20.9067 56.2183C20.7867 55.8183 20.7267 55.4249 20.7267 55.0383C20.7267 54.3316 20.92 53.7049 21.3067 53.1583C21.6933 52.6116 22.1533 52.1716 22.6867 51.8383C21.5533 51.1983 20.9867 50.2183 20.9867 48.8983C20.9867 48.4449 21.0733 48.0116 21.2467 47.5983C21.42 47.1849 21.6667 46.8249 21.9867 46.5183C22.3067 46.2116 22.6933 45.9649 23.1467 45.7783C23.6133 45.5916 24.1333 45.4983 24.7067 45.4983C25.3733 45.4983 25.94 45.5983 26.4067 45.7983C26.8867 45.9983 27.2733 46.2583 27.5667 46.5783C27.86 46.8849 28.0733 47.2316 28.2067 47.6183C28.34 47.9916 28.4067 48.3583 28.4067 48.7183C28.4067 49.4249 28.2267 50.0383 27.8667 50.5583C27.5067 51.0649 27.0933 51.4716 26.6267 51.7783C28 52.4316 28.6867 53.4849 28.6867 54.9383ZM22.3267 55.0583C22.3267 55.2716 22.3667 55.4983 22.4467 55.7383C22.5267 55.9649 22.66 56.1783 22.8467 56.3783C23.0333 56.5783 23.28 56.7449 23.5867 56.8783C23.8933 56.9983 24.2667 57.0583 24.7067 57.0583C25.12 57.0583 25.4733 57.0049 25.7667 56.8983C26.0733 56.7783 26.32 56.6249 26.5067 56.4383C26.7067 56.2383 26.8533 56.0183 26.9467 55.7783C27.04 55.5383 27.0867 55.2983 27.0867 55.0583C27.0867 54.2983 26.8133 53.7183 26.2667 53.3183C25.72 52.9049 24.9667 52.5916 24.0067 52.3783C23.4733 52.6716 23.06 53.0383 22.7667 53.4783C22.4733 53.9183 22.3267 54.4449 22.3267 55.0583ZM26.8067 48.7183C26.8067 48.5449 26.7667 48.3516 26.6867 48.1383C26.6067 47.9116 26.48 47.7116 26.3067 47.5383C26.1467 47.3516 25.9333 47.1983 25.6667 47.0783C25.4 46.9449 25.08 46.8783 24.7067 46.8783C24.32 46.8783 23.9933 46.9383 23.7267 47.0583C23.4733 47.1783 23.26 47.3316 23.0867 47.5183C22.9133 47.6916 22.7867 47.8916 22.7067 48.1183C22.64 48.3316 22.6067 48.5449 22.6067 48.7583C22.6067 49.3049 22.8 49.8183 23.1867 50.2983C23.5867 50.7649 24.24 51.1049 25.1467 51.3183C25.6533 51.0249 26.0533 50.6783 26.3467 50.2783C26.6533 49.8783 26.8067 49.3583 26.8067 48.7183ZM36.1867 56.8783C36.1867 57.2783 36.0533 57.6316 35.7867 57.9383C35.52 58.2449 35.1667 58.3983 34.7267 58.3983C34.2733 58.3983 33.9133 58.2449 33.6467 57.9383C33.38 57.6316 33.2467 57.2783 33.2467 56.8783C33.2467 56.4649 33.38 56.1049 33.6467 55.7983C33.9133 55.4916 34.2733 55.3383 34.7267 55.3383C35.1667 55.3383 35.52 55.4916 35.7867 55.7983C36.0533 56.1049 36.1867 56.4649 36.1867 56.8783ZM36.1867 50.4183C36.1867 50.8183 36.0533 51.1716 35.7867 51.4783C35.52 51.7849 35.1667 51.9383 34.7267 51.9383C34.2733 51.9383 33.9133 51.7849 33.6467 51.4783C33.38 51.1716 33.2467 50.8183 33.2467 50.4183C33.2467 50.0049 33.38 49.6449 33.6467 49.3383C33.9133 49.0316 34.2733 48.8783 34.7267 48.8783C35.1667 48.8783 35.52 49.0316 35.7867 49.3383C36.0533 49.6449 36.1867 50.0049 36.1867 50.4183ZM41.2067 48.3383C41.8867 48.0716 42.5467 47.7383 43.1867 47.3383C43.8267 46.9249 44.42 46.4049 44.9667 45.7783H46.1267V56.7583H48.4667V58.1583H41.8067V56.7583H44.4867V48.0783C44.34 48.2116 44.16 48.3516 43.9467 48.4983C43.7467 48.6316 43.52 48.7649 43.2667 48.8983C43.0267 49.0316 42.7733 49.1583 42.5067 49.2783C42.24 49.3983 41.98 49.4983 41.7267 49.5783L41.2067 48.3383ZM51.2067 48.3383C51.8867 48.0716 52.5467 47.7383 53.1867 47.3383C53.8267 46.9249 54.42 46.4049 54.9667 45.7783H56.1267V56.7583H58.4667V58.1583H51.8067V56.7583H54.4867V48.0783C54.34 48.2116 54.16 48.3516 53.9467 48.4983C53.7467 48.6316 53.52 48.7649 53.2667 48.8983C53.0267 49.0316 52.7733 49.1583 52.5067 49.2783C52.24 49.3983 51.98 49.4983 51.7267 49.5783L51.2067 48.3383ZM66.1867 56.8783C66.1867 57.2783 66.0533 57.6316 65.7867 57.9383C65.52 58.2449 65.1667 58.3983 64.7267 58.3983C64.2733 58.3983 63.9133 58.2449 63.6467 57.9383C63.38 57.6316 63.2467 57.2783 63.2467 56.8783C63.2467 56.4649 63.38 56.1049 63.6467 55.7983C63.9133 55.4916 64.2733 55.3383 64.7267 55.3383C65.1667 55.3383 65.52 55.4916 65.7867 55.7983C66.0533 56.1049 66.1867 56.4649 66.1867 56.8783ZM66.1867 50.4183C66.1867 50.8183 66.0533 51.1716 65.7867 51.4783C65.52 51.7849 65.1667 51.9383 64.7267 51.9383C64.2733 51.9383 63.9133 51.7849 63.6467 51.4783C63.38 51.1716 63.2467 50.8183 63.2467 50.4183C63.2467 50.0049 63.38 49.6449 63.6467 49.3383C63.9133 49.0316 64.2733 48.8783 64.7267 48.8783C65.1667 48.8783 65.52 49.0316 65.7867 49.3383C66.0533 49.6449 66.1867 50.0049 66.1867 50.4183ZM71.2067 48.3383C71.8867 48.0716 72.5467 47.7383 73.1867 47.3383C73.8267 46.9249 74.42 46.4049 74.9667 45.7783H76.1267V56.7583H78.4667V58.1583H71.8067V56.7583H74.4867V48.0783C74.34 48.2116 74.16 48.3516 73.9467 48.4983C73.7467 48.6316 73.52 48.7649 73.2667 48.8983C73.0267 49.0316 72.7733 49.1583 72.5067 49.2783C72.24 49.3983 71.98 49.4983 71.7267 49.5783L71.2067 48.3383ZM85.8667 51.7383C85.8667 52.0849 85.76 52.3849 85.5467 52.6383C85.3467 52.8916 85.08 53.0183 84.7467 53.0183C84.4 53.0183 84.12 52.8916 83.9067 52.6383C83.6933 52.3849 83.5867 52.0849 83.5867 51.7383C83.5867 51.3916 83.6933 51.0849 83.9067 50.8183C84.12 50.5516 84.4 50.4183 84.7467 50.4183C85.08 50.4183 85.3467 50.5516 85.5467 50.8183C85.76 51.0849 85.8667 51.3916 85.8667 51.7383ZM80.6267 51.9583C80.6267 49.8783 80.98 48.2849 81.6867 47.1783C82.4067 46.0583 83.4133 45.4983 84.7067 45.4983C86.0133 45.4983 87.02 46.0583 87.7267 47.1783C88.4333 48.2849 88.7867 49.8783 88.7867 51.9583C88.7867 54.0383 88.4333 55.6383 87.7267 56.7583C87.02 57.8649 86.0133 58.4183 84.7067 58.4183C83.4133 58.4183 82.4067 57.8649 81.6867 56.7583C80.98 55.6383 80.6267 54.0383 80.6267 51.9583ZM87.1067 51.9583C87.1067 51.2783 87.0667 50.6383 86.9867 50.0383C86.9067 49.4249 86.7733 48.8916 86.5867 48.4383C86.4 47.9849 86.1533 47.6249 85.8467 47.3583C85.54 47.0916 85.16 46.9583 84.7067 46.9583C84.2533 46.9583 83.8733 47.0916 83.5667 47.3583C83.26 47.6249 83.0133 47.9849 82.8267 48.4383C82.64 48.8916 82.5067 49.4249 82.4267 50.0383C82.3467 50.6383 82.3067 51.2783 82.3067 51.9583C82.3067 52.6383 82.3467 53.2849 82.4267 53.8983C82.5067 54.4983 82.64 55.0249 82.8267 55.4783C83.0133 55.9316 83.26 56.2916 83.5667 56.5583C83.8733 56.8249 84.2533 56.9583 84.7067 56.9583C85.16 56.9583 85.54 56.8249 85.8467 56.5583C86.1533 56.2916 86.4 55.9316 86.5867 55.4783C86.7733 55.0249 86.9067 54.4983 86.9867 53.8983C87.0667 53.2849 87.1067 52.6383 87.1067 51.9583ZM2.50667 74.2983H6.90667V75.8583H2.50667V74.2983ZM15.8667 73.7383C15.8667 74.0849 15.76 74.3849 15.5467 74.6383C15.3467 74.8916 15.08 75.0183 14.7467 75.0183C14.4 75.0183 14.12 74.8916 13.9067 74.6383C13.6933 74.3849 13.5867 74.0849 13.5867 73.7383C13.5867 73.3916 13.6933 73.0849 13.9067 72.8183C14.12 72.5516 14.4 72.4183 14.7467 72.4183C15.08 72.4183 15.3467 72.5516 15.5467 72.8183C15.76 73.0849 15.8667 73.3916 15.8667 73.7383ZM10.6267 73.9583C10.6267 71.8783 10.98 70.2849 11.6867 69.1783C12.4067 68.0583 13.4133 67.4983 14.7067 67.4983C16.0133 67.4983 17.02 68.0583 17.7267 69.1783C18.4333 70.2849 18.7867 71.8783 18.7867 73.9583C18.7867 76.0383 18.4333 77.6383 17.7267 78.7583C17.02 79.8649 16.0133 80.4183 14.7067 80.4183C13.4133 80.4183 12.4067 79.8649 11.6867 78.7583C10.98 77.6383 10.6267 76.0383 10.6267 73.9583ZM17.1067 73.9583C17.1067 73.2783 17.0667 72.6383 16.9867 72.0383C16.9067 71.4249 16.7733 70.8916 16.5867 70.4383C16.4 69.9849 16.1533 69.6249 15.8467 69.3583C15.54 69.0916 15.16 68.9583 14.7067 68.9583C14.2533 68.9583 13.8733 69.0916 13.5667 69.3583C13.26 69.6249 13.0133 69.9849 12.8267 70.4383C12.64 70.8916 12.5067 71.4249 12.4267 72.0383C12.3467 72.6383 12.3067 73.2783 12.3067 73.9583C12.3067 74.6383 12.3467 75.2849 12.4267 75.8983C12.5067 76.4983 12.64 77.0249 12.8267 77.4783C13.0133 77.9316 13.26 78.2916 13.5667 78.5583C13.8733 78.8249 14.2533 78.9583 14.7067 78.9583C15.16 78.9583 15.54 78.8249 15.8467 78.5583C16.1533 78.2916 16.4 77.9316 16.5867 77.4783C16.7733 77.0249 16.9067 76.4983 16.9867 75.8983C17.0667 75.2849 17.1067 74.6383 17.1067 73.9583ZM23.4267 72.5583C25.2133 72.6249 26.5133 73.0183 27.3267 73.7383C28.14 74.4583 28.5467 75.4249 28.5467 76.6383C28.5467 77.1849 28.46 77.6916 28.2867 78.1583C28.1133 78.6249 27.84 79.0249 27.4667 79.3583C27.1067 79.6916 26.64 79.9516 26.0667 80.1383C25.5067 80.3249 24.84 80.4183 24.0667 80.4183C23.7467 80.4183 23.4267 80.3916 23.1067 80.3383C22.8 80.2983 22.5067 80.2449 22.2267 80.1783C21.9467 80.1116 21.7 80.0449 21.4867 79.9783C21.2733 79.8983 21.12 79.8316 21.0267 79.7783L21.3467 78.3583C21.56 78.4649 21.8867 78.5916 22.3267 78.7383C22.78 78.8849 23.3467 78.9583 24.0267 78.9583C24.56 78.9583 25.0067 78.8983 25.3667 78.7783C25.7267 78.6583 26.0133 78.4983 26.2267 78.2983C26.4533 78.0849 26.6133 77.8449 26.7067 77.5783C26.8133 77.3116 26.8667 77.0316 26.8667 76.7383C26.8667 76.2849 26.7867 75.8849 26.6267 75.5383C26.48 75.1783 26.2133 74.8783 25.8267 74.6383C25.4533 74.3983 24.9333 74.2183 24.2667 74.0983C23.6133 73.9649 22.7867 73.8983 21.7867 73.8983C21.8667 73.3116 21.9267 72.7649 21.9667 72.2583C22.02 71.7383 22.06 71.2383 22.0867 70.7583C22.1267 70.2649 22.1533 69.7783 22.1667 69.2983C22.1933 68.8183 22.22 68.3116 22.2467 67.7783H28.2067V69.1783H23.6867C23.6733 69.3649 23.6533 69.6116 23.6267 69.9183C23.6133 70.2116 23.5933 70.5249 23.5667 70.8583C23.54 71.1916 23.5133 71.5116 23.4867 71.8183C23.46 72.1249 23.44 72.3716 23.4267 72.5583ZM35.8667 73.7383C35.8667 74.0849 35.76 74.3849 35.5467 74.6383C35.3467 74.8916 35.08 75.0183 34.7467 75.0183C34.4 75.0183 34.12 74.8916 33.9067 74.6383C33.6933 74.3849 33.5867 74.0849 33.5867 73.7383C33.5867 73.3916 33.6933 73.0849 33.9067 72.8183C34.12 72.5516 34.4 72.4183 34.7467 72.4183C35.08 72.4183 35.3467 72.5516 35.5467 72.8183C35.76 73.0849 35.8667 73.3916 35.8667 73.7383ZM30.6267 73.9583C30.6267 71.8783 30.98 70.2849 31.6867 69.1783C32.4067 68.0583 33.4133 67.4983 34.7067 67.4983C36.0133 67.4983 37.02 68.0583 37.7267 69.1783C38.4333 70.2849 38.7867 71.8783 38.7867 73.9583C38.7867 76.0383 38.4333 77.6383 37.7267 78.7583C37.02 79.8649 36.0133 80.4183 34.7067 80.4183C33.4133 80.4183 32.4067 79.8649 31.6867 78.7583C30.98 77.6383 30.6267 76.0383 30.6267 73.9583ZM37.1067 73.9583C37.1067 73.2783 37.0667 72.6383 36.9867 72.0383C36.9067 71.4249 36.7733 70.8916 36.5867 70.4383C36.4 69.9849 36.1533 69.6249 35.8467 69.3583C35.54 69.0916 35.16 68.9583 34.7067 68.9583C34.2533 68.9583 33.8733 69.0916 33.5667 69.3583C33.26 69.6249 33.0133 69.9849 32.8267 70.4383C32.64 70.8916 32.5067 71.4249 32.4267 72.0383C32.3467 72.6383 32.3067 73.2783 32.3067 73.9583C32.3067 74.6383 32.3467 75.2849 32.4267 75.8983C32.5067 76.4983 32.64 77.0249 32.8267 77.4783C33.0133 77.9316 33.26 78.2916 33.5667 78.5583C33.8733 78.8249 34.2533 78.9583 34.7067 78.9583C35.16 78.9583 35.54 78.8249 35.8467 78.5583C36.1533 78.2916 36.4 77.9316 36.5867 77.4783C36.7733 77.0249 36.9067 76.4983 36.9867 75.8983C37.0667 75.2849 37.1067 74.6383 37.1067 73.9583ZM45.8667 73.7383C45.8667 74.0849 45.76 74.3849 45.5467 74.6383C45.3467 74.8916 45.08 75.0183 44.7467 75.0183C44.4 75.0183 44.12 74.8916 43.9067 74.6383C43.6933 74.3849 43.5867 74.0849 43.5867 73.7383C43.5867 73.3916 43.6933 73.0849 43.9067 72.8183C44.12 72.5516 44.4 72.4183 44.7467 72.4183C45.08 72.4183 45.3467 72.5516 45.5467 72.8183C45.76 73.0849 45.8667 73.3916 45.8667 73.7383ZM40.6267 73.9583C40.6267 71.8783 40.98 70.2849 41.6867 69.1783C42.4067 68.0583 43.4133 67.4983 44.7067 67.4983C46.0133 67.4983 47.02 68.0583 47.7267 69.1783C48.4333 70.2849 48.7867 71.8783 48.7867 73.9583C48.7867 76.0383 48.4333 77.6383 47.7267 78.7583C47.02 79.8649 46.0133 80.4183 44.7067 80.4183C43.4133 80.4183 42.4067 79.8649 41.6867 78.7583C40.98 77.6383 40.6267 76.0383 40.6267 73.9583ZM47.1067 73.9583C47.1067 73.2783 47.0667 72.6383 46.9867 72.0383C46.9067 71.4249 46.7733 70.8916 46.5867 70.4383C46.4 69.9849 46.1533 69.6249 45.8467 69.3583C45.54 69.0916 45.16 68.9583 44.7067 68.9583C44.2533 68.9583 43.8733 69.0916 43.5667 69.3583C43.26 69.6249 43.0133 69.9849 42.8267 70.4383C42.64 70.8916 42.5067 71.4249 42.4267 72.0383C42.3467 72.6383 42.3067 73.2783 42.3067 73.9583C42.3067 74.6383 42.3467 75.2849 42.4267 75.8983C42.5067 76.4983 42.64 77.0249 42.8267 77.4783C43.0133 77.9316 43.26 78.2916 43.5667 78.5583C43.8733 78.8249 44.2533 78.9583 44.7067 78.9583C45.16 78.9583 45.54 78.8249 45.8467 78.5583C46.1533 78.2916 46.4 77.9316 46.5867 77.4783C46.7733 77.0249 46.9067 76.4983 46.9867 75.8983C47.0667 75.2849 47.1067 74.6383 47.1067 73.9583Z" fill="#D9D9D9"/>
</svg>
