<svg width="60" height="60" viewBox="0 0 60 60" fill="none" xmlns="http://www.w3.org/2000/svg">
<g filter="url(#filter0_d)">
<path d="M52.6405 36.3812C49.167 31.0302 43.21 28.6735 39.3332 31.1189C38.9999 31.3293 38.6898 31.5725 38.4098 31.8355L34.273 25.4524L43.8301 10.6615C44.6135 9.23834 44.9001 7.54232 44.5201 5.83644C44.1568 4.20617 43.2434 2.83555 42.0133 1.86921L41.3733 1.46822L30.0461 18.9346L18.7189 1.46822L18.0789 1.86921C16.8488 2.83555 15.9354 4.20617 15.5721 5.83644C15.1921 7.54232 15.4821 9.23834 16.2621 10.6615L25.8192 25.4524L21.6824 31.8355C21.399 31.5692 21.0923 31.3293 20.759 31.1189C16.8821 28.6735 10.9252 31.0269 7.45169 36.3812C3.97819 41.7355 4.30488 48.0528 8.18173 50.5015C12.0586 52.9469 18.0155 50.5935 21.489 45.2392L30.0461 31.9965L38.6032 45.2392C42.0767 50.5902 48.0336 52.9469 51.9105 50.5015C55.7873 48.0561 56.114 41.7355 52.6405 36.3812ZM17.2755 42.5835C15.7121 44.9927 13.7053 46.1628 12.3486 46.4587C11.9052 46.554 11.2919 46.6131 10.8719 46.3502C10.4085 46.0577 10.1018 45.2853 10.0485 44.2828C9.96514 42.6591 10.5518 40.7461 11.6586 39.0435C13.222 36.6343 15.2287 35.4641 16.5855 35.1683C17.0288 35.073 17.6422 35.0138 18.0622 35.2768C18.5255 35.5693 18.8322 36.3417 18.8856 37.3442C18.9689 38.9712 18.3822 40.8809 17.2755 42.5835ZM30.0428 27.7696C29.1227 27.7696 28.376 27.0334 28.376 26.1262C28.376 25.219 29.1227 24.4828 30.0428 24.4828C30.9628 24.4828 31.7095 25.219 31.7095 26.1262C31.7095 27.0334 30.9628 27.7696 30.0428 27.7696ZM50.037 44.2795C49.9837 45.282 49.677 46.0544 49.2137 46.3469C48.797 46.6099 48.1803 46.5507 47.7369 46.4554C46.3802 46.1629 44.3734 44.9894 42.81 42.5802C41.7033 40.8743 41.1166 38.9646 41.2 37.3409C41.2533 36.3384 41.56 35.566 42.0233 35.2735C42.44 35.0106 43.0567 35.0697 43.5001 35.165C44.8568 35.4576 46.8636 36.631 48.427 39.0402C49.5337 40.7461 50.1204 42.6558 50.037 44.2795Z" fill="#FFE084"/>
<path d="M52.6405 36.3812C49.167 31.0302 43.21 28.6735 39.3332 31.1189C38.9999 31.3293 38.6898 31.5725 38.4098 31.8355L34.273 25.4524L43.8301 10.6615C44.6135 9.23834 44.9001 7.54232 44.5201 5.83644C44.1568 4.20617 43.2434 2.83555 42.0133 1.86921L41.3733 1.46822L30.0461 18.9346L18.7189 1.46822L18.0789 1.86921C16.8488 2.83555 15.9354 4.20617 15.5721 5.83644C15.1921 7.54232 15.4821 9.23834 16.2621 10.6615L25.8192 25.4524L21.6824 31.8355C21.399 31.5692 21.0923 31.3293 20.759 31.1189C16.8821 28.6735 10.9252 31.0269 7.45169 36.3812C3.97819 41.7355 4.30488 48.0528 8.18173 50.5015C12.0586 52.9469 18.0155 50.5935 21.489 45.2392L30.0461 31.9965L38.6032 45.2392C42.0767 50.5902 48.0336 52.9469 51.9105 50.5015C55.7873 48.0561 56.114 41.7355 52.6405 36.3812ZM17.2755 42.5835C15.7121 44.9927 13.7053 46.1628 12.3486 46.4587C11.9052 46.554 11.2919 46.6131 10.8719 46.3502C10.4085 46.0577 10.1018 45.2853 10.0485 44.2828C9.96514 42.6591 10.5518 40.7461 11.6586 39.0435C13.222 36.6343 15.2287 35.4641 16.5855 35.1683C17.0288 35.073 17.6422 35.0138 18.0622 35.2768C18.5255 35.5693 18.8322 36.3417 18.8856 37.3442C18.9689 38.9712 18.3822 40.8809 17.2755 42.5835ZM30.0428 27.7696C29.1227 27.7696 28.376 27.0334 28.376 26.1262C28.376 25.219 29.1227 24.4828 30.0428 24.4828C30.9628 24.4828 31.7095 25.219 31.7095 26.1262C31.7095 27.0334 30.9628 27.7696 30.0428 27.7696ZM50.037 44.2795C49.9837 45.282 49.677 46.0544 49.2137 46.3469C48.797 46.6099 48.1803 46.5507 47.7369 46.4554C46.3802 46.1629 44.3734 44.9894 42.81 42.5802C41.7033 40.8743 41.1166 38.9646 41.2 37.3409C41.2533 36.3384 41.56 35.566 42.0233 35.2735C42.44 35.0106 43.0567 35.0697 43.5001 35.165C44.8568 35.4576 46.8636 36.631 48.427 39.0402C49.5337 40.7461 50.1204 42.6558 50.037 44.2795Z" stroke="#0078D7"/>
</g>
<defs>
<filter id="filter0_d" x="0.546097" y="0.783157" width="59" height="59.185" filterUnits="userSpaceOnUse" color-interpolation-filters="sRGB">
<feFlood flood-opacity="0" result="BackgroundImageFix"/>
<feColorMatrix in="SourceAlpha" type="matrix" values="0 0 0 0 0 0 0 0 0 0 0 0 0 0 0 0 0 0 127 0"/>
<feOffset dy="4"/>
<feGaussianBlur stdDeviation="2"/>
<feColorMatrix type="matrix" values="0 0 0 0 0 0 0 0 0 0 0 0 0 0 0 0 0 0 0.25 0"/>
<feBlend mode="normal" in2="BackgroundImageFix" result="effect1_dropShadow"/>
<feBlend mode="normal" in="SourceGraphic" in2="effect1_dropShadow" result="shape"/>
</filter>
</defs>
</svg>
