<svg width="84" height="58" viewBox="0 0 84 58" fill="none" xmlns="http://www.w3.org/2000/svg">
<path d="M81.9763 14.9942L46.8327 55.1583L31.7712 40.0967" stroke="#FFE084" stroke-width="4" stroke-linecap="round" stroke-linejoin="round"/>
<path d="M6.81197 28.0896C5.93197 28.0896 5.11197 27.9096 4.35197 27.5496C3.61197 27.1896 3.02197 26.6696 2.58197 25.9896C2.14197 25.2896 1.92197 24.4896 1.92197 23.5896C1.92197 22.1096 2.50197 20.9296 3.66197 20.0496C4.84197 19.1696 6.56197 18.7296 8.82197 18.7296H12.452V18.4896C12.452 17.1696 12.122 16.2196 11.462 15.6395C10.822 15.0596 9.81197 14.7696 8.43197 14.7696C7.67197 14.7696 6.99197 14.8296 6.39197 14.9495C5.81197 15.0696 5.16197 15.2496 4.44197 15.4895C4.28197 15.5296 4.15197 15.5496 4.05197 15.5496C3.75197 15.5496 3.49197 15.4396 3.27197 15.2195C3.05197 14.9996 2.94197 14.7296 2.94197 14.4096C2.94197 13.8696 3.20197 13.4896 3.72197 13.2695C5.42197 12.5495 7.15197 12.1895 8.91197 12.1895C10.292 12.1895 11.452 12.4695 12.392 13.0296C13.352 13.5896 14.052 14.3196 14.492 15.2195C14.952 16.0995 15.182 17.0596 15.182 18.0996V26.5896C15.182 26.9696 15.042 27.2896 14.762 27.5496C14.502 27.8096 14.182 27.9396 13.802 27.9396C13.422 27.9396 13.102 27.8096 12.842 27.5496C12.582 27.2896 12.452 26.9696 12.452 26.5896V25.8096C10.972 27.3296 9.09197 28.0896 6.81197 28.0896ZM7.83197 25.6896C8.71197 25.6896 9.56197 25.4796 10.382 25.0596C11.202 24.6196 11.892 24.0796 12.452 23.4396V20.9196H9.18197C6.16197 20.9196 4.65197 21.7096 4.65197 23.2896C4.65197 24.0096 4.89197 24.5896 5.37197 25.0296C5.87197 25.4696 6.69197 25.6896 7.83197 25.6896ZM27.6177 28.0896C25.6577 28.0896 23.9477 27.3296 22.4877 25.8096V26.5896C22.4877 26.9696 22.3477 27.2896 22.0677 27.5496C21.8077 27.8096 21.4877 27.9396 21.1077 27.9396C20.7277 27.9396 20.4077 27.8096 20.1477 27.5496C19.8877 27.2896 19.7577 26.9696 19.7577 26.5896V7.11955C19.7577 6.73955 19.8877 6.41955 20.1477 6.15955C20.4077 5.87955 20.7277 5.73955 21.1077 5.73955C21.5077 5.73955 21.8377 5.86955 22.0977 6.12955C22.3577 6.38955 22.4877 6.71955 22.4877 7.11955V14.4695C23.9477 12.9495 25.6577 12.1895 27.6177 12.1895C28.8577 12.1895 30.0277 12.5095 31.1277 13.1495C32.2477 13.7696 33.1477 14.6896 33.8277 15.9095C34.5277 17.1095 34.8777 18.5196 34.8777 20.1396C34.8777 21.7596 34.5277 23.1796 33.8277 24.3996C33.1477 25.5996 32.2477 26.5196 31.1277 27.1596C30.0277 27.7796 28.8577 28.0896 27.6177 28.0896ZM27.2277 25.5396C28.7077 25.5396 29.8977 25.0696 30.7977 24.1296C31.6977 23.1896 32.1477 21.8596 32.1477 20.1396C32.1477 18.4196 31.6977 17.0896 30.7977 16.1496C29.8977 15.2096 28.7077 14.7395 27.2277 14.7395C26.3077 14.7395 25.4377 14.9495 24.6177 15.3695C23.8177 15.7695 23.1077 16.3096 22.4877 16.9896V23.2896C23.1077 23.9696 23.8177 24.5196 24.6177 24.9396C25.4377 25.3396 26.3077 25.5396 27.2277 25.5396ZM45.7635 28.0896C44.3235 28.0896 42.9935 27.7696 41.7735 27.1296C40.5535 26.4896 39.5735 25.5696 38.8335 24.3696C38.1135 23.1696 37.7535 21.7596 37.7535 20.1396C37.7535 18.5196 38.1135 17.1095 38.8335 15.9095C39.5735 14.7095 40.5535 13.7895 41.7735 13.1495C42.9935 12.5095 44.3235 12.1895 45.7635 12.1895C46.8235 12.1895 47.7335 12.3295 48.4935 12.6095C49.2735 12.8695 49.9935 13.2095 50.6535 13.6295C51.0535 13.8896 51.2535 14.2396 51.2535 14.6796C51.2535 14.9796 51.1335 15.2596 50.8935 15.5196C50.6735 15.7596 50.4135 15.8796 50.1135 15.8796C49.8935 15.8796 49.6735 15.8196 49.4535 15.6995C48.7935 15.3596 48.2235 15.1196 47.7435 14.9796C47.2835 14.8195 46.7035 14.7395 46.0035 14.7395C44.2835 14.7395 42.9335 15.2395 41.9535 16.2396C40.9735 17.2196 40.4835 18.5196 40.4835 20.1396C40.4835 21.7596 40.9735 23.0696 41.9535 24.0696C42.9335 25.0496 44.2835 25.5396 46.0035 25.5396C46.7035 25.5396 47.2835 25.4696 47.7435 25.3296C48.2235 25.1696 48.7935 24.9196 49.4535 24.5796C49.6735 24.4596 49.8935 24.3996 50.1135 24.3996C50.4135 24.3996 50.6735 24.5296 50.8935 24.7896C51.1335 25.0296 51.2535 25.2996 51.2535 25.5996C51.2535 26.0396 51.0535 26.3896 50.6535 26.6496C49.9935 27.0696 49.2735 27.4196 48.4935 27.6996C47.7335 27.9596 46.8235 28.0896 45.7635 28.0896Z" fill="#FFB6B9"/>
</svg>
